<svg width="24" height="24" viewBox="0 0 24 24" fill="none" xmlns="http://www.w3.org/2000/svg">
<g clip-path="url(#clip0_1768_30696)">
<path d="M23 4H1V20H23V4Z" fill="#00843D"/>
<path d="M11.9222 5.77441C12.5724 6.07896 13.0279 6.78377 13.0279 7.60449C13.0279 8.7038 12.2107 9.59529 11.2031 9.59529C10.7519 9.59529 10.3391 9.41651 10.0205 9.12049C10.2176 9.21268 10.4329 9.26838 10.6597 9.27918C11.6665 9.32713 12.5185 8.47539 12.5625 7.37713C12.588 6.7395 12.3355 6.15879 11.9222 5.77441Z" fill="white"/>
<path d="M10.1817 7.23815L10.3885 6.54395L9.84717 6.97299H10.5163L9.97496 6.54395L10.1817 7.23815Z" fill="white"/>
<path d="M10.1817 6.21374L10.3885 5.51953L9.84717 5.94857H10.5163L9.97496 5.51953L10.1817 6.21374Z" fill="white"/>
<path d="M11.109 6.73815L11.3157 6.04395L10.7744 6.47299H11.4435L10.9022 6.04395L11.109 6.73815Z" fill="white"/>
<path d="M9.25448 7.73718L9.46124 7.04297L8.91992 7.47201H9.58903L9.04771 7.04297L9.25448 7.73718Z" fill="white"/>
<path d="M10.1817 8.26159L10.3885 7.56738L9.84717 7.99642H10.5163L9.97496 7.56738L10.1817 8.26159Z" fill="white"/>
<path d="M7.60014 4H3.64014V20H7.60014V4Z" fill="#D22630"/>
<path d="M3.64014 2.94336V3.10014L3.86283 3.32754L3.78773 3.40381L3.94698 3.56483L3.87707 3.63404V3.53376H3.74112V3.65381L4.04797 3.96737H4.20334L4.22017 3.8572H4.13083L4.22794 3.75833L4.47135 3.99986L4.22794 4.2428L4.13083 4.14392H4.22017L4.20334 4.03234H4.04797L3.74112 4.34591V4.46596H3.87707V4.36568L3.94698 4.43489L3.78773 4.59591L3.86283 4.67359L3.64014 4.89958V5.05636L4.0169 4.67359L3.9418 4.59591L4.09976 4.43489L3.96381 4.29647L4.05445 4.20608L4.22794 4.38122L4.60859 3.99986L4.22794 3.61851L4.05445 3.79506L3.96381 3.70325L4.09976 3.56483L3.9418 3.40382L4.0169 3.32755L3.64014 2.94336ZM3.64014 3.70466V4.29506L3.72818 4.1976V4.08319H3.8214L3.89649 3.99986L3.8214 3.91794H3.72818V3.80212L3.64014 3.70466ZM4.28232 3.9137L4.26937 3.99421L4.28232 4.07613L4.36259 3.99421L4.28232 3.9137Z" fill="#383739"/>
<path d="M3.64017 2.95996V3.08426L3.8784 3.32719L3.8033 3.40347L3.96256 3.56448L3.86675 3.66194V3.54471H3.75151V3.64923L4.05319 3.95572H4.19302L4.20726 3.86815H4.10368L4.22797 3.74103L4.48692 3.99951L4.22797 4.25798L4.10368 4.13228H4.20726L4.19298 4.04329H4.05315L3.75148 4.34979V4.45431H3.86671V4.33708L3.96252 4.43454L3.80327 4.59555L3.87837 4.67323L3.64014 4.91476V5.03906L4.00136 4.67323L3.92627 4.59555L4.08422 4.43454L3.94828 4.29612L4.05445 4.18877L4.22794 4.36533L4.59176 3.99951L4.22794 3.63369L4.05445 3.81024L3.94828 3.7029L4.08422 3.56448L3.92627 3.40346L4.00136 3.32719L3.64014 2.95996L3.64017 2.95996ZM3.64017 3.72126V4.27776L3.71786 4.19301V4.07013H3.81755L3.88228 3.99951L3.81755 3.92889H3.71786V3.80601L3.64017 3.72126ZM4.29012 3.93595L4.28106 3.99386L4.29012 4.05177L4.34709 3.99386L4.29012 3.93595Z" fill="#FFC72C"/>
<path d="M3.64014 5.85547V6.01225L3.86283 6.23965L3.78773 6.31592L3.94698 6.47694L3.87707 6.54615V6.44586H3.74112V6.56592L4.04797 6.87948H4.20334L4.22017 6.76931H4.13083L4.22794 6.67044L4.47135 6.91197L4.22794 7.1549L4.13083 7.05603H4.22017L4.20334 6.94445H4.04797L3.74112 7.25802V7.37807H3.87707V7.27779L3.94698 7.347L3.78773 7.50802L3.86283 7.5857L3.64014 7.81169V7.96847L4.0169 7.5857L3.9418 7.50802L4.09976 7.347L3.96381 7.20858L4.05445 7.11818L4.22794 7.29333L4.60859 6.91197L4.22794 6.53062L4.05445 6.70717L3.96381 6.61536L4.09976 6.47694L3.9418 6.31593L4.0169 6.23966L3.64014 5.85547ZM3.64014 6.61677V7.20716L3.72818 7.10971V6.9953H3.8214L3.89649 6.91197L3.8214 6.83005H3.72818V6.71423L3.64014 6.61677ZM4.28232 6.82581L4.26937 6.90632L4.28232 6.98824L4.36259 6.90632L4.28232 6.82581Z" fill="#383739"/>
<path d="M3.64017 5.87207V5.99637L3.8784 6.2393L3.8033 6.31557L3.96256 6.47659L3.86675 6.57405V6.45682H3.75151V6.56134L4.05319 6.86783H4.19302L4.20726 6.78026H4.10368L4.22797 6.65314L4.48692 6.91162L4.22797 7.17009L4.10368 7.04439H4.20726L4.19298 6.9554H4.05315L3.75148 7.2619V7.36642H3.86671V7.24919L3.96252 7.34665L3.80327 7.50766L3.87837 7.58534L3.64014 7.82687V7.95117L4.00136 7.58534L3.92627 7.50766L4.08422 7.34665L3.94828 7.20823L4.05445 7.10088L4.22794 7.27744L4.59176 6.91162L4.22794 6.5458L4.05445 6.72235L3.94828 6.61501L4.08422 6.47659L3.92627 6.31557L4.00136 6.2393L3.64014 5.87207L3.64017 5.87207ZM3.64017 6.63337V7.18987L3.71786 7.10512V6.98224H3.81755L3.88228 6.91162L3.81755 6.841H3.71786V6.71812L3.64017 6.63337ZM4.29012 6.84806L4.28106 6.90597L4.29012 6.96388L4.34709 6.90597L4.29012 6.84806Z" fill="#FFC72C"/>
<path d="M3.64014 8.86328V9.02006L3.86283 9.24746L3.78773 9.32373L3.94698 9.48475L3.87707 9.55396V9.45368H3.74112V9.57373L4.04797 9.88729H4.20334L4.22017 9.77712H4.13083L4.22794 9.67825L4.47135 9.91978L4.22794 10.1627L4.13083 10.0638H4.22017L4.20334 9.95227H4.04797L3.74112 10.2658V10.3859H3.87707V10.2856L3.94698 10.3548L3.78773 10.5158L3.86283 10.5935L3.64014 10.8195V10.9763L4.0169 10.5935L3.9418 10.5158L4.09976 10.3548L3.96381 10.2164L4.05445 10.126L4.22794 10.3011L4.60859 9.91978L4.22794 9.53843L4.05445 9.71498L3.96381 9.62317L4.09976 9.48476L3.9418 9.32374L4.0169 9.24747L3.64014 8.86328ZM3.64014 9.62458V10.215L3.72818 10.1175V10.0031H3.8214L3.89649 9.91978L3.8214 9.83786H3.72818V9.72204L3.64014 9.62458ZM4.28232 9.83362L4.26937 9.91413L4.28232 9.99605L4.36259 9.91413L4.28232 9.83362Z" fill="#383739"/>
<path d="M3.64017 8.87988V9.00418L3.8784 9.24712L3.8033 9.32339L3.96256 9.4844L3.86675 9.58186V9.46463H3.75151V9.56915L4.05319 9.87565H4.19302L4.20726 9.78808H4.10368L4.22797 9.66096L4.48692 9.91943L4.22797 10.1779L4.10368 10.0522H4.20726L4.19298 9.96322H4.05315L3.75148 10.2697V10.3742H3.86671V10.257L3.96252 10.3545L3.80327 10.5155L3.87837 10.5932L3.64014 10.8347V10.959L4.00136 10.5932L3.92627 10.5155L4.08422 10.3545L3.94828 10.216L4.05445 10.1087L4.22794 10.2852L4.59176 9.91943L4.22794 9.55361L4.05445 9.73017L3.94828 9.62282L4.08422 9.4844L3.92627 9.32339L4.00136 9.24711L3.64014 8.87988L3.64017 8.87988ZM3.64017 9.64119V10.1977L3.71786 10.1129V9.99006H3.81755L3.88228 9.91943L3.81755 9.84881H3.71786V9.72593L3.64017 9.64119ZM4.29012 9.85587L4.28106 9.91378L4.29012 9.97169L4.34709 9.91378L4.29012 9.85587Z" fill="#FFC72C"/>
<path d="M3.64014 11.8711V12.0279L3.86283 12.2553L3.78773 12.3315L3.94698 12.4926L3.87707 12.5618V12.4615H3.74112V12.5815L4.04797 12.8951H4.20334L4.22017 12.7849H4.13083L4.22794 12.6861L4.47135 12.9276L4.22794 13.1705L4.13083 13.0717H4.22017L4.20334 12.9601H4.04797L3.74112 13.2736V13.3937H3.87707V13.2934L3.94698 13.3626L3.78773 13.5236L3.86283 13.6013L3.64014 13.8273V13.9841L4.0169 13.6013L3.9418 13.5236L4.09976 13.3626L3.96381 13.2242L4.05445 13.1338L4.22794 13.309L4.60859 12.9276L4.22794 12.5462L4.05445 12.7228L3.96381 12.631L4.09976 12.4926L3.9418 12.3316L4.0169 12.2553L3.64014 11.8711ZM3.64014 12.6324V13.2228L3.72818 13.1253V13.0109H3.8214L3.89649 12.9276L3.8214 12.8457H3.72818V12.7299L3.64014 12.6324ZM4.28232 12.8414L4.26937 12.9219L4.28232 13.0039L4.36259 12.9219L4.28232 12.8414Z" fill="#383739"/>
<path d="M3.64017 11.8877V12.012L3.8784 12.2549L3.8033 12.3312L3.96256 12.4922L3.86675 12.5897V12.4724H3.75151V12.577L4.05319 12.8835H4.19302L4.20726 12.7959H4.10368L4.22797 12.6688L4.48692 12.9272L4.22797 13.1857L4.10368 13.06H4.20726L4.19298 12.971H4.05315L3.75148 13.2775V13.382H3.86671V13.2648L3.96252 13.3623L3.80327 13.5233L3.87837 13.601L3.64014 13.8425V13.9668L4.00136 13.601L3.92627 13.5233L4.08422 13.3623L3.94828 13.2239L4.05445 13.1165L4.22794 13.2931L4.59176 12.9272L4.22794 12.5614L4.05445 12.738L3.94828 12.6306L4.08422 12.4922L3.92627 12.3312L4.00136 12.2549L3.64014 11.8877L3.64017 11.8877ZM3.64017 12.649V13.2055L3.71786 13.1207V12.9979H3.81755L3.88228 12.9272L3.81755 12.8566H3.71786V12.7337L3.64017 12.649ZM4.29012 12.8637L4.28106 12.9216L4.29012 12.9795L4.34709 12.9216L4.29012 12.8637Z" fill="#FFC72C"/>
<path d="M3.64014 14.8799V15.0367L3.86283 15.2641L3.78773 15.3403L3.94698 15.5014L3.87707 15.5706V15.4703H3.74112V15.5903L4.04797 15.9039H4.20334L4.22017 15.7937H4.13083L4.22794 15.6949L4.47135 15.9364L4.22794 16.1793L4.13083 16.0804H4.22017L4.20334 15.9689H4.04797L3.74112 16.2824V16.4025H3.87707V16.3022L3.94698 16.3714L3.78773 16.5324L3.86283 16.6101L3.64014 16.8361V16.9929L4.0169 16.6101L3.9418 16.5324L4.09976 16.3714L3.96381 16.233L4.05445 16.1426L4.22794 16.3177L4.60859 15.9364L4.22794 15.555L4.05445 15.7316L3.96381 15.6398L4.09976 15.5014L3.9418 15.3403L4.0169 15.2641L3.64014 14.8799ZM3.64014 15.6412V16.2316L3.72818 16.1341V16.0197H3.8214L3.89649 15.9364L3.8214 15.8545H3.72818V15.7386L3.64014 15.6412ZM4.28232 15.8502L4.26937 15.9307L4.28232 16.0127L4.36259 15.9307L4.28232 15.8502Z" fill="#383739"/>
<path d="M3.64017 14.8965V15.0208L3.8784 15.2637L3.8033 15.34L3.96256 15.501L3.86675 15.5985V15.4812H3.75151V15.5858L4.05319 15.8922H4.19302L4.20726 15.8047H4.10368L4.22797 15.6776L4.48692 15.936L4.22797 16.1945L4.10368 16.0688H4.20726L4.19298 15.9798H4.05315L3.75148 16.2863V16.3908H3.86671V16.2736L3.96252 16.3711L3.80327 16.5321L3.87837 16.6098L3.64014 16.8513V16.9756L4.00136 16.6098L3.92627 16.5321L4.08422 16.3711L3.94828 16.2326L4.05445 16.1253L4.22794 16.3019L4.59176 15.936L4.22794 15.5702L4.05445 15.7468L3.94828 15.6394L4.08422 15.501L3.92627 15.34L4.00136 15.2637L3.64014 14.8965L3.64017 14.8965ZM3.64017 15.6578V16.2143L3.71786 16.1295V16.0067H3.81755L3.88228 15.936L3.81755 15.8654H3.71786V15.7425L3.64017 15.6578ZM4.29012 15.8725L4.28106 15.9304L4.29012 15.9883L4.34709 15.9304L4.29012 15.8725Z" fill="#FFC72C"/>
<path d="M7.6001 2.94336V3.10014L7.3774 3.32754L7.4525 3.40381L7.29325 3.56483L7.36316 3.63404V3.53376H7.49911V3.65381L7.19226 3.96737H7.03689L7.02006 3.8572H7.1094L7.0123 3.75833L6.76889 3.99986L7.0123 4.2428L7.1094 4.14392H7.02006L7.03689 4.03234H7.19226L7.49911 4.34591V4.46596H7.36316V4.36568L7.29325 4.43489L7.4525 4.59591L7.3774 4.67359L7.6001 4.89958V5.05636L7.22334 4.67359L7.29843 4.59591L7.14047 4.43489L7.27642 4.29647L7.18579 4.20608L7.0123 4.38122L6.63164 3.99986L7.0123 3.61851L7.18579 3.79506L7.27642 3.70325L7.14047 3.56483L7.29843 3.40382L7.22334 3.32755L7.6001 2.94336ZM7.6001 3.70466V4.29506L7.51206 4.1976V4.08319H7.41884L7.34375 3.99986L7.41884 3.91794H7.51206V3.80212L7.6001 3.70466ZM6.95791 3.9137L6.97086 3.99421L6.95791 4.07613L6.87764 3.99421L6.95791 3.9137Z" fill="#383739"/>
<path d="M7.60006 2.95996V3.08426L7.36183 3.32719L7.43693 3.40347L7.27768 3.56448L7.37349 3.66194V3.54471H7.48872V3.64923L7.18705 3.95572H7.04722L7.03298 3.86815H7.13655L7.01226 3.74103L6.75331 3.99951L7.01226 4.25798L7.13655 4.13228H7.03298L7.04725 4.04329H7.18708L7.48876 4.34979V4.45431H7.37352V4.33708L7.27771 4.43454L7.43697 4.59555L7.36187 4.67323L7.6001 4.91476V5.03906L7.23887 4.67323L7.31397 4.59555L7.15601 4.43454L7.29196 4.29612L7.18579 4.18877L7.0123 4.36533L6.64848 3.99951L7.0123 3.63369L7.18579 3.81024L7.29196 3.7029L7.15601 3.56448L7.31397 3.40346L7.23887 3.32719L7.6001 2.95996L7.60006 2.95996ZM7.60006 3.72126V4.27776L7.52238 4.19301V4.07013H7.42269L7.35795 3.99951L7.42269 3.92889H7.52238V3.80601L7.60006 3.72126ZM6.95011 3.93595L6.95917 3.99386L6.95011 4.05177L6.89315 3.99386L6.95011 3.93595Z" fill="#FFC72C"/>
<path d="M7.6001 5.85547V6.01225L7.3774 6.23965L7.4525 6.31592L7.29325 6.47694L7.36316 6.54615V6.44586H7.49911V6.56592L7.19226 6.87948H7.03689L7.02006 6.76931H7.1094L7.0123 6.67044L6.76889 6.91197L7.0123 7.1549L7.1094 7.05603H7.02006L7.03689 6.94445H7.19226L7.49911 7.25802V7.37807H7.36316V7.27779L7.29325 7.347L7.4525 7.50802L7.3774 7.5857L7.6001 7.81169V7.96847L7.22334 7.5857L7.29843 7.50802L7.14047 7.347L7.27642 7.20858L7.18579 7.11818L7.0123 7.29333L6.63164 6.91197L7.0123 6.53062L7.18579 6.70717L7.27642 6.61536L7.14047 6.47694L7.29843 6.31593L7.22334 6.23966L7.6001 5.85547ZM7.6001 6.61677V7.20716L7.51206 7.10971V6.9953H7.41884L7.34375 6.91197L7.41884 6.83005H7.51206V6.71423L7.6001 6.61677ZM6.95791 6.82581L6.97086 6.90632L6.95791 6.98824L6.87764 6.90632L6.95791 6.82581Z" fill="#383739"/>
<path d="M7.60006 5.87207V5.99637L7.36183 6.2393L7.43693 6.31557L7.27768 6.47659L7.37349 6.57405V6.45682H7.48872V6.56134L7.18705 6.86783H7.04722L7.03298 6.78026H7.13655L7.01226 6.65314L6.75331 6.91162L7.01226 7.17009L7.13655 7.04439H7.03298L7.04725 6.9554H7.18708L7.48876 7.2619V7.36642H7.37352V7.24919L7.27771 7.34665L7.43697 7.50766L7.36187 7.58534L7.6001 7.82687V7.95117L7.23887 7.58534L7.31397 7.50766L7.15601 7.34665L7.29196 7.20823L7.18579 7.10088L7.0123 7.27744L6.64848 6.91162L7.0123 6.5458L7.18579 6.72235L7.29196 6.61501L7.15601 6.47659L7.31397 6.31557L7.23887 6.2393L7.6001 5.87207L7.60006 5.87207ZM7.60006 6.63337V7.18987L7.52238 7.10512V6.98224H7.42269L7.35795 6.91162L7.42269 6.841H7.52238V6.71812L7.60006 6.63337ZM6.95011 6.84806L6.95917 6.90597L6.95011 6.96388L6.89315 6.90597L6.95011 6.84806Z" fill="#FFC72C"/>
<path d="M7.6001 8.86328V9.02006L7.3774 9.24746L7.4525 9.32373L7.29325 9.48475L7.36316 9.55396V9.45368H7.49911V9.57373L7.19226 9.88729H7.03689L7.02006 9.77712H7.1094L7.0123 9.67825L6.76889 9.91978L7.0123 10.1627L7.1094 10.0638H7.02006L7.03689 9.95227H7.19226L7.49911 10.2658V10.3859H7.36316V10.2856L7.29325 10.3548L7.4525 10.5158L7.3774 10.5935L7.6001 10.8195V10.9763L7.22334 10.5935L7.29843 10.5158L7.14047 10.3548L7.27642 10.2164L7.18579 10.126L7.0123 10.3011L6.63164 9.91978L7.0123 9.53843L7.18579 9.71498L7.27642 9.62317L7.14047 9.48476L7.29843 9.32374L7.22334 9.24747L7.6001 8.86328ZM7.6001 9.62458V10.215L7.51206 10.1175V10.0031H7.41884L7.34375 9.91978L7.41884 9.83786H7.51206V9.72204L7.6001 9.62458ZM6.95791 9.83362L6.97086 9.91413L6.95791 9.99605L6.87764 9.91413L6.95791 9.83362Z" fill="#383739"/>
<path d="M7.60006 8.87988V9.00418L7.36183 9.24712L7.43693 9.32339L7.27768 9.4844L7.37349 9.58186V9.46463H7.48872V9.56915L7.18705 9.87565H7.04722L7.03298 9.78808H7.13655L7.01226 9.66096L6.75331 9.91943L7.01226 10.1779L7.13655 10.0522H7.03298L7.04725 9.96322H7.18708L7.48876 10.2697V10.3742H7.37352V10.257L7.27771 10.3545L7.43697 10.5155L7.36187 10.5932L7.6001 10.8347V10.959L7.23887 10.5932L7.31397 10.5155L7.15601 10.3545L7.29196 10.216L7.18579 10.1087L7.0123 10.2852L6.64848 9.91943L7.0123 9.55361L7.18579 9.73017L7.29196 9.62282L7.15601 9.4844L7.31397 9.32339L7.23887 9.24711L7.6001 8.87988L7.60006 8.87988ZM7.60006 9.64119V10.1977L7.52238 10.1129V9.99006H7.42269L7.35795 9.91943L7.42269 9.84881H7.52238V9.72593L7.60006 9.64119ZM6.95011 9.85587L6.95917 9.91378L6.95011 9.97169L6.89315 9.91378L6.95011 9.85587Z" fill="#FFC72C"/>
<path d="M7.6001 11.8711V12.0279L7.3774 12.2553L7.4525 12.3315L7.29325 12.4926L7.36316 12.5618V12.4615H7.49911V12.5815L7.19226 12.8951H7.03689L7.02006 12.7849H7.1094L7.0123 12.6861L6.76889 12.9276L7.0123 13.1705L7.1094 13.0717H7.02006L7.03689 12.9601H7.19226L7.49911 13.2736V13.3937H7.36316V13.2934L7.29325 13.3626L7.4525 13.5236L7.3774 13.6013L7.6001 13.8273V13.9841L7.22334 13.6013L7.29843 13.5236L7.14047 13.3626L7.27642 13.2242L7.18579 13.1338L7.0123 13.309L6.63164 12.9276L7.0123 12.5462L7.18579 12.7228L7.27642 12.631L7.14047 12.4926L7.29843 12.3316L7.22334 12.2553L7.6001 11.8711ZM7.6001 12.6324V13.2228L7.51206 13.1253V13.0109H7.41884L7.34375 12.9276L7.41884 12.8457H7.51206V12.7299L7.6001 12.6324ZM6.95791 12.8414L6.97086 12.9219L6.95791 13.0039L6.87764 12.9219L6.95791 12.8414Z" fill="#383739"/>
<path d="M7.60006 11.8877V12.012L7.36183 12.2549L7.43693 12.3312L7.27768 12.4922L7.37349 12.5897V12.4724H7.48872V12.577L7.18705 12.8835H7.04722L7.03298 12.7959H7.13655L7.01226 12.6688L6.75331 12.9272L7.01226 13.1857L7.13655 13.06H7.03298L7.04725 12.971H7.18708L7.48876 13.2775V13.382H7.37352V13.2648L7.27771 13.3623L7.43697 13.5233L7.36187 13.601L7.6001 13.8425V13.9668L7.23887 13.601L7.31397 13.5233L7.15601 13.3623L7.29196 13.2239L7.18579 13.1165L7.0123 13.2931L6.64848 12.9272L7.0123 12.5614L7.18579 12.738L7.29196 12.6306L7.15601 12.4922L7.31397 12.3312L7.23887 12.2549L7.6001 11.8877L7.60006 11.8877ZM7.60006 12.649V13.2055L7.52238 13.1207V12.9979H7.42269L7.35795 12.9272L7.42269 12.8566H7.52238V12.7337L7.60006 12.649ZM6.95011 12.8637L6.95917 12.9216L6.95011 12.9795L6.89315 12.9216L6.95011 12.8637Z" fill="#FFC72C"/>
<path d="M7.6001 14.8789V15.0357L7.3774 15.2631L7.4525 15.3394L7.29325 15.5004L7.36316 15.5696V15.4693H7.49911V15.5894L7.19226 15.9029H7.03689L7.02006 15.7927H7.1094L7.0123 15.6939L6.76889 15.9354L7.0123 16.1783L7.1094 16.0795H7.02006L7.03689 15.9679H7.19226L7.49911 16.2815V16.4015H7.36316V16.3012L7.29325 16.3704L7.4525 16.5315L7.3774 16.6091L7.6001 16.8351V16.9919L7.22334 16.6091L7.29843 16.5315L7.14047 16.3704L7.27642 16.232L7.18579 16.1416L7.0123 16.3168L6.63164 15.9354L7.0123 15.5541L7.18579 15.7306L7.27642 15.6388L7.14047 15.5004L7.29843 15.3394L7.22334 15.2631L7.6001 14.8789ZM7.6001 15.6402V16.2306L7.51206 16.1331V16.0187H7.41884L7.34375 15.9354L7.41884 15.8535H7.51206V15.7377L7.6001 15.6402ZM6.95791 15.8492L6.97086 15.9298L6.95791 16.0117L6.87764 15.9298L6.95791 15.8492Z" fill="#383739"/>
<path d="M7.60006 14.8955V15.0198L7.36183 15.2627L7.43693 15.339L7.27768 15.5L7.37349 15.5975V15.4803H7.48872V15.5848L7.18705 15.8913H7.04722L7.03298 15.8037H7.13655L7.01226 15.6766L6.75331 15.9351L7.01226 16.1935L7.13655 16.0678H7.03298L7.04725 15.9788H7.18708L7.48876 16.2853V16.3899H7.37352V16.2726L7.27771 16.3701L7.43697 16.5311L7.36187 16.6088L7.6001 16.8503V16.9746L7.23887 16.6088L7.31397 16.5311L7.15601 16.3701L7.29196 16.2317L7.18579 16.1243L7.0123 16.3009L6.64848 15.9351L7.0123 15.5692L7.18579 15.7458L7.29196 15.6384L7.15601 15.5L7.31397 15.339L7.23887 15.2627L7.6001 14.8955L7.60006 14.8955ZM7.60006 15.6568V16.2133L7.52238 16.1286V16.0057H7.42269L7.35795 15.9351L7.42269 15.8644H7.52238V15.7416L7.60006 15.6568ZM6.95011 15.8715L6.95917 15.9294L6.95011 15.9873L6.89315 15.9294L6.95011 15.8715Z" fill="#FFC72C"/>
<path d="M3.96117 18.1553C3.98071 18.2462 4.04693 18.3147 4.06271 18.409C4.0943 18.3107 4.12343 18.2284 4.10168 18.1209C4.08612 18.044 4.02684 17.9892 4.01997 17.9102C3.95534 17.9735 3.94142 18.0635 3.96117 18.1553ZM3.94479 18.536C3.99962 18.618 4.07582 18.6809 4.15998 18.7228C4.14341 18.651 4.1745 18.5969 4.20901 18.5399C4.25059 18.4713 4.27086 18.4039 4.23697 18.3248C4.22117 18.3659 4.19995 18.4 4.17504 18.4352C4.13821 18.49 4.114 18.5387 4.10832 18.609C4.06573 18.5746 4.04702 18.5232 4.02424 18.4734C3.98952 18.4021 3.9335 18.3425 3.86914 18.3036C3.88624 18.3835 3.89941 18.4681 3.94479 18.536ZM4.25226 18.7804C4.24054 18.826 4.23044 18.8711 4.2327 18.9187C4.19647 18.8761 4.14836 18.8441 4.10545 18.8098C4.047 18.7582 3.97888 18.7219 3.93109 18.6562C3.93822 18.7528 3.97613 18.8316 4.04812 18.8904C4.12421 18.9525 4.21598 18.9859 4.29092 19.0512C4.2797 18.9633 4.3093 18.8929 4.33454 18.8121C4.35558 18.7349 4.33522 18.6565 4.28723 18.5977C4.28795 18.6629 4.26909 18.7189 4.25226 18.7804ZM4.42303 19.0773C4.43879 19.144 4.48259 19.1982 4.51249 19.2577C4.43186 19.2304 4.36071 19.1827 4.28781 19.1378C4.20099 19.0862 4.10671 19.0534 4.02811 18.9853C4.06723 19.1433 4.16417 19.2349 4.306 19.2816C4.40298 19.3135 4.4847 19.2976 4.60237 19.3495C4.58888 19.2626 4.5651 19.1688 4.52744 19.0904C4.49821 19.0338 4.46579 18.9779 4.44774 18.9155C4.42159 18.9667 4.40921 19.0189 4.42303 19.0773ZM4.71975 19.3191C4.74751 19.3709 4.78416 19.4146 4.82962 19.4491C4.71514 19.457 4.62302 19.3779 4.51142 19.3744C4.44249 19.3723 4.37705 19.3957 4.30675 19.3887C4.39017 19.4501 4.47751 19.5037 4.57908 19.518C4.71111 19.5366 4.83287 19.5004 4.97853 19.5146C4.91046 19.4622 4.8764 19.392 4.83397 19.3166C4.77872 19.2224 4.72658 19.1553 4.61912 19.1401C4.66225 19.193 4.68736 19.2585 4.71975 19.3191ZM5.12629 19.5263C4.92463 19.5637 4.73138 19.6121 4.52541 19.6143C4.75596 19.702 4.97319 19.7179 5.20184 19.6274C5.32541 19.5784 5.42015 19.5522 5.51348 19.5595C5.64986 19.5702 5.81561 19.6289 5.99905 19.84L6.07115 19.777C5.80824 19.5215 5.46425 19.4636 5.12631 19.5263L5.12629 19.5263Z" fill="#FFC72C"/>
<path d="M4.13518 5.87584L3.81787 5.66357V5.1533L4.13518 4.94102V4.67102L4.43504 4.47403H4.67461L5.13044 4.19434H6.10903L6.56486 4.47403H6.80443L7.10429 4.67102V4.94102L7.4216 5.1533L7.42159 5.66357L7.10429 5.87584V6.14584L6.80443 6.34283H6.56486L6.10903 6.62253H5.13044L4.67461 6.34283H4.43504L4.13518 6.14584V5.87584Z" fill="#383739"/>
<path d="M5.13289 4.20605L4.67715 4.48572H4.43892L4.14631 4.67781V4.94758L3.8291 5.15944V5.65662L4.14631 5.86848V6.13967L4.43762 6.33176H4.67715L5.13289 6.61142H6.10653L6.56227 6.33176H6.80179L7.0944 6.13967V5.86848L7.41161 5.65662V5.15944L7.0944 4.94758V4.67781L6.80179 4.48572H6.56227L6.10653 4.20605H5.13289ZM5.16008 4.30916H6.08063L6.53637 4.58882H6.7746L6.996 4.7343V5.00408L7.3145 5.21594V5.60012L6.996 5.81199V6.08176L6.7746 6.22724H6.53637L6.08063 6.5069H5.16008L4.70434 6.22724H4.46611L4.24342 6.08176V5.81199L3.92621 5.60012V5.21594L4.24342 5.00408V4.7343L4.46611 4.58882H4.70434L5.16008 4.30916Z" fill="#00843D"/>
<path d="M5.61467 5.41387V4.32031H5.1623L4.70645 4.60001H4.46881L4.25382 4.74124V5.01058L3.93652 5.22284V5.40246L5.62516 5.40244V6.49603H6.07753L6.53337 6.21633H6.77103L6.98599 6.0751V5.80577L7.30331 5.5935V5.41388L5.61467 5.41387Z" fill="#FFC72C"/>
<path d="M3.93654 5.41388L3.93652 5.5935L4.25384 5.80577V6.0751L4.46881 6.21633H4.70646L5.1623 6.49603H5.61468V5.40244L7.30332 5.40246V5.22284L6.98601 5.01058V4.74124L6.77104 4.60001H6.53338L6.07754 4.32031H5.62518V5.41387L3.93654 5.41388Z" fill="white"/>
<path d="M4.62841 4.70052L4.5503 4.62109L4.4729 4.67316L4.55115 4.75274L4.45068 4.82065H4.66992L4.85886 5.01506L4.9193 4.94543L4.7356 4.75639V4.62807L4.62841 4.70052Z" fill="#383739"/>
<path d="M4.99853 4.66536L4.92042 4.58594L4.84302 4.638L4.92127 4.71759L4.8208 4.78549H5.04004L5.22897 4.97991L5.28941 4.91027L5.10572 4.72123V4.59291L4.99853 4.66536Z" fill="#383739"/>
<path d="M4.60154 4.92806L4.52343 4.84863L4.44605 4.9007L4.52428 4.98028L4.42383 5.04818H4.64306L4.83199 5.2426L4.89243 5.17297L4.70873 4.98393V4.85561L4.60154 4.92806Z" fill="#383739"/>
<path d="M5.62004 4.30859H5.42221L5.31869 4.41743H5.11689L4.96777 4.50186L5.00255 4.59429L5.13553 4.5181H5.19377L5.39767 4.77535L5.62004 4.62762L5.62004 4.30859Z" fill="#383739"/>
<path d="M4.54935 4.63477L4.61954 4.70614L4.56073 4.74589L4.49043 4.6744L4.54935 4.63477ZM4.72548 4.64797V4.76069L4.90484 4.94526L4.85879 4.99832L4.67444 4.80861H4.48779L4.72548 4.64797Z" fill="#D22630"/>
<path d="M4.91898 4.60059L4.98917 4.67196L4.93036 4.71171L4.86008 4.64022L4.91898 4.60059ZM5.09511 4.61379V4.72651L5.27447 4.91108L5.22842 4.96414L5.04407 4.77444H4.85742L5.09511 4.61379Z" fill="#D22630"/>
<path d="M4.52202 4.86328L4.5922 4.93466L4.53339 4.9744L4.4631 4.90291L4.52202 4.86328ZM4.69814 4.87648V4.9892L4.8775 5.17378L4.83146 5.22683L4.64711 5.03714H4.46045L4.69814 4.87648Z" fill="#D22630"/>
<path d="M5.61468 4.32031H5.42631L5.32279 4.42914H5.11932L4.98096 4.50748L5.00772 4.57865L5.1328 4.507H5.19843L5.39966 4.76089L5.61468 4.61806L5.61468 4.32031Z" fill="#D22630"/>
<path d="M4.62841 6.11491L4.5503 6.19434L4.4729 6.14227L4.55115 6.06269L4.45068 5.99478H4.66992L4.85886 5.80037L4.9193 5.87L4.7356 6.05904V6.18736L4.62841 6.11491Z" fill="#383739"/>
<path d="M4.99853 6.15007L4.92042 6.22949L4.84302 6.17743L4.92127 6.09784L4.8208 6.02994H5.04004L5.22897 5.83552L5.28941 5.90516L5.10572 6.0942V6.22252L4.99853 6.15007Z" fill="#383739"/>
<path d="M4.60154 5.88737L4.52343 5.9668L4.44605 5.91473L4.52428 5.83515L4.42383 5.76724H4.64306L4.83199 5.57283L4.89243 5.64246L4.70873 5.8315V5.95982L4.60154 5.88737Z" fill="#383739"/>
<path d="M5.62004 6.50684H5.42221L5.31869 6.398H5.11689L4.96777 6.31357L5.00255 6.22114L5.13553 6.29733H5.19377L5.39767 6.04008L5.62004 6.18781L5.62004 6.50684Z" fill="#383739"/>
<path d="M4.54935 6.18066L4.61954 6.10929L4.56073 6.06954L4.49043 6.14103L4.54935 6.18066ZM4.72548 6.16746V6.05474L4.90484 5.87017L4.85879 5.81711L4.67444 6.00682H4.48779L4.72548 6.16746Z" fill="#D22630"/>
<path d="M4.91898 6.21484L4.98917 6.14347L4.93036 6.10372L4.86008 6.17521L4.91898 6.21484ZM5.09511 6.20164V6.08892L5.27447 5.90435L5.22842 5.85129L5.04407 6.04099H4.85742L5.09511 6.20164Z" fill="#D22630"/>
<path d="M4.52202 5.95215L4.5922 5.88077L4.53339 5.84103L4.4631 5.91252L4.52202 5.95215ZM4.69814 5.93895V5.82623L4.8775 5.64165L4.83146 5.5886L4.64711 5.77829H4.46045L4.69814 5.93895Z" fill="#D22630"/>
<path d="M5.61468 6.49512H5.42631L5.32279 6.38629H5.11932L4.98096 6.30795L5.00772 6.23678L5.1328 6.30843H5.19843L5.39966 6.05454L5.61468 6.19737L5.61468 6.49512Z" fill="#D22630"/>
<path d="M4.49694 5.05896L4.40261 5.02051L4.40036 5.02222L4.27856 5.11441V5.1392L4.0835 5.4083L4.27856 5.6774V5.7022L4.40261 5.79609L4.49694 5.75764L4.43937 5.71606V5.63694L4.46225 5.60708H4.56446V5.20952H4.46225L4.43937 5.17966V5.10054L4.49694 5.05896Z" fill="#383739"/>
<path d="M4.28887 5.12028L4.40392 5.0332L4.47388 5.06172L4.42873 5.09432V5.18372L4.45719 5.22084H4.55381V5.59559H4.45719L4.42873 5.63271V5.7221L4.47388 5.75471L4.40392 5.78322L4.28887 5.69615L4.28889 5.67335L4.09668 5.40821L4.28889 5.14306L4.28887 5.12028Z" fill="#D22630"/>
<path d="M6.61133 4.70052L6.68945 4.62109L6.76684 4.67316L6.6886 4.75274L6.78906 4.82065H6.56983L6.38089 5.01506L6.32045 4.94543L6.50415 4.75639V4.62807L6.61133 4.70052Z" fill="#383739"/>
<path d="M6.24121 4.66536L6.31933 4.58594L6.39673 4.638L6.31848 4.71759L6.41895 4.78549H6.19971L6.01077 4.97991L5.95033 4.91027L6.13403 4.72123V4.59291L6.24121 4.66536Z" fill="#383739"/>
<path d="M6.6382 4.92806L6.71632 4.84863L6.7937 4.9007L6.71547 4.98028L6.81592 5.04818H6.59668L6.40776 5.2426L6.34732 5.17297L6.53102 4.98393V4.85561L6.6382 4.92806Z" fill="#383739"/>
<path d="M5.61971 4.30859H5.81754L5.92106 4.41743H6.12286L6.27197 4.50186L6.2372 4.59429L6.10422 4.5181H6.04597L5.84208 4.77535L5.6197 4.62762L5.61971 4.30859Z" fill="#383739"/>
<path d="M6.6904 4.63477L6.6202 4.70614L6.67902 4.74589L6.74931 4.6744L6.6904 4.63477ZM6.51427 4.64797V4.76069L6.33491 4.94526L6.38096 4.99832L6.56531 4.80861H6.75195L6.51427 4.64797Z" fill="#D22630"/>
<path d="M6.32077 4.60059L6.25057 4.67196L6.30939 4.71171L6.37967 4.64022L6.32077 4.60059ZM6.14464 4.61379V4.72651L5.96528 4.91108L6.01133 4.96414L6.19568 4.77444H6.38232L6.14464 4.61379Z" fill="#D22630"/>
<path d="M6.71773 4.86328L6.64755 4.93466L6.70636 4.9744L6.77664 4.90291L6.71773 4.86328ZM6.54161 4.87648V4.9892L6.36225 5.17378L6.40829 5.22683L6.59263 5.03714H6.7793L6.54161 4.87648Z" fill="#D22630"/>
<path d="M5.62507 4.32031H5.81344L5.91695 4.42914H6.12042L6.25879 4.50748L6.23202 4.57865L6.10694 4.507H6.04131L5.84008 4.76089L5.62507 4.61806L5.62507 4.32031Z" fill="#D22630"/>
<path d="M6.61133 6.11491L6.68945 6.19434L6.76684 6.14227L6.6886 6.06269L6.78906 5.99478H6.56983L6.38089 5.80037L6.32045 5.87L6.50415 6.05904V6.18736L6.61133 6.11491Z" fill="#383739"/>
<path d="M6.24121 6.15007L6.31933 6.22949L6.39673 6.17743L6.31848 6.09784L6.41895 6.02994H6.19971L6.01077 5.83552L5.95033 5.90516L6.13403 6.0942V6.22252L6.24121 6.15007Z" fill="#383739"/>
<path d="M6.6382 5.88737L6.71632 5.9668L6.7937 5.91473L6.71547 5.83515L6.81592 5.76724H6.59668L6.40776 5.57283L6.34732 5.64246L6.53102 5.8315V5.95982L6.6382 5.88737Z" fill="#383739"/>
<path d="M5.61971 6.50684H5.81754L5.92106 6.398H6.12286L6.27197 6.31357L6.2372 6.22114L6.10422 6.29733H6.04597L5.84208 6.04008L5.6197 6.18781L5.61971 6.50684Z" fill="#383739"/>
<path d="M6.6904 6.18066L6.6202 6.10929L6.67902 6.06954L6.74931 6.14103L6.6904 6.18066ZM6.51427 6.16746V6.05474L6.33491 5.87017L6.38096 5.81711L6.56531 6.00682H6.75195L6.51427 6.16746Z" fill="#D22630"/>
<path d="M6.32077 6.21484L6.25057 6.14347L6.30939 6.10372L6.37967 6.17521L6.32077 6.21484ZM6.14464 6.20164V6.08892L5.96528 5.90435L6.01133 5.85129L6.19568 6.04099H6.38232L6.14464 6.20164Z" fill="#D22630"/>
<path d="M6.71773 5.95215L6.64755 5.88077L6.70636 5.84103L6.77664 5.91252L6.71773 5.95215ZM6.54161 5.93895V5.82623L6.36225 5.64165L6.40829 5.5886L6.59263 5.77829H6.7793L6.54161 5.93895Z" fill="#D22630"/>
<path d="M5.62507 6.49512H5.81344L5.91695 6.38629H6.12042L6.25879 6.30795L6.23202 6.23678L6.10694 6.30843H6.04131L5.84008 6.05454L5.62507 6.19737L5.62507 6.49512Z" fill="#D22630"/>
<path d="M6.74281 5.05896L6.83713 5.02051L6.83939 5.02222L6.96118 5.11441V5.1392L7.15625 5.4083L6.96118 5.6774V5.7022L6.83713 5.79609L6.74281 5.75764L6.80038 5.71606V5.63694L6.7775 5.60708H6.67529V5.20952H6.7775L6.80038 5.17966V5.10054L6.74281 5.05896Z" fill="#383739"/>
<path d="M6.95087 5.12028L6.83583 5.0332L6.76587 5.06172L6.81101 5.09432V5.18372L6.78256 5.22084H6.68594V5.59559H6.78256L6.81101 5.63271V5.7221L6.76587 5.75471L6.83583 5.78322L6.95087 5.69615L6.95086 5.67335L7.14307 5.40821L6.95086 5.14306L6.95087 5.12028Z" fill="#D22630"/>
<path d="M4.32964 5.63375L4.27653 5.58362V5.55946L4.1626 5.40786L4.27654 5.25624V5.2321L4.32965 5.18197L4.42504 5.26659L4.36998 5.26613L4.45134 5.35621H4.63724L4.78344 5.23149V4.90258H5.14909L5.57375 4.61829V4.54373L5.50881 4.49651H5.48823L5.41751 4.54815L5.40655 4.58666L5.35123 4.50426L5.45875 4.40571H5.47594L5.59728 4.30859H5.64302L5.76434 4.40571H5.78155L5.88907 4.50426L5.83375 4.58666L5.82279 4.54815L5.75207 4.49651H5.73149L5.66655 4.54373V4.61829L6.09121 4.90258H6.45686V5.23149L6.60306 5.35621H6.78896L6.87032 5.26613L6.81526 5.26659L6.91065 5.18197L6.96376 5.2321V5.25624L7.0777 5.40786L6.96376 5.55946V5.58362L6.91065 5.63375L6.81526 5.54912L6.87032 5.54959L6.78896 5.45949H6.60306L6.45686 5.58423V5.91314H6.09121L5.66655 6.19743V6.27199L5.73149 6.3192H5.75207L5.82279 6.26757L5.83375 6.22906L5.88907 6.31144L5.78155 6.41H5.76434L5.64302 6.50712H5.59728L5.47594 6.41H5.45875L5.35121 6.31144L5.40655 6.22906L5.41751 6.26757L5.48822 6.3192H5.50879L5.57375 6.27199V6.19743L5.14909 5.91314H4.78344V5.58423L4.63723 5.45949H4.45134L4.36998 5.54959L4.42504 5.54912L4.32964 5.63375Z" fill="#383739"/>
<path d="M5.62515 6.32838L5.67163 6.36714L5.62515 6.40591V6.32838ZM5.47741 6.39889H5.47913L5.60047 6.49602H5.61464V6.42025L5.55098 6.36714L5.61465 6.31404V6.1717L5.16025 5.8675H4.82434V5.56183L4.6509 5.41386H4.38931L4.32356 5.49497L4.25781 5.41386L4.18018 5.41388L4.28674 5.55567V5.5787L4.32895 5.6187L4.39677 5.5611L4.35697 5.56143V5.54703L4.44567 5.44839H4.64059L4.79367 5.57898V5.90204H5.15181L5.58397 6.19135V6.27839L5.51172 6.33092H5.48478L5.40835 6.27511L5.40247 6.25441L5.3652 6.3099L5.46232 6.39889L5.47741 6.39889ZM4.32362 5.33862L4.37539 5.40246H4.27183L4.32362 5.33862ZM5.61466 4.41042L5.56822 4.44919L5.61466 4.48794V4.41042ZM6.86444 5.41388L6.91621 5.47772L6.96799 5.41388H6.86444ZM5.76067 4.41743L5.63933 4.32031H5.62517V4.39606L5.68885 4.44919L5.62515 4.50233V4.64463L6.07955 4.94884H6.41546V5.2545L6.5889 5.40247H6.85045L6.91621 5.32138L6.98198 5.40246H7.05962L6.95306 5.26066V5.23764L6.91085 5.19764L6.84303 5.25524L6.88283 5.25489V5.2693L6.79413 5.36793H6.59921L6.44615 5.23734V4.9143H6.08799L5.65583 4.62498V4.53793L5.72808 4.48542H5.75502L5.83145 4.54122L5.83733 4.56193L5.8746 4.50644L5.77748 4.41743L5.76067 4.41743Z" fill="#FFC72C"/>
<path d="M5.61463 6.4059L5.56819 6.36714L5.61463 6.32839V6.4059ZM4.37536 5.41388L4.32359 5.47772L4.27181 5.41388H4.37536ZM5.76236 6.39889H5.76064L5.6393 6.49602H5.62514V6.47618V6.42028L5.68882 6.36714L5.62512 6.31401V6.1717L6.07952 5.8675H6.41543V5.56183L6.58887 5.41386H6.85043L6.91618 5.49497L6.98194 5.41386L7.0596 5.41388L6.95303 5.55567V5.5787L6.91082 5.6187L6.843 5.5611L6.8828 5.56143V5.54703L6.7941 5.44839H6.59918L6.44612 5.57898V5.90204H6.08796L5.6558 6.19135V6.27839L5.72805 6.33092H5.75499L5.83142 6.27511L5.8373 6.25441L5.87457 6.3099L5.77745 6.39889L5.76236 6.39889ZM6.91618 5.33862L6.86441 5.40246H6.96797L6.91618 5.33862ZM5.47913 4.41743L5.60047 4.32031H5.61465V4.39606L5.55095 4.44919L5.61465 4.50233L5.61466 4.64463L5.16025 4.94884H4.82435V5.2545L4.6509 5.40247H4.38928L4.32353 5.32138L4.25776 5.40246H4.18018L4.28676 5.26066V5.23764L4.32897 5.19764L4.39677 5.25524L4.35697 5.25489V5.2693L4.44569 5.36793H4.64059L4.79367 5.23734V4.9143H5.15181L5.58398 4.62498V4.53793L5.51173 4.48542H5.48478L5.40835 4.54122L5.40247 4.56193L5.36521 4.50644L5.46234 4.41743L5.47913 4.41743ZM5.62512 4.48796L5.6716 4.44919L5.62512 4.41042V4.48796Z" fill="white"/>
<path d="M5.61473 5.41407V4.6582L5.16328 4.96044H4.83488V5.26025L4.66797 5.40265L5.62522 5.40263V6.15851L6.07664 5.85628H6.40504V5.55648L6.57195 5.41408L5.61473 5.41407Z" fill="#00843D"/>
<path d="M4.66797 5.41406L4.83489 5.55646V5.85627H5.16328L5.61475 6.15851V5.40262L6.57197 5.40264L6.40506 5.26024V4.96043H6.07666L5.62523 4.6582V5.41405L4.66797 5.41406Z" fill="#D22630"/>
<path d="M5.13377 5.04134L5.05567 4.96191L4.97827 5.01396L5.05652 5.09355L4.95605 5.16145H5.17529L5.36423 5.35588L5.42467 5.28623L5.24097 5.09719V4.96889L5.13377 5.04134Z" fill="#383739"/>
<path d="M6.10582 5.77451L6.18394 5.85393L6.26132 5.80187L6.18309 5.72228L6.28356 5.65439H6.0643L5.87538 5.45996L5.81494 5.52959L5.99864 5.71865V5.84695L6.10582 5.77451Z" fill="#383739"/>
<path d="M5.13377 5.77451L5.05566 5.85393L4.97827 5.80187L5.05651 5.72228L4.95605 5.65439H5.17529L5.36421 5.45996L5.42465 5.52959L5.24095 5.71865V5.84695L5.13377 5.77451Z" fill="#383739"/>
<path d="M6.10582 5.04134L6.18394 4.96191L6.26132 5.01396L6.18309 5.09355L6.28356 5.16145H6.0643L5.87538 5.35588L5.81494 5.28623L5.99864 5.09719V4.96889L6.10582 5.04134Z" fill="#383739"/>
<path d="M6.18531 5.84007L6.11513 5.76869L6.17395 5.72895L6.24423 5.80044L6.18531 5.84007ZM6.0092 5.82687V5.71417L5.82984 5.52959L5.87589 5.47652L6.06024 5.66623H6.24689L6.0092 5.82687ZM5.05472 4.97656L5.12491 5.04794L5.06609 5.0877L4.9958 5.01621L5.05472 4.97656ZM5.23085 4.98978V5.10248L5.41021 5.28706L5.36416 5.34013L5.17981 5.15042H4.99316L5.23085 4.98978Z" fill="#D22630"/>
<path d="M6.18533 4.97656L6.11515 5.04794L6.17396 5.0877L6.24424 5.01621L6.18533 4.97656ZM6.00921 4.98978V5.10248L5.82985 5.28706L5.87591 5.34013L6.06025 5.15042H6.2469L6.00921 4.98978ZM5.05473 5.84007L5.12491 5.76869L5.0661 5.72895L4.99582 5.80044L5.05473 5.84007ZM5.23085 5.82687V5.71417L5.41021 5.52959L5.36417 5.47652L5.17983 5.66623H4.99316L5.23085 5.82687Z" fill="#00843D"/>
<path d="M6.10516 5.40862L5.61972 5.76156L5.13428 5.40862L5.61972 5.05566L6.10516 5.40862Z" fill="#383739"/>
<path d="M5.61463 5.07324L5.16115 5.40295H6.07859L5.62511 5.07324V5.74409L6.07861 5.41438H5.16113L5.61463 5.74409V5.07324Z" fill="white"/>
<path d="M5.7499 5.52924V5.62628H5.49029V5.52924H5.32227V5.28649H5.49029V5.18945H5.7499V5.28649H5.91791V5.52924H5.7499Z" fill="#383739"/>
<path d="M5.50053 5.20117V5.29821H5.33252V5.40247H5.61462V5.20117L5.50053 5.20117ZM5.62511 5.40247H5.9072V5.29821H5.7392V5.20117H5.62511L5.62511 5.40247ZM5.33252 5.41389V5.51815H5.50053V5.61519H5.61462V5.41389L5.33252 5.41389ZM5.62511 5.61519H5.7392V5.51815H5.9072V5.41389H5.62511V5.61519Z" fill="#D22630"/>
<path d="M6.44824 9.42926V9.27379H6.83906V9.11832H7.22988V7.71349H6.83906V7.55801H6.44824V7.40254H6.05741V7.24707H5.18274V7.40254H4.79191V7.55801H4.40108V7.71349H4.01025V9.11832H4.40108V9.27379H4.79191V9.42926H5.18274V9.58473H6.05741V9.42926H6.44824Z" fill="#383739"/>
<path d="M5.19354 7.25879V7.41415H4.80252V7.56952H4.41152V7.72489H4.02051V9.10766H4.41152V9.26305H4.80252V9.41839H5.19354V9.57374H6.04674V9.41839H6.43776V9.26305H6.82879V9.10766H7.21978V7.72489H6.82879V7.56952H6.43776V7.41415H6.04674V7.25879H5.19354ZM5.29712 7.37178H5.94316V7.52715H6.33419V7.68252H6.72521V7.83788H7.1162V8.99466H6.72521V9.15005H6.33419V9.3054H5.94316V9.46074H5.29712V9.3054H4.9061V9.15005H4.5151V8.99466H4.12409V7.83788H4.5151V7.68252H4.9061V7.52715H5.29712V7.37178Z" fill="#FFC72C"/>
<path d="M4.91643 9.2935V9.13801H4.5256V8.98256H4.13477V7.84921H4.5256V7.69374H4.91643V7.53827H5.30725V7.38281H5.93305V7.53827H6.32388V7.69374H6.71469V7.84921H7.10553V8.98256H6.71469V9.13801H6.32388V9.2935H5.93305V9.44896H5.30725V9.2935H4.91643Z" fill="#D22630"/>
<path d="M5.00709 7.65419L4.90586 7.57072V7.73101L4.80893 7.79821L4.80868 7.69787L4.71571 7.78897L4.62274 7.69787L4.62249 7.79821L4.51507 7.72374V7.87235L4.42826 7.94091L4.42801 7.84979L4.32488 7.93128L4.22174 7.84979L4.2215 7.94091L4.12421 7.86408V8.31425H4.01025V8.51917H4.12421V8.96934L4.2215 8.89249L4.22174 8.98363L4.32488 8.90214L4.428 8.98363L4.42825 8.89249L4.51506 8.96105V9.10968L4.62248 9.03521L4.62273 9.13555L4.7157 9.04445L4.80867 9.13555L4.80892 9.03521L4.90585 9.1024V9.2627L5.00708 9.17923L5.0073 9.29118L5.10651 9.1944L5.20573 9.29118L5.20595 9.17923L5.29671 9.25406V9.42502L5.4324 9.29009V9.44865L5.62008 9.31702L5.80777 9.44865V9.29009L5.94346 9.42502V9.25406L6.03421 9.17923L6.03443 9.29118L6.13365 9.1944L6.23287 9.29118L6.23309 9.17923L6.33429 9.2627V9.1024L6.43125 9.03521L6.43149 9.13555L6.52448 9.04445L6.61745 9.13555L6.61769 9.03521L6.72513 9.10968V8.96105L6.81194 8.89249L6.81218 8.98363L6.91531 8.90214L7.01844 8.98363L7.01869 8.89249L7.11597 8.96933V8.51917H7.22993V8.31425H7.11597V7.86408L7.01869 7.94091L7.01844 7.84979L6.91531 7.93128L6.81217 7.84979L6.81195 7.94091L6.72514 7.87235V7.72374L6.6177 7.79821L6.61746 7.69787L6.52449 7.78897L6.4315 7.69787L6.43126 7.79821L6.3343 7.73099V7.57072L6.2331 7.65417L6.23288 7.54222L6.13366 7.63902L6.03443 7.54222L6.03422 7.65419L5.94347 7.57933V7.4084L5.80778 7.54333V7.38477L5.62009 7.5164L5.43241 7.38477V7.54333L5.29672 7.4084V7.57934L5.20596 7.65419L5.20574 7.54222L5.10652 7.63902L5.00731 7.54222L5.00709 7.65419Z" fill="#383739"/>
<path d="M4.23171 7.96321L4.23195 7.87207L4.32466 7.94533L4.32778 7.94285L4.41737 7.87207L4.41761 7.96321L4.51485 7.88642V8.9469L4.41761 8.87012L4.41737 8.96125L4.32466 8.88799L4.23195 8.96125L4.23171 8.87012L4.13447 8.9469V8.50769H4.02051V8.32564H4.13447V7.88642L4.23171 7.96321Z" fill="#00843D"/>
<path d="M5.01738 7.56738L5.10617 7.65401L5.19497 7.56738L5.19519 7.67677L5.29636 7.59333V9.2394L5.19519 9.15596L5.19497 9.26535L5.10617 9.17873L5.01738 9.26535L5.01719 9.15596L4.91602 9.2394V7.59333L5.01719 7.67677L5.01738 7.56738Z" fill="#00843D"/>
<path d="M6.22232 7.56738L6.13353 7.65401L6.04474 7.56738L6.04452 7.67677L5.94336 7.59333V9.2394L6.04452 9.15596L6.04474 9.26535L6.13353 9.17873L6.22232 9.26535L6.22254 9.15596L6.32371 9.2394V7.59333L6.22254 7.67677L6.22232 7.56738Z" fill="#00843D"/>
<path d="M7.00824 7.96321L7.008 7.87207L6.91529 7.94533L6.91215 7.94285L6.82257 7.87207L6.82232 7.96321L6.7251 7.88642V8.9469L6.82232 8.87012L6.82257 8.96125L6.91529 8.88799L7.008 8.96125L7.00824 8.87012L7.10547 8.9469V8.50769H7.21943V8.32564H7.10547V7.88642L7.00824 7.96321Z" fill="#00843D"/>
<path d="M4.63301 7.72266L4.71557 7.80357L4.79813 7.72266L4.79837 7.81821L4.90575 7.74376V9.0881L4.79837 9.01366L4.79813 9.1092L4.71557 9.0283L4.63301 9.1092L4.63277 9.01366L4.52539 9.0881V7.74376L4.63277 7.81821L4.63301 7.72266Z" fill="#FFC72C"/>
<path d="M5.44283 7.56878L5.30713 7.43385V9.39871L5.44283 9.26379V9.42729L5.62001 9.30302H5.62004L5.79723 9.42729V9.26379L5.93293 9.39871V7.43385L5.79723 7.56878V7.40527L5.62004 7.52955H5.62001L5.44283 7.40527V7.56878Z" fill="#FFC72C"/>
<path d="M6.60673 7.72266L6.52417 7.80357L6.44159 7.72266L6.44137 7.81821L6.33398 7.74376V9.0881L6.44137 9.01366L6.44159 9.1092L6.52417 9.0283L6.60673 9.1092L6.60697 9.01366L6.71435 9.0881V7.74376L6.60697 7.81821L6.60673 7.72266Z" fill="#FFC72C"/>
<path d="M4.28269 8.22336C4.29455 8.23642 4.30873 8.24302 4.32484 8.24302C4.34093 8.24302 4.35511 8.23642 4.36699 8.22336C4.40411 8.18256 4.40536 8.10877 4.40499 8.05566C4.40499 8.05566 4.36208 8.10514 4.35433 8.11406C4.34894 8.10389 4.32484 8.0585 4.32484 8.0585C4.32484 8.0585 4.30074 8.10389 4.29533 8.11406C4.28759 8.10514 4.24467 8.05566 4.24467 8.05566C4.2443 8.10877 4.24556 8.18256 4.28269 8.22336Z" fill="#383739"/>
<path d="M4.69048 8.10906L4.65921 8.07498V8.00707L4.5874 8.07968L4.71576 8.21971L4.84413 8.07968L4.77232 8.00707V8.07498L4.74106 8.10906V7.98875L4.79643 7.9369L4.71576 7.86133L4.6351 7.9369L4.69048 7.98875V8.10906Z" fill="#383739"/>
<path d="M5.08109 7.97429L5.04984 7.94019V7.87229L4.97803 7.9449L5.10639 8.08493L5.23475 7.9449L5.16294 7.87229V7.94019L5.13167 7.97429V7.85397L5.18706 7.80211L5.10639 7.72656L5.02572 7.80211L5.08109 7.85397V7.97429Z" fill="#383739"/>
<path d="M4.32509 8.08105C4.3315 8.09312 4.35254 8.13278 4.35254 8.13278C4.35254 8.13278 4.3822 8.09857 4.39431 8.08464C4.39286 8.14461 4.38079 8.19198 4.3598 8.21504C4.34996 8.22585 4.33829 8.23134 4.32509 8.23134C4.31187 8.23134 4.3002 8.22585 4.29037 8.21505C4.26938 8.19198 4.25731 8.14461 4.25586 8.08464C4.26796 8.09859 4.29762 8.13278 4.29762 8.13278C4.30677 8.11553 4.31593 8.09829 4.32509 8.08105Z" fill="white"/>
<path d="M5.12125 7.84832V8.00147L5.17346 7.94452V7.89806L5.21969 7.94481L5.10643 8.06836L4.99316 7.94481L5.03939 7.89806V7.94452L5.09161 8.00147V7.84832L5.04184 7.80171L5.10643 7.74121L5.17101 7.80171L5.12125 7.84832Z" fill="white"/>
<path d="M4.73062 7.98406V8.13721L4.78284 8.08025V8.0338L4.82907 8.08054L4.7158 8.2041L4.60254 8.08054L4.64877 8.0338V8.08025L4.70098 8.13721V7.98406L4.65122 7.93745L4.7158 7.87695L4.78039 7.93745L4.73062 7.98406Z" fill="#D22630"/>
<path d="M6.95755 8.22336C6.94568 8.23642 6.9315 8.24302 6.9154 8.24302C6.89931 8.24302 6.88512 8.23642 6.87324 8.22336C6.83612 8.18256 6.83488 8.10877 6.83524 8.05566C6.83524 8.05566 6.87816 8.10514 6.8859 8.11406C6.8913 8.10389 6.9154 8.0585 6.9154 8.0585C6.9154 8.0585 6.93949 8.10389 6.94491 8.11406C6.95265 8.10514 6.99556 8.05566 6.99556 8.05566C6.99593 8.10877 6.99467 8.18256 6.95755 8.22336Z" fill="#383739"/>
<path d="M6.54975 8.10906L6.58102 8.07498V8.00707L6.65283 8.07968L6.52447 8.21971L6.39611 8.07968L6.46791 8.00707V8.07498L6.49917 8.10906V7.98875L6.4438 7.9369L6.52447 7.86133L6.60514 7.9369L6.54975 7.98875V8.10906Z" fill="#383739"/>
<path d="M6.15914 7.97429L6.1904 7.94019V7.87229L6.26221 7.9449L6.13384 8.08493L6.00548 7.9449L6.07729 7.87229V7.94019L6.10856 7.97429V7.85397L6.05318 7.80211L6.13384 7.72656L6.21451 7.80211L6.15914 7.85397V7.97429Z" fill="#383739"/>
<path d="M6.91515 8.08105C6.90874 8.09312 6.88769 8.13278 6.88769 8.13278C6.88769 8.13278 6.85804 8.09857 6.84592 8.08464C6.84737 8.14461 6.85944 8.19198 6.88043 8.21504C6.89027 8.22585 6.90195 8.23134 6.91515 8.23134C6.92836 8.23134 6.94004 8.22585 6.94986 8.21505C6.97085 8.19198 6.98292 8.14461 6.98438 8.08464C6.97228 8.09859 6.94262 8.13278 6.94262 8.13278C6.93347 8.11553 6.9243 8.09829 6.91515 8.08105Z" fill="white"/>
<path d="M6.11899 7.84832V8.00147L6.06677 7.94452V7.89806L6.02054 7.94481L6.1338 8.06836L6.24707 7.94481L6.20084 7.89806V7.94452L6.14863 8.00147V7.84832L6.19839 7.80171L6.1338 7.74121L6.06922 7.80171L6.11899 7.84832Z" fill="white"/>
<path d="M6.50961 7.98406V8.13721L6.4574 8.08025V8.0338L6.41117 8.08054L6.52444 8.2041L6.6377 8.08054L6.59147 8.0338V8.08025L6.53925 8.13721V7.98406L6.58902 7.93745L6.52444 7.87695L6.45985 7.93745L6.50961 7.98406Z" fill="#D22630"/>
<path d="M5.77347 8.02546L5.73142 7.96207L5.83925 7.85348L5.73871 7.76337V7.8272L5.69666 7.86645V7.75066L5.79164 7.67429L5.61982 7.53613L5.448 7.67429L5.543 7.75066V7.86645L5.50095 7.8272V7.76337L5.40039 7.85348L5.50823 7.96207L5.46619 8.02546H5.77347Z" fill="#383739"/>
<path d="M5.48686 8.01448L5.52232 7.96099L5.4165 7.85443L5.49061 7.788V7.83291L5.55362 7.89173V7.74533L5.46581 7.67473L5.61997 7.55078L5.77414 7.67473L5.68634 7.74533V7.89173L5.74933 7.83291V7.788L5.82346 7.85443L5.71764 7.96099L5.75312 8.01448H5.48686Z" fill="#D22630"/>
<path d="M5.5415 7.67446L5.62001 7.73758L5.69854 7.67446L5.62001 7.61133L5.61691 7.61384L5.5415 7.67446Z" fill="#383739"/>
<path d="M5.61993 7.625C5.62513 7.62916 5.67162 7.66655 5.6808 7.67393C5.67162 7.6813 5.62513 7.7187 5.61993 7.72286C5.61476 7.7187 5.56825 7.6813 5.55908 7.67393C5.56825 7.66655 5.61476 7.62916 5.61993 7.625Z" fill="#00843D"/>
<path d="M4.28269 8.60965C4.29455 8.59659 4.30873 8.58998 4.32484 8.58998C4.34093 8.58998 4.35511 8.59659 4.36699 8.60965C4.40411 8.65045 4.40536 8.72424 4.40499 8.77734C4.40499 8.77734 4.36208 8.72787 4.35433 8.71894C4.34894 8.72912 4.32484 8.77451 4.32484 8.77451C4.32484 8.77451 4.30074 8.72912 4.29533 8.71894C4.28759 8.72787 4.24467 8.77734 4.24467 8.77734C4.2443 8.72424 4.24556 8.65045 4.28269 8.60965Z" fill="#383739"/>
<path d="M4.69048 8.72395L4.65921 8.75803V8.82594L4.5874 8.75333L4.71576 8.6133L4.84413 8.75333L4.77232 8.82594V8.75803L4.74106 8.72395V8.84426L4.79643 8.89611L4.71576 8.97168L4.6351 8.89611L4.69048 8.84426V8.72395Z" fill="#383739"/>
<path d="M5.08109 8.85872L5.04984 8.89281V8.96072L4.97803 8.88811L5.10639 8.74808L5.23475 8.88811L5.16294 8.96072V8.89281L5.13167 8.85872V8.97904L5.18706 9.03089L5.10639 9.10645L5.02572 9.03089L5.08109 8.97904V8.85872Z" fill="#383739"/>
<path d="M4.32509 8.75195C4.3315 8.73989 4.35254 8.70023 4.35254 8.70023C4.35254 8.70023 4.3822 8.73443 4.39431 8.74837C4.39286 8.6884 4.38079 8.64103 4.3598 8.61797C4.34996 8.60715 4.33829 8.60167 4.32509 8.60167C4.31187 8.60167 4.3002 8.60715 4.29037 8.61795C4.26938 8.64103 4.25731 8.6884 4.25586 8.74837C4.26796 8.73442 4.29762 8.70023 4.29762 8.70023C4.30677 8.71747 4.31593 8.73472 4.32509 8.75195Z" fill="white"/>
<path d="M5.12125 8.98469V8.83154L5.17346 8.88848V8.93495L5.21969 8.8882L5.10643 8.76464L4.99316 8.8882L5.03939 8.93495V8.88848L5.09161 8.83154V8.98469L5.04184 9.0313L5.10643 9.0918L5.17101 9.0313L5.12125 8.98469Z" fill="white"/>
<path d="M4.73062 8.84895V8.6958L4.78284 8.75276V8.79921L4.82907 8.75247L4.7158 8.6289L4.60254 8.75247L4.64877 8.79921V8.75276L4.70098 8.6958V8.84895L4.65122 8.89556L4.7158 8.95605L4.78039 8.89556L4.73062 8.84895Z" fill="#D22630"/>
<path d="M6.95755 8.60965C6.94568 8.59659 6.9315 8.58998 6.9154 8.58998C6.89931 8.58998 6.88512 8.59659 6.87324 8.60965C6.83612 8.65045 6.83488 8.72424 6.83524 8.77734C6.83524 8.77734 6.87816 8.72787 6.8859 8.71894C6.8913 8.72912 6.9154 8.77451 6.9154 8.77451C6.9154 8.77451 6.93949 8.72912 6.94491 8.71894C6.95265 8.72787 6.99556 8.77734 6.99556 8.77734C6.99593 8.72424 6.99467 8.65045 6.95755 8.60965Z" fill="#383739"/>
<path d="M6.54975 8.72395L6.58102 8.75803V8.82594L6.65283 8.75333L6.52447 8.6133L6.39611 8.75333L6.46791 8.82594V8.75803L6.49917 8.72395V8.84426L6.4438 8.89611L6.52447 8.97168L6.60514 8.89611L6.54975 8.84426V8.72395Z" fill="#383739"/>
<path d="M6.15914 8.85872L6.1904 8.89281V8.96072L6.26221 8.88811L6.13384 8.74808L6.00548 8.88811L6.07729 8.96072V8.89281L6.10856 8.85872V8.97904L6.05318 9.03089L6.13384 9.10645L6.21451 9.03089L6.15914 8.97904V8.85872Z" fill="#383739"/>
<path d="M6.91515 8.75195C6.90874 8.73989 6.88769 8.70023 6.88769 8.70023C6.88769 8.70023 6.85804 8.73443 6.84592 8.74837C6.84737 8.6884 6.85944 8.64103 6.88043 8.61797C6.89027 8.60715 6.90195 8.60167 6.91515 8.60167C6.92836 8.60167 6.94004 8.60715 6.94986 8.61795C6.97085 8.64103 6.98292 8.6884 6.98438 8.74837C6.97228 8.73442 6.94262 8.70023 6.94262 8.70023C6.93347 8.71747 6.9243 8.73472 6.91515 8.75195Z" fill="white"/>
<path d="M6.11899 8.98469V8.83154L6.06677 8.88848V8.93495L6.02054 8.8882L6.1338 8.76464L6.24707 8.8882L6.20084 8.93495V8.88848L6.14863 8.83154V8.98469L6.19839 9.0313L6.1338 9.0918L6.06922 9.0313L6.11899 8.98469Z" fill="white"/>
<path d="M6.50961 8.84895V8.6958L6.4574 8.75276V8.79921L6.41117 8.75247L6.52444 8.6289L6.6377 8.75247L6.59147 8.79921V8.75276L6.53925 8.6958V8.84895L6.58902 8.89556L6.52444 8.95605L6.45985 8.89556L6.50961 8.84895Z" fill="#D22630"/>
<path d="M5.77347 8.80755L5.73142 8.87094L5.83925 8.97953L5.73871 9.06964V9.0058L5.69666 8.96656V9.08235L5.79164 9.15872L5.61982 9.29688L5.448 9.15872L5.543 9.08235V8.96656L5.50095 9.0058V9.06964L5.40039 8.97953L5.50823 8.87094L5.46619 8.80755H5.77347Z" fill="#383739"/>
<path d="M5.48686 8.81853L5.52232 8.87202L5.4165 8.97858L5.49061 9.04501V9.0001L5.55362 8.94128V9.08768L5.46581 9.15827L5.61997 9.28223L5.77414 9.15827L5.68634 9.08768V8.94128L5.74933 9.0001V9.04501L5.82346 8.97858L5.71764 8.87202L5.75312 8.81853H5.48686Z" fill="#D22630"/>
<path d="M5.5415 9.15854L5.62001 9.09542L5.69854 9.15854L5.62001 9.22168L5.61691 9.21917L5.5415 9.15854Z" fill="#383739"/>
<path d="M5.61993 9.20801C5.62513 9.20385 5.67162 9.16646 5.6808 9.15908C5.67162 9.1517 5.62513 9.11431 5.61993 9.11015C5.61476 9.11431 5.56825 9.1517 5.55908 9.15908C5.56825 9.16646 5.61476 9.20385 5.61993 9.20801Z" fill="#00843D"/>
<path d="M7.01101 8.35076H6.83898V8.27596H6.31317L5.94713 8.01367H5.94558H5.29288L4.92686 8.27596H4.40103V8.35076H4.229V8.4819H4.40103V8.5567H4.92686L5.29288 8.819H5.94713L6.31317 8.5567H6.83898V8.4819H7.01101V8.35076Z" fill="#383739"/>
<path d="M5.29575 8.02539L4.92935 8.28669H4.41146V8.36155H4.23926V8.47031H4.41146V8.54516H4.92935L5.29575 8.80788H5.94441L6.30952 8.54516H6.8287V8.47031H7.0009V8.36155H6.8287V8.28669H6.30952L5.94441 8.02539H5.29575ZM5.30352 8.06353H5.93535L6.27068 8.30364V8.34036H6.64486V8.4929H6.27068V8.52963L5.93535 8.76833H5.30352L4.96948 8.52963V8.4929H4.59401V8.34036H4.96948V8.30364L5.30352 8.06353Z" fill="#D22630"/>
<path d="M5.93268 8.0752L6.25972 8.30942V8.35099H6.6345V8.48113H6.25972V8.52272L5.93268 8.75694H5.3068L4.97976 8.52272V8.48113H4.60498V8.35099H4.97976V8.30942L5.3068 8.0752H5.93268Z" fill="#D22630"/>
<path d="M5.14453 8.54907L5.28614 8.66504L5.37929 8.58874L5.32514 8.54438L5.28614 8.57634L5.25284 8.54907L5.78611 8.1123H5.67781L5.14453 8.54907ZM5.45363 8.71976H5.56193L6.09521 8.28299L5.95362 8.16704L5.86046 8.24333L5.9146 8.28766L5.95362 8.25571L5.98691 8.28299L5.45363 8.71976ZM5.67781 8.71976H5.7861L5.25284 8.28299L5.28614 8.25571L5.32514 8.28766L5.37929 8.24333L5.28614 8.16704L5.14453 8.28299L5.67781 8.71976ZM5.98691 8.54907L5.95362 8.57634L5.9146 8.54438L5.86046 8.58874L5.95362 8.66504L6.09521 8.54907L5.56193 8.1123H5.45363L5.98691 8.54907Z" fill="#383739"/>
<path d="M5.03711 8.41564L5.13228 8.4846L5.22745 8.41564L5.13228 8.34668L5.03711 8.41564Z" fill="#383739"/>
<path d="M5.52441 8.41564L5.61959 8.4846L5.71476 8.41564L5.61959 8.34668L5.52441 8.41564Z" fill="#383739"/>
<path d="M6.20255 8.41564L6.10738 8.4846L6.01221 8.41564L6.10738 8.34668L6.20255 8.41564Z" fill="#383739"/>
<path d="M6.07739 8.54935L5.95325 8.65103L5.87753 8.58902L5.91424 8.55895L5.95325 8.5909L6.00399 8.54935L5.48467 8.12402H5.55808L6.07739 8.54935ZM5.75433 8.7086H5.68094L5.16162 8.28327L5.28577 8.18159L5.36147 8.24361L5.32477 8.27366L5.28577 8.2417L5.23503 8.28327L5.75433 8.7086ZM5.55808 8.7086H5.48467L6.00399 8.28327L5.95325 8.2417L5.91424 8.27366L5.87753 8.24361L5.95325 8.18159L6.07739 8.28327L5.55808 8.7086ZM5.68094 8.12402H5.75433L5.23503 8.54935L5.28577 8.5909L5.32477 8.55895L5.36147 8.58902L5.28577 8.65103L5.16162 8.54935L5.68094 8.12402Z" fill="#FFC72C"/>
<path d="M5.13239 8.36035L5.20863 8.41558L5.13239 8.47082L5.05615 8.41558L5.13239 8.36035Z" fill="#00843D"/>
<path d="M5.61968 8.36035L5.69592 8.41558L5.61968 8.47082L5.54346 8.41558L5.61968 8.36035Z" fill="#00843D"/>
<path d="M6.107 8.36035L6.03076 8.41558L6.107 8.47082L6.18322 8.41558L6.107 8.36035Z" fill="#00843D"/>
<path d="M3.94605 11.3109L3.90871 11.3685L3.97564 11.4243L3.90869 11.4802L3.94603 11.5378L4.02381 11.5477L4.09912 11.4842L4.2869 11.6143V11.5062L4.16872 11.4243L4.2869 11.3424V11.2344L4.09912 11.3645L4.02381 11.301L3.94605 11.3109Z" fill="#383739"/>
<path d="M3.94605 10.9349L3.90871 10.9925L3.97564 11.0484L3.90869 11.1042L3.94603 11.1618L4.02381 11.1717L4.09912 11.1082L4.2869 11.2383V11.1303L4.16872 11.0484L4.2869 10.9665V10.8584L4.09912 10.9885L4.02381 10.9251L3.94605 10.9349Z" fill="#383739"/>
<path d="M3.94605 11.9128L3.90871 11.8552L3.97564 11.7993L3.90869 11.7435L3.94603 11.6859L4.02381 11.676L4.09912 11.7395L4.2869 11.6094V11.7174L4.16872 11.7993L4.2869 11.8812V11.9893L4.09912 11.8592L4.02381 11.9227L3.94605 11.9128Z" fill="#383739"/>
<path d="M7.29399 11.3109L7.33133 11.3685L7.2644 11.4243L7.33133 11.4802L7.29399 11.5378L7.21623 11.5477L7.14092 11.4842L6.95312 11.6143V11.5062L7.07132 11.4243L6.95312 11.3424V11.2344L7.14092 11.3645L7.21623 11.301L7.29399 11.3109Z" fill="#383739"/>
<path d="M7.29399 10.9349L7.33133 10.9925L7.2644 11.0484L7.33133 11.1042L7.29399 11.1618L7.21623 11.1717L7.14092 11.1082L6.95312 11.2383V11.1303L7.07132 11.0484L6.95312 10.9665V10.8584L7.14092 10.9885L7.21623 10.9251L7.29399 10.9349Z" fill="#383739"/>
<path d="M7.29399 11.9128L7.33133 11.8552L7.2644 11.7993L7.33133 11.7435L7.29399 11.6859L7.21623 11.676L7.14092 11.7395L6.95312 11.6094V11.7174L7.07132 11.7993L6.95312 11.8812V11.9893L7.14092 11.8592L7.21623 11.9227L7.29399 11.9128Z" fill="#383739"/>
<path d="M6.54248 10.2861V10.4423H6.6466V10.5113H6.74888V10.3856H6.65766V10.2861H6.54248Z" fill="#383739"/>
<path d="M6.84912 10.5322V10.6884H6.95314V10.7574H7.05553V10.6317H6.96431V10.5322H6.84912Z" fill="#383739"/>
<path d="M4.69761 10.2861V10.4423H4.59347V10.5113H4.49121V10.3856H4.58242V10.2861H4.69761Z" fill="#383739"/>
<path d="M6.54248 12.5621V12.4059H6.6466V12.3369H6.74888V12.4626H6.65766V12.5621H6.54248Z" fill="#383739"/>
<path d="M4.69761 12.5621V12.4059H4.59347V12.3369H4.49121V12.4626H4.58242V12.5621H4.69761Z" fill="#383739"/>
<path d="M6.84912 12.316V12.1598H6.95314V12.0908H7.05553V12.2165H6.96431V12.316H6.84912Z" fill="#383739"/>
<path d="M4.39097 10.5322V10.6884H4.28693V10.7574H4.18457V10.6317H4.27578V10.5322H4.39097Z" fill="#383739"/>
<path d="M4.39097 12.316V12.1598H4.28693V12.0908H4.18457V12.2165H4.27578V12.316H4.39097Z" fill="#383739"/>
<path d="M6.00543 10.2824C5.99879 10.2754 5.92597 10.1982 5.92597 10.1982L5.84791 10.2771C5.84791 10.2771 5.90907 10.3419 5.91595 10.3492L5.82812 10.4422H5.95851L6.00543 10.3925L6.05235 10.4422H6.18272L6.0949 10.3492C6.10178 10.3419 6.16292 10.2771 6.16292 10.2771L6.08488 10.1982C6.05836 10.2263 6.0319 10.2543 6.00543 10.2824Z" fill="#383739"/>
<path d="M5.62016 10.2824C5.61353 10.2754 5.54071 10.1982 5.54071 10.1982L5.46266 10.2771C5.46266 10.2771 5.5238 10.3419 5.5307 10.3492L5.44287 10.4422H5.57324L5.62016 10.3925L5.66708 10.4422H5.79745L5.70964 10.3492C5.71652 10.3419 5.77767 10.2771 5.77767 10.2771L5.69963 10.1982C5.67311 10.2263 5.64665 10.2543 5.62016 10.2824Z" fill="#383739"/>
<path d="M5.23491 10.2824C5.24155 10.2754 5.31437 10.1982 5.31437 10.1982L5.39243 10.2771C5.39243 10.2771 5.33127 10.3419 5.32439 10.3492L5.41221 10.4422H5.28183L5.23491 10.3925L5.18799 10.4422H5.05762L5.14544 10.3492C5.13856 10.3419 5.0774 10.2771 5.0774 10.2771L5.15546 10.1982C5.18198 10.2263 5.20843 10.2543 5.23491 10.2824Z" fill="#383739"/>
<path d="M6.00543 12.566C5.99879 12.5731 5.92597 12.6502 5.92597 12.6502L5.84791 12.5713C5.84791 12.5713 5.90907 12.5066 5.91595 12.4993L5.82812 12.4062H5.95851L6.00543 12.4559L6.05235 12.4062H6.18272L6.0949 12.4993C6.10178 12.5066 6.16292 12.5713 6.16292 12.5713L6.08488 12.6502C6.05836 12.6222 6.0319 12.5941 6.00543 12.566Z" fill="#383739"/>
<path d="M5.62016 12.566C5.61353 12.5731 5.54071 12.6502 5.54071 12.6502L5.46266 12.5713C5.46266 12.5713 5.5238 12.5066 5.5307 12.4993L5.44287 12.4062H5.57324L5.62016 12.4559L5.66708 12.4062H5.79745L5.70964 12.4993C5.71652 12.5066 5.77767 12.5713 5.77767 12.5713L5.69963 12.6502C5.67311 12.6222 5.64665 12.5941 5.62016 12.566Z" fill="#383739"/>
<path d="M5.23491 12.566C5.24155 12.5731 5.31437 12.6502 5.31437 12.6502L5.39243 12.5713C5.39243 12.5713 5.33127 12.5066 5.32439 12.4993L5.41221 12.4062H5.28183L5.23491 12.4559L5.18799 12.4062H5.05762L5.14544 12.4993C5.13856 12.5066 5.0774 12.5713 5.0774 12.5713L5.15546 12.6502C5.18198 12.6222 5.20843 12.5941 5.23491 12.566Z" fill="#383739"/>
<path d="M4.2762 11.5122V11.5932L4.09829 11.4699L4.02055 11.5355L3.95166 11.5268L3.92285 11.4823L3.99266 11.4241L3.92285 11.3658L3.95167 11.3213L4.02055 11.3126L4.09829 11.3782L4.2762 11.2549V11.3359L4.14894 11.4241L4.2762 11.5122Z" fill="#00843D"/>
<path d="M4.2762 11.1362V11.2172L4.09829 11.0939L4.02055 11.1595L3.95166 11.1508L3.92285 11.1063L3.99266 11.0481L3.92285 10.9898L3.95167 10.9454L4.02055 10.9366L4.09829 11.0022L4.2762 10.8789V10.9599L4.14894 11.0481L4.2762 11.1362Z" fill="#00843D"/>
<path d="M4.2762 11.7109V11.6299L4.09829 11.7532L4.02055 11.6876L3.95166 11.6963L3.92285 11.7408L3.99266 11.799L3.92285 11.8573L3.95167 11.9017L4.02055 11.9105L4.09829 11.8449L4.2762 11.9682V11.8872L4.14894 11.799L4.2762 11.7109Z" fill="#00843D"/>
<path d="M6.96338 11.5122V11.5932L7.14129 11.4699L7.21902 11.5355L7.28791 11.5268L7.31671 11.4823L7.2469 11.4241L7.31671 11.3658L7.28791 11.3213L7.21902 11.3126L7.14129 11.3782L6.96338 11.2549V11.3359L7.09063 11.4241L6.96338 11.5122Z" fill="#00843D"/>
<path d="M6.96338 11.1362V11.2172L7.14129 11.0939L7.21902 11.1595L7.28791 11.1508L7.31671 11.1063L7.2469 11.0481L7.31671 10.9898L7.28791 10.9454L7.21902 10.9366L7.14129 11.0022L6.96338 10.8789V10.9599L7.09063 11.0481L6.96338 11.1362Z" fill="#00843D"/>
<path d="M6.96338 11.7109V11.6299L7.14129 11.7532L7.21902 11.6876L7.28791 11.6963L7.31671 11.7408L7.2469 11.799L7.31671 11.8573L7.28791 11.9017L7.21902 11.9105L7.14129 11.8449L6.96338 11.9682V11.8872L7.09063 11.799L6.96338 11.7109Z" fill="#00843D"/>
<path d="M6.64697 10.2969V10.3964H6.73818V10.4992H6.65687V10.4302H6.55273V10.2969H6.64697Z" fill="#00843D"/>
<path d="M6.95361 10.5439V10.6434H7.04482V10.7463H6.96349V10.6773H6.85938V10.5439H6.95361Z" fill="#00843D"/>
<path d="M4.59268 10.2969V10.3964H4.50146V10.4992H4.58279V10.4302H4.68691V10.2969H4.59268Z" fill="#00843D"/>
<path d="M6.64697 12.5509V12.4514H6.73818V12.3486H6.65687V12.4176H6.55273V12.5509H6.64697Z" fill="#00843D"/>
<path d="M4.59269 12.5509V12.4514H4.50146V12.3486H4.58279V12.4176H4.68692V12.5509H4.59269Z" fill="#00843D"/>
<path d="M6.95361 12.3039V12.2044H7.04482V12.1016H6.96349V12.1706H6.85938V12.3039H6.95361Z" fill="#00843D"/>
<path d="M4.28604 10.5439V10.6434H4.19482V10.7463H4.27615V10.6773H4.38027V10.5439H4.28604Z" fill="#00843D"/>
<path d="M4.28605 12.3039V12.2044H4.19482V12.1016H4.27615V12.1706H4.38028V12.3039H4.28605Z" fill="#00843D"/>
<path d="M5.92535 10.2139C5.93185 10.2207 6.00498 10.2982 6.00498 10.2982C6.00498 10.2982 6.07809 10.2207 6.08459 10.2139C6.09075 10.2201 6.14045 10.2703 6.14726 10.2772C6.14022 10.2846 6.0794 10.3491 6.0794 10.3491L6.15643 10.4306H6.05615L6.00498 10.3764L5.95379 10.4306H5.85352L5.93055 10.3491C5.93055 10.3491 5.86972 10.2846 5.86268 10.2772C5.86949 10.2703 5.91919 10.2201 5.92535 10.2139Z" fill="#00843D"/>
<path d="M5.54011 10.2139C5.54661 10.2207 5.61972 10.2982 5.61972 10.2982C5.61972 10.2982 5.69284 10.2207 5.69935 10.2139C5.70551 10.2201 5.7552 10.2703 5.76201 10.2772C5.75498 10.2846 5.69416 10.3491 5.69416 10.3491L5.77119 10.4306H5.6709L5.61972 10.3764L5.56855 10.4306H5.46826L5.54529 10.3491C5.54529 10.3491 5.48447 10.2846 5.47744 10.2772C5.48425 10.2703 5.53395 10.2201 5.54011 10.2139Z" fill="#00843D"/>
<path d="M5.31457 10.2139C5.30806 10.2207 5.23494 10.2982 5.23494 10.2982C5.23494 10.2982 5.16183 10.2207 5.15533 10.2139C5.14917 10.2201 5.09947 10.2703 5.09266 10.2772C5.0997 10.2846 5.16053 10.3491 5.16053 10.3491L5.0835 10.4306H5.18377L5.23494 10.3764L5.28613 10.4306H5.38641L5.30938 10.3491C5.30938 10.3491 5.3702 10.2846 5.37724 10.2772C5.37043 10.2703 5.32073 10.2201 5.31457 10.2139Z" fill="#00843D"/>
<path d="M5.92535 12.6338C5.93185 12.6269 6.00498 12.5494 6.00498 12.5494C6.00498 12.5494 6.07809 12.6269 6.08459 12.6338C6.09075 12.6275 6.14045 12.5773 6.14726 12.5704C6.14022 12.563 6.0794 12.4986 6.0794 12.4986L6.15643 12.417H6.05615L6.00498 12.4712L5.95379 12.417H5.85352L5.93055 12.4986C5.93055 12.4986 5.86972 12.563 5.86268 12.5704C5.86949 12.5773 5.91919 12.6275 5.92535 12.6338Z" fill="#00843D"/>
<path d="M5.54011 12.6338C5.54661 12.6269 5.61972 12.5494 5.61972 12.5494C5.61972 12.5494 5.69284 12.6269 5.69935 12.6338C5.70551 12.6275 5.7552 12.5773 5.76201 12.5704C5.75498 12.563 5.69416 12.4986 5.69416 12.4986L5.77119 12.417H5.6709L5.61972 12.4712L5.56855 12.417H5.46826L5.54529 12.4986C5.54529 12.4986 5.48447 12.563 5.47744 12.5704C5.48425 12.5773 5.53395 12.6275 5.54011 12.6338Z" fill="#00843D"/>
<path d="M5.31457 12.6338C5.30806 12.6269 5.23494 12.5494 5.23494 12.5494C5.23494 12.5494 5.16183 12.6269 5.15533 12.6338C5.14917 12.6275 5.09947 12.5773 5.09266 12.5704C5.0997 12.563 5.16053 12.4986 5.16053 12.4986L5.0835 12.417H5.18377L5.23494 12.4712L5.28613 12.417H5.38641L5.30938 12.4986C5.30938 12.4986 5.3702 12.563 5.37724 12.5704C5.37043 12.5773 5.32073 12.6275 5.31457 12.6338Z" fill="#00843D"/>
<path d="M4.58316 12.171V12.4173H6.65693V12.171H6.96373V10.6769H6.65693V10.4307H4.58316V10.6769H4.27637V12.171H4.58316Z" fill="#383739"/>
<path d="M4.59396 10.4424V10.6882H4.28711V12.1599H4.59396V12.4057H6.64609V12.1599H6.95297V10.6882H6.64609V10.4424L4.59396 10.4424ZM4.72602 10.537H6.51405V10.7743L6.58784 10.8337H6.86622V12.0159H6.58655L6.51405 12.0738V12.3125H4.72602V12.0752L4.65222 12.0159H4.37256V10.8337H4.65093L4.72602 10.7743L4.72602 10.537Z" fill="#FFC72C"/>
<path d="M4.73645 10.5479V10.7654L5.00576 10.5479H4.73645ZM6.23314 10.5479L6.50244 10.7654V10.5479H6.23314ZM4.38428 10.8445V11.0479L4.63805 10.8445H4.38428ZM6.60088 10.8445L6.85593 11.0493V10.8445H6.60088ZM6.85593 11.7978L6.60088 12.0041H6.85593V11.7978ZM4.38428 11.7992V12.0041H4.63805L4.38428 11.7992ZM4.73644 12.0832V12.2993H5.00445L4.73644 12.0832ZM6.50243 12.0832L6.23445 12.2993H6.50243V12.0832Z" fill="#D22630"/>
<path d="M6.21582 10.5479C6.21857 10.5501 6.85175 11.0602 6.85596 11.0636V11.7839C6.85175 11.7873 6.21857 12.2975 6.21582 12.2997H5.02392C5.02117 12.2975 4.388 11.7873 4.38379 11.7839V11.0636C4.388 11.0602 5.02117 10.5501 5.02392 10.5479H6.21582Z" fill="#00843D"/>
<path d="M4.53649 11.8676L4.46289 11.7745L4.53199 11.687L4.46289 11.5995L4.53199 11.5121L4.46289 11.4246L4.53199 11.3371L4.46289 11.2496L4.53197 11.1622L4.46289 11.0747L4.53649 10.9815H6.70377L6.77736 11.0747L6.70827 11.1622L6.77736 11.2496L6.70827 11.3371L6.77736 11.4246L6.70827 11.5121L6.77736 11.5995L6.70827 11.687L6.77736 11.7745L6.70377 11.8676H4.53649ZM6.02627 10.6613L5.94085 10.5811L5.86065 10.6564L5.78049 10.5811L5.7003 10.6564L5.62012 10.5811L5.53994 10.6564L5.45975 10.5811L5.37959 10.6564L5.2994 10.5811L5.21399 10.6613V12.1878L5.2994 12.2681L5.37959 12.1928L5.45975 12.2681L5.53994 12.1927L5.62012 12.2681L5.7003 12.1927L5.78049 12.2681L5.86065 12.1928L5.94085 12.2681L6.02627 12.1878V10.6613Z" fill="#383739"/>
<path d="M5.85545 10.6662L5.78051 10.5957L5.70557 10.6662V12.1822L5.78051 12.2526L5.85545 12.1822V10.6662Z" fill="#FFC72C"/>
<path d="M5.53464 10.6662L5.4597 10.5957L5.38477 10.6662V12.1822L5.4597 12.2526L5.53464 12.1822V10.6662Z" fill="#FFC72C"/>
<path d="M4.54113 11.8559L4.47656 11.7741L4.54113 11.6924H6.69881L6.76337 11.7741L6.69881 11.8559H4.54113Z" fill="#FFC72C"/>
<path d="M6.6988 11.3428L6.76337 11.4245L6.6988 11.5063H4.54114L4.47656 11.4245L4.54114 11.3428H6.6988Z" fill="#FFC72C"/>
<path d="M6.69881 11.1557L6.76337 11.0739L6.69881 10.9922H4.54113L4.47656 11.0739L4.54113 11.1557H6.69881Z" fill="#FFC72C"/>
<path d="M6.0156 10.6662L5.94067 10.5957L5.86572 10.6662V12.1822L5.94067 12.2526L6.01558 12.1822L6.0156 10.6662Z" fill="#D22630"/>
<path d="M5.37401 10.6662L5.29907 10.5957L5.22412 10.6662V12.1822L5.29907 12.2526L5.37401 12.1822V10.6662Z" fill="#D22630"/>
<path d="M4.54114 11.6811L4.47656 11.5993L4.54114 11.5176H6.6988L6.76337 11.5993L6.6988 11.6811H4.54114Z" fill="#D22630"/>
<path d="M4.54114 11.3305L4.47656 11.2488L4.54114 11.167H6.6988L6.76337 11.2488L6.6988 11.3305H4.54114Z" fill="#D22630"/>
<path d="M5.69481 12.1822L5.61987 12.2526L5.54492 12.1822V10.6662L5.61987 10.5957L5.69481 10.6662V12.1822Z" fill="#D22630"/>
<path d="M6.34437 10.6953H4.8904V10.8213H4.70459V12.0262H4.8904V12.1522H6.3496V12.0262H6.53542V10.8213H6.3496V10.6953H6.34437Z" fill="#383739"/>
<path d="M4.9008 10.708V10.8337H4.71436V12.0159H4.9008V12.1416H5.05358L4.74932 11.8634V10.9862L5.05358 10.708H4.9008ZM6.18648 10.708L6.48943 10.9862V11.8634L6.18648 12.1416H6.33924V12.0159H6.5244V10.8337H6.33924V10.708L6.18648 10.708Z" fill="#D22630"/>
<path d="M5.0705 10.708C5.06763 10.7106 4.76345 10.9885 4.75977 10.9919V11.8577C4.76345 11.8611 5.06763 12.139 5.0705 12.1416H6.16972C6.17261 12.139 6.47548 11.8611 6.47916 11.8577V10.9919C6.47548 10.9885 6.17261 10.7106 6.16972 10.708H5.0705ZM5.08604 10.756H6.15289L6.43514 11.0145V11.8351L6.15289 12.0922H5.08604L4.80508 11.8351V11.0145L5.08604 10.756Z" fill="#00843D"/>
<path d="M5.36853 11.8477L5.41629 11.8702L5.42507 11.931L5.36495 11.9887L5.45228 12.0808H5.36825L5.30818 12.0177L5.24809 12.0808H5.16406L5.2514 11.9887L5.19127 11.931L5.20007 11.8702L5.24781 11.8477L5.30818 11.9003L5.31145 11.8975L5.36853 11.8477Z" fill="#00843D"/>
<path d="M5.68007 11.8477L5.72781 11.8702L5.73661 11.931L5.67649 11.9887L5.76382 12.0808H5.67979L5.6197 12.0177L5.55963 12.0808H5.47559L5.56293 11.9887L5.50281 11.931L5.51161 11.8702L5.55935 11.8477L5.6197 11.9003L5.62297 11.8975L5.68007 11.8477Z" fill="#00843D"/>
<path d="M5.87134 11.8477L5.8236 11.8702L5.8148 11.931L5.87492 11.9887L5.7876 12.0808H5.87162L5.93171 12.0177L5.99179 12.0808H6.07581L5.98849 11.9887L6.04861 11.931L6.03981 11.8702L5.99207 11.8477L5.93171 11.9003L5.92843 11.8975L5.87134 11.8477Z" fill="#00843D"/>
<path d="M5.36853 11.0007L5.41629 10.9782L5.42507 10.9174L5.36495 10.8597L5.45228 10.7676H5.36825L5.30818 10.8306L5.24809 10.7676H5.16406L5.2514 10.8597L5.19127 10.9174L5.20007 10.9782L5.24781 11.0007L5.30818 10.9481L5.31145 10.9509L5.36853 11.0007Z" fill="#00843D"/>
<path d="M5.68007 11.0007L5.72781 10.9782L5.73661 10.9174L5.67649 10.8597L5.76382 10.7676H5.67979L5.6197 10.8306L5.55963 10.7676H5.47559L5.56293 10.8597L5.50281 10.9174L5.51161 10.9782L5.55935 11.0007L5.6197 10.9481L5.62297 10.9509L5.68007 11.0007Z" fill="#00843D"/>
<path d="M5.87134 11.0007L5.8236 10.9782L5.8148 10.9174L5.87492 10.8597L5.7876 10.7676H5.87162L5.93171 10.8306L5.99179 10.7676H6.07581L5.98849 10.8597L6.04861 10.9174L6.03981 10.9782L5.99207 11.0007L5.93171 10.9481L5.92843 10.9509L5.87134 11.0007Z" fill="#00843D"/>
<path d="M6.42436 11.0977L6.3767 11.1408L6.42436 11.1838V11.2552L6.35106 11.1893C6.35106 11.1893 6.30176 11.238 6.29845 11.2413C6.29423 11.2407 6.24673 11.2342 6.24204 11.2336C6.23994 11.2294 6.22512 11.1995 6.22217 11.1936C6.22708 11.1882 6.27071 11.1408 6.27071 11.1408C6.27071 11.1408 6.22708 11.0933 6.22217 11.088C6.22512 11.082 6.23994 11.0522 6.24204 11.048C6.24673 11.0473 6.29423 11.0408 6.29845 11.0402C6.30176 11.0435 6.35106 11.0923 6.35106 11.0923L6.42436 11.0264V11.0977Z" fill="#00843D"/>
<path d="M6.42436 11.3819L6.3767 11.425L6.42436 11.468V11.5394L6.35106 11.4735C6.35106 11.4735 6.30176 11.5222 6.29845 11.5255C6.29423 11.5249 6.24673 11.5184 6.24204 11.5177C6.23994 11.5135 6.22512 11.4837 6.22217 11.4777C6.22708 11.4724 6.27071 11.425 6.27071 11.425C6.27071 11.425 6.22708 11.3775 6.22217 11.3721C6.22512 11.3662 6.23994 11.3364 6.24204 11.3321C6.24673 11.3315 6.29423 11.325 6.29845 11.3244C6.30176 11.3277 6.35106 11.3764 6.35106 11.3764L6.42436 11.3105V11.3819Z" fill="#00843D"/>
<path d="M6.42436 11.7512L6.3767 11.7082L6.42436 11.6651V11.5938L6.35106 11.6597C6.35106 11.6597 6.30176 11.6109 6.29845 11.6076C6.29423 11.6082 6.24673 11.6147 6.24204 11.6154C6.23994 11.6196 6.22512 11.6494 6.22217 11.6554C6.22708 11.6607 6.27071 11.7082 6.27071 11.7082C6.27071 11.7082 6.22708 11.7556 6.22217 11.761C6.22512 11.7669 6.23994 11.7968 6.24204 11.801C6.24673 11.8016 6.29423 11.8081 6.29845 11.8087C6.30176 11.8054 6.35106 11.7567 6.35106 11.7567L6.42436 11.8226V11.7512Z" fill="#00843D"/>
<path d="M4.81543 11.0977L4.86308 11.1408L4.81543 11.1838V11.2552L4.88873 11.1893C4.88873 11.1893 4.93803 11.238 4.94134 11.2413C4.94555 11.2407 4.99306 11.2342 4.99775 11.2336C4.99985 11.2294 5.01466 11.1995 5.01762 11.1936C5.01271 11.1882 4.96908 11.1408 4.96908 11.1408C4.96908 11.1408 5.01271 11.0933 5.01762 11.088C5.01466 11.082 4.99985 11.0522 4.99775 11.048C4.99306 11.0473 4.94555 11.0408 4.94134 11.0402C4.93803 11.0435 4.88873 11.0923 4.88873 11.0923L4.81543 11.0264V11.0977Z" fill="#00843D"/>
<path d="M4.81543 11.3819L4.86308 11.425L4.81543 11.468V11.5394L4.88873 11.4735C4.88873 11.4735 4.93803 11.5222 4.94134 11.5255C4.94555 11.5249 4.99306 11.5184 4.99775 11.5177C4.99985 11.5135 5.01466 11.4837 5.01762 11.4777C5.01271 11.4724 4.96908 11.425 4.96908 11.425C4.96908 11.425 5.01271 11.3775 5.01762 11.3721C5.01466 11.3662 4.99985 11.3364 4.99775 11.3321C4.99306 11.3315 4.94555 11.325 4.94134 11.3244C4.93803 11.3277 4.88873 11.3764 4.88873 11.3764L4.81543 11.3105V11.3819Z" fill="#00843D"/>
<path d="M4.81543 11.7512L4.86308 11.7082L4.81543 11.6651V11.5938L4.88873 11.6597C4.88873 11.6597 4.93803 11.6109 4.94134 11.6076C4.94555 11.6082 4.99306 11.6147 4.99775 11.6154C4.99985 11.6196 5.01466 11.6494 5.01762 11.6554C5.01271 11.6607 4.96908 11.7082 4.96908 11.7082C4.96908 11.7082 5.01271 11.7556 5.01762 11.761C5.01466 11.7669 4.99985 11.7968 4.99775 11.801C4.99306 11.8016 4.94555 11.8081 4.94134 11.8087C4.93803 11.8054 4.88873 11.7567 4.88873 11.7567L4.81543 11.8226V11.7512Z" fill="#00843D"/>
<path d="M5.08991 10.7666C5.08708 10.7692 4.83075 11.0033 4.81932 11.0138C4.84242 11.0347 4.86477 11.0565 4.88794 11.0773C4.8938 11.0716 4.93843 11.0279 4.93843 11.0279L5.00446 11.0378L5.03035 11.09C5.03035 11.09 4.99008 11.134 4.98374 11.1409C4.99008 11.1478 5.03035 11.1917 5.03035 11.1917L5.00446 11.244L4.93843 11.2525C4.93843 11.2525 4.8938 11.2102 4.88793 11.2045L4.81543 11.2708V11.2934C4.83982 11.3155 4.86346 11.3378 4.88793 11.3598C4.8938 11.354 4.93843 11.3118 4.93843 11.3118L5.00446 11.3203L5.03035 11.3725C5.03035 11.3725 4.99008 11.4165 4.98374 11.4234C4.99008 11.4302 5.03035 11.4742 5.03035 11.4742L5.00446 11.5279L4.93843 11.5364C4.93843 11.5364 4.8938 11.4927 4.88793 11.4869L4.81543 11.5533V11.5773L4.88793 11.6437C4.8938 11.6379 4.93843 11.5943 4.93843 11.5943L5.00446 11.6042L5.03035 11.6564C5.03035 11.6564 4.99008 11.7004 4.98374 11.7073C4.99008 11.7142 5.03035 11.7581 5.03035 11.7581L5.00446 11.8104L4.93843 11.8203C4.93843 11.8203 4.8938 11.7766 4.88793 11.7708C4.86486 11.7916 4.84233 11.8123 4.81931 11.833C4.83075 11.8435 5.08708 12.0776 5.08991 12.0802H5.14947L5.23622 11.9884L5.18054 11.9347L5.1909 11.8612L5.24916 11.8344L5.30872 11.8852L5.36698 11.8344L5.42525 11.8612L5.4369 11.9347L5.37993 11.9884L5.46409 12.0759L5.54824 11.9884L5.49128 11.9347L5.50163 11.8612L5.56119 11.8344L5.61945 11.8852L5.67901 11.8344L5.73727 11.8612L5.74763 11.9347L5.69196 11.9884L5.77482 12.0773L5.85898 11.9884L5.80331 11.9347L5.81366 11.8612L5.87322 11.8344L5.93148 11.8852L5.98975 11.8344L6.0493 11.8612L6.05966 11.9347L6.00399 11.9884L6.09074 12.0802H6.149C6.15183 12.0776 6.40815 11.8435 6.4196 11.833C6.39653 11.8123 6.37407 11.7916 6.35097 11.7708C6.34511 11.7766 6.30178 11.8203 6.30178 11.8203L6.23574 11.8104L6.20855 11.7581C6.20855 11.7581 6.24884 11.7142 6.25517 11.7073C6.24884 11.7004 6.20855 11.6564 6.20855 11.6564L6.23574 11.6042L6.30178 11.5943C6.30178 11.5943 6.34511 11.6379 6.35097 11.6437L6.42348 11.5773V11.5533L6.35097 11.4869C6.34511 11.4927 6.30178 11.5364 6.30178 11.5364L6.23574 11.5279L6.20855 11.4742C6.20855 11.4742 6.24884 11.4302 6.25517 11.4234C6.24884 11.4165 6.20855 11.3725 6.20855 11.3725L6.23574 11.3203L6.30178 11.3118C6.30178 11.3118 6.34511 11.354 6.35097 11.3598C6.37529 11.338 6.39922 11.3166 6.42348 11.2948V11.2694L6.35097 11.2045C6.34511 11.2102 6.30178 11.2525 6.30178 11.2525L6.23574 11.244L6.20855 11.1917C6.20855 11.1917 6.24884 11.1478 6.25517 11.1409C6.24884 11.134 6.20855 11.09 6.20855 11.09L6.23574 11.0378L6.30178 11.0279C6.30178 11.0279 6.34511 11.0716 6.35097 11.0773C6.37418 11.0565 6.39769 11.036 6.42089 11.0152C6.41198 11.007 6.15184 10.7692 6.149 10.7666H6.09073L6.00399 10.8584L6.05966 10.9121L6.0493 10.9855L5.98975 11.0138L5.93148 10.9629L5.87322 11.0138L5.81366 10.9855L5.8033 10.9121L5.85898 10.8584L5.77612 10.7708L5.69196 10.8584L5.74763 10.9121L5.73727 10.9855L5.67901 11.0138L5.61945 10.9629L5.56119 11.0138L5.50163 10.9855L5.49128 10.9121L5.54824 10.8584L5.46409 10.7708L5.37993 10.8584L5.4369 10.9121L5.42524 10.9855L5.36698 11.0138L5.30872 10.9629L5.24916 11.0138L5.1909 10.9855L5.18054 10.9121L5.23621 10.8584L5.14817 10.7666L5.08991 10.7666ZM4.81543 11.3951V11.4531L4.84651 11.4234L4.81543 11.3951Z" fill="#D22630"/>
<path d="M5.30851 12.0332L5.26318 12.0798H5.35251L5.30851 12.0332Z" fill="white"/>
<path d="M5.61968 12.0332L5.57568 12.0798H5.66501L5.61968 12.0332Z" fill="white"/>
<path d="M5.93151 12.0332L5.88623 12.0798H5.97684L5.93151 12.0332Z" fill="white"/>
<path d="M5.26221 10.7666L5.30882 10.8146L5.35414 10.7666H5.26221Z" fill="white"/>
<path d="M5.57422 10.7666L5.61954 10.8146L5.66615 10.7666H5.57422Z" fill="white"/>
<path d="M5.88623 10.7666L5.93151 10.8146L5.97684 10.7666H5.88623Z" fill="white"/>
<path d="M6.42365 11.1123L6.39258 11.1406L6.42365 11.1674V11.1123Z" fill="white"/>
<path d="M6.42365 11.3955L6.39258 11.4238L6.42365 11.452V11.3955Z" fill="white"/>
<path d="M6.42365 11.6787L6.39258 11.707L6.42365 11.7352V11.6787Z" fill="white"/>
<path d="M4.81543 11.1113V11.1692L4.8465 11.141L4.81543 11.1113Z" fill="white"/>
<path d="M4.81543 11.3955V11.4534L4.8465 11.4238L4.81543 11.3955Z" fill="white"/>
<path d="M4.81543 11.6777V11.7356L4.8465 11.7074L4.81543 11.6777Z" fill="white"/>
<path d="M5.88669 11.3291V11.228H5.79289V11.1172H5.44745V11.228H5.35366V11.3291H5.22412V11.5184H5.35366V11.6195H5.44745V11.7303H5.79289V11.6195H5.88669V11.5184H6.01621V11.3291H5.88669Z" fill="#383739"/>
<path d="M5.6147 11.1289V11.2432L5.46621 11.3352V11.4183H5.23438V11.3408H5.3639V11.2398H5.45769V11.1289H5.6147Z" fill="#FFC72C"/>
<path d="M5.62549 11.7191V11.6049L5.77396 11.5128V11.4297H6.00581V11.5072H5.87629V11.6083H5.78249V11.7191H5.62549Z" fill="#FFC72C"/>
<path d="M5.77396 11.4183V11.3352L5.62549 11.2432V11.1289H5.78249V11.2398H5.87629V11.3408H6.00581V11.4183H5.77396Z" fill="white"/>
<path d="M5.23438 11.4297H5.46621V11.5128L5.6147 11.6049V11.7191H5.45769V11.6083H5.3639V11.5072H5.23438V11.4297Z" fill="white"/>
<path d="M5.47705 11.4297V11.5067L5.61505 11.5923V11.4297H5.47705Z" fill="#D22630"/>
<path d="M5.61505 11.2559L5.47705 11.3414V11.4185H5.61505V11.2559Z" fill="#00843D"/>
<path d="M5.76349 11.4185V11.3414L5.62549 11.2559V11.4185H5.76349Z" fill="#D22630"/>
<path d="M5.62549 11.5923L5.76349 11.5067V11.4297H5.62549V11.5923Z" fill="#00843D"/>
<path d="M4.3645 13.4327V13.7451H4.09157V14.0285H3.81494V14.8354H4.09157V15.1188H4.3645V15.4312H5.35689L5.53141 15.5456L5.44755 15.6006H5.09368L5.06316 15.5631H5.38385L5.2935 15.4638H4.83477L5.04261 15.6999H5.47279L5.61973 15.6035L5.76668 15.6999H6.19688L6.40471 15.4638H5.94599L5.85563 15.5631H6.17633L6.1458 15.6006H5.79192L5.70806 15.5456L5.88259 15.4312H6.87498V15.1188H7.14791V14.8354H7.42453V14.0285H7.14791V13.7451H6.87498V13.4327H5.88259L5.70806 13.3183L5.79192 13.2633H6.1458L6.17633 13.3009H5.85563L5.94599 13.4001H6.40471L6.19688 13.1641H5.76668L5.61973 13.2604L5.47279 13.1641H5.04261L4.83477 13.4001H5.2935L5.38385 13.3009H5.06316L5.09368 13.2633H5.44755L5.53141 13.3183L5.35689 13.4327H4.3645Z" fill="#D22630"/>
<path d="M5.87992 15.4192H6.86521V15.107H7.1371V14.8231H7.41417V14.0392H7.1371V13.7567H6.86521V13.4446H5.87992L5.47079 13.1748H5.04741L4.85968 13.3881H5.28953L5.35944 13.3118H5.03965L5.08885 13.2511H5.45137L5.91488 13.5562H6.76163V13.8683H7.03482V14.1522H7.31189V14.7115H7.03482V14.9954H6.76163V15.3076H5.91488L5.45137 15.6112H5.08885L5.03965 15.5519H5.35944L5.28953 15.4757H4.85968L5.04741 15.6889H5.47079L5.87992 15.4192ZM5.32449 15.3076H4.47774V14.9954H4.20584V14.7115H3.92877V14.1522H4.20584V13.8683H4.47774V13.5562H5.32449L5.7893 13.2511H6.15053L6.19973 13.3118H5.88122L5.95114 13.3881H6.38099L6.19325 13.1748H5.76987L5.36074 13.4446H4.37545V13.7567H4.10227V14.0392H3.8252V14.8231H4.10227V15.107H4.37545V15.4192H5.36074L5.76987 15.6889H6.19325L6.38099 15.4757H5.95114L5.88122 15.5519H6.19973L6.15053 15.6112H5.7893L5.32449 15.3076Z" fill="#FFC72C"/>
<path d="M6.67936 14.9055V15.2179H5.89224L5.61982 15.3965L5.3474 15.2179H4.5603V14.9055H4.28736V14.6221H4.01074V14.2422H4.28736V13.9588H4.5603V13.6463H5.34595H5.3474L5.61982 13.4678L5.89224 13.6463H6.67936V13.9588H6.95229V14.2422H7.2289V14.6221H6.95229V14.9055H6.67936Z" fill="#00843D"/>
<path d="M4.66357 14.7958V15.0982H5.09624L4.66357 14.7852V14.7958Z" fill="#383739"/>
<path d="M4.66357 14.068V13.7656H5.09624L4.66357 14.0787V14.068Z" fill="#383739"/>
<path d="M6.57671 14.7958V15.0982H6.14404L6.57671 14.7852V14.7958Z" fill="#383739"/>
<path d="M6.57671 14.068V13.7656H6.14404L6.57671 14.0787V14.068Z" fill="#383739"/>
<path d="M4.67383 14.8066L5.06126 15.087H4.67383V14.8066Z" fill="#D22630"/>
<path d="M4.67383 14.0577C4.68889 14.0468 5.03486 13.7964 5.06126 13.7773H4.67383V14.0577Z" fill="#D22630"/>
<path d="M6.56615 14.8066C6.55107 14.8176 6.2051 15.0679 6.17871 15.087H6.56615V14.8066Z" fill="#D22630"/>
<path d="M6.56615 14.0577C6.55107 14.0468 6.2051 13.7964 6.17871 13.7773H6.56615V14.0577Z" fill="#D22630"/>
<path d="M5.21513 14.3495V14.1951H5.16685L4.9352 14.0371L4.93243 14.039L4.70357 14.1951H4.65529V14.3495H4.54639V14.5154H4.65529V14.6698H4.70357L4.9352 14.8278L5.16685 14.6698H5.21513V14.5154H5.38091V14.3495H5.21513Z" fill="#383739"/>
<path d="M4.935 14.0508L5.14689 14.1953H4.72314L4.935 14.0508ZM5.14686 14.67L4.935 14.8145L4.72316 14.67H5.14686Z" fill="#D22630"/>
<path d="M5.09576 14.3613V14.5043H4.83154V14.3613H5.09576Z" fill="#D22630"/>
<path d="M5.20465 14.5156V14.6586H4.94043V14.5156H5.20465Z" fill="#FFC72C"/>
<path d="M4.92975 14.5156V14.6586H4.66553V14.5156H4.92975Z" fill="#FFC72C"/>
<path d="M5.37018 14.3613V14.5043H5.10596V14.3613H5.37018Z" fill="#FFC72C"/>
<path d="M4.82086 14.3613V14.5043H4.55664V14.3613H4.82086Z" fill="#FFC72C"/>
<path d="M5.20465 14.207V14.35H4.94043V14.207H5.20465Z" fill="#FFC72C"/>
<path d="M4.92975 14.207V14.35H4.66553V14.207H4.92975Z" fill="#FFC72C"/>
<path d="M4.74857 14.3926V14.472H4.62988V14.3926H4.74857Z" fill="#383739"/>
<path d="M4.85745 14.2383V14.3177H4.73877V14.2383H4.85745Z" fill="#383739"/>
<path d="M5.13235 14.2383V14.3177H5.01367V14.2383H5.13235Z" fill="#383739"/>
<path d="M5.02298 14.3926V14.472H4.9043V14.3926H5.02298Z" fill="#383739"/>
<path d="M5.29788 14.3926V14.472H5.1792V14.3926H5.29788Z" fill="#383739"/>
<path d="M5.13235 14.5469V14.6263H5.01367V14.5469H5.13235Z" fill="#383739"/>
<path d="M4.85745 14.5469V14.6263H4.73877V14.5469H4.85745Z" fill="#383739"/>
<path d="M4.73696 14.4053H4.64062V14.4603H4.73696V14.4053Z" fill="white"/>
<path d="M4.84584 14.251H4.74951V14.306H4.84584V14.251Z" fill="white"/>
<path d="M5.12074 14.251H5.02441V14.306H5.12074V14.251Z" fill="white"/>
<path d="M5.01186 14.4053H4.91553V14.4603H5.01186V14.4053Z" fill="white"/>
<path d="M5.28627 14.4053H5.18994V14.4603H5.28627V14.4053Z" fill="white"/>
<path d="M5.12074 14.5596H5.02441V14.6146H5.12074V14.5596Z" fill="white"/>
<path d="M4.84584 14.5596H4.74951V14.6146H4.84584V14.5596Z" fill="white"/>
<path d="M6.02462 14.3495V14.1951H6.0729L6.30455 14.0371L6.30732 14.039L6.53618 14.1951H6.58446V14.3495H6.69336V14.5154H6.58446V14.6698H6.53618L6.30455 14.8278L6.0729 14.6698H6.02462V14.5154H5.85884V14.3495H6.02462Z" fill="#383739"/>
<path d="M6.30474 14.0508L6.09285 14.1953H6.5166L6.30474 14.0508ZM6.09288 14.67L6.30474 14.8145L6.51659 14.67H6.09288Z" fill="#D22630"/>
<path d="M6.14398 14.3613V14.5043H6.4082V14.3613H6.14398Z" fill="#D22630"/>
<path d="M6.0351 14.5156V14.6586H6.29932V14.5156H6.0351Z" fill="#FFC72C"/>
<path d="M6.31 14.5156V14.6586H6.57422V14.5156H6.31Z" fill="#FFC72C"/>
<path d="M5.86957 14.3613V14.5043H6.13379V14.3613H5.86957Z" fill="#FFC72C"/>
<path d="M6.41889 14.3613V14.5043H6.68311V14.3613H6.41889Z" fill="#FFC72C"/>
<path d="M6.0351 14.207V14.35H6.29932V14.207H6.0351Z" fill="#FFC72C"/>
<path d="M6.31 14.207V14.35H6.57422V14.207H6.31Z" fill="#FFC72C"/>
<path d="M6.49118 14.3926V14.472H6.60986V14.3926H6.49118Z" fill="#383739"/>
<path d="M6.38229 14.2383V14.3177H6.50098V14.2383H6.38229Z" fill="#383739"/>
<path d="M6.10739 14.2383V14.3177H6.22607V14.2383H6.10739Z" fill="#383739"/>
<path d="M6.21677 14.3926V14.472H6.33545V14.3926H6.21677Z" fill="#383739"/>
<path d="M5.94186 14.3926V14.472H6.06055V14.3926H5.94186Z" fill="#383739"/>
<path d="M6.10739 14.5469V14.6263H6.22607V14.5469H6.10739Z" fill="#383739"/>
<path d="M6.38229 14.5469V14.6263H6.50098V14.5469H6.38229Z" fill="#383739"/>
<path d="M6.50279 14.4053H6.59912V14.4603H6.50279V14.4053Z" fill="white"/>
<path d="M6.3939 14.251H6.49023V14.306H6.3939V14.251Z" fill="white"/>
<path d="M6.119 14.251H6.21533V14.306H6.119V14.251Z" fill="white"/>
<path d="M6.22789 14.4053H6.32422V14.4603H6.22789V14.4053Z" fill="white"/>
<path d="M5.95347 14.4053H6.0498V14.4603H5.95347V14.4053Z" fill="white"/>
<path d="M6.119 14.5596H6.21533V14.6146H6.119V14.5596Z" fill="white"/>
<path d="M6.3939 14.5596H6.49023V14.6146H6.3939V14.5596Z" fill="white"/>
<path d="M5.89982 14.0916V14.246H5.85153L5.61989 14.404L5.61712 14.4021L5.38826 14.246H5.33998V14.0916H5.20264V13.9257H5.33998V13.7713H5.38826L5.61989 13.6133L5.85153 13.7713H5.89982V13.9257H6.03716V14.0916H5.89982Z" fill="#383739"/>
<path d="M5.62006 14.3907L5.83194 14.2462H5.4082L5.62006 14.3907ZM5.83192 13.7715L5.62006 13.627L5.40822 13.7715H5.83192Z" fill="#FFC72C"/>
<path d="M5.88922 13.9252V13.7822H5.625V13.9252H5.88922Z" fill="#D22630"/>
<path d="M5.61432 13.9252V13.7822H5.3501V13.9252H5.61432Z" fill="#D22630"/>
<path d="M6.02643 14.0795V13.9365H5.76221V14.0795H6.02643Z" fill="#D22630"/>
<path d="M5.75201 14.0795V13.9365H5.48779V14.0795H5.75201Z" fill="#D22630"/>
<path d="M5.4771 14.0795V13.9365H5.21289V14.0795H5.4771Z" fill="#D22630"/>
<path d="M5.88922 14.2338V14.0908H5.625V14.2338H5.88922Z" fill="#D22630"/>
<path d="M5.61432 14.2338V14.0908H5.3501V14.2338H5.61432Z" fill="#D22630"/>
<path d="M5.54153 13.8145V13.8939H5.42285V13.8145H5.54153Z" fill="#383739"/>
<path d="M5.81644 13.8145V13.8939H5.69775V13.8145H5.81644Z" fill="#383739"/>
<path d="M5.40433 13.9688V14.0482H5.28564V13.9688H5.40433Z" fill="#383739"/>
<path d="M5.67923 13.9688V14.0482H5.56055V13.9688H5.67923Z" fill="#383739"/>
<path d="M5.95364 13.9688V14.0482H5.83496V13.9688H5.95364Z" fill="#383739"/>
<path d="M5.54153 14.123V14.2025H5.42285V14.123H5.54153Z" fill="#383739"/>
<path d="M5.81644 14.123V14.2025H5.69775V14.123H5.81644Z" fill="#383739"/>
<path d="M5.53041 13.8271H5.43408V13.8822H5.53041V13.8271Z" fill="white"/>
<path d="M5.80532 13.8271H5.70898V13.8822H5.80532V13.8271Z" fill="white"/>
<path d="M5.39321 13.9814H5.29688V14.0365H5.39321V13.9814Z" fill="white"/>
<path d="M5.66811 13.9814H5.57178V14.0365H5.66811V13.9814Z" fill="white"/>
<path d="M5.94252 13.9814H5.84619V14.0365H5.94252V13.9814Z" fill="white"/>
<path d="M5.53041 14.1357H5.43408V14.1908H5.53041V14.1357Z" fill="white"/>
<path d="M5.80532 14.1357H5.70898V14.1908H5.80532V14.1357Z" fill="white"/>
<path d="M5.89982 14.9392V15.0936H5.85153L5.61989 15.2516L5.61712 15.2498L5.38826 15.0936H5.33998V14.9392H5.20264V14.7734H5.33998V14.619H5.38826L5.61989 14.4609L5.85153 14.619H5.89982V14.7734H6.03716V14.9392H5.89982Z" fill="#383739"/>
<path d="M5.62006 15.2384L5.83194 15.0938H5.4082L5.62006 15.2384ZM5.83192 14.6191L5.62006 14.4746L5.40822 14.6191H5.83192Z" fill="#FFC72C"/>
<path d="M5.88922 14.7729V14.6299H5.625V14.7729H5.88922Z" fill="#D22630"/>
<path d="M5.61432 14.7729V14.6299H5.3501V14.7729H5.61432Z" fill="#D22630"/>
<path d="M6.02643 14.9272V14.7842H5.76221V14.9272H6.02643Z" fill="#D22630"/>
<path d="M5.75201 14.9272V14.7842H5.48779V14.9272H5.75201Z" fill="#D22630"/>
<path d="M5.4771 14.9272V14.7842H5.21289V14.9272H5.4771Z" fill="#D22630"/>
<path d="M5.88922 15.0815V14.9385H5.625V15.0815H5.88922Z" fill="#D22630"/>
<path d="M5.61432 15.0815V14.9385H5.3501V15.0815H5.61432Z" fill="#D22630"/>
<path d="M5.54153 14.6621V14.7416H5.42285V14.6621H5.54153Z" fill="#383739"/>
<path d="M5.81644 14.6621V14.7416H5.69775V14.6621H5.81644Z" fill="#383739"/>
<path d="M5.40433 14.8164V14.8959H5.28564V14.8164H5.40433Z" fill="#383739"/>
<path d="M5.67923 14.8164V14.8959H5.56055V14.8164H5.67923Z" fill="#383739"/>
<path d="M5.95364 14.8164V14.8959H5.83496V14.8164H5.95364Z" fill="#383739"/>
<path d="M5.54153 14.9707V15.0502H5.42285V14.9707H5.54153Z" fill="#383739"/>
<path d="M5.81644 14.9707V15.0502H5.69775V14.9707H5.81644Z" fill="#383739"/>
<path d="M5.53041 14.6748H5.43408V14.7299H5.53041V14.6748Z" fill="white"/>
<path d="M5.80532 14.6748H5.70898V14.7299H5.80532V14.6748Z" fill="white"/>
<path d="M5.39321 14.8291H5.29688V14.8842H5.39321V14.8291Z" fill="white"/>
<path d="M5.66811 14.8291H5.57178V14.8842H5.66811V14.8291Z" fill="white"/>
<path d="M5.94252 14.8291H5.84619V14.8842H5.94252V14.8291Z" fill="white"/>
<path d="M5.53041 14.9834H5.43408V15.0385H5.53041V14.9834Z" fill="white"/>
<path d="M5.80532 14.9834H5.70898V15.0385H5.80532V14.9834Z" fill="white"/>
<path d="M4.12109 16.7832L5.14902 16.1797H5.15034H6.09109L7.11902 16.7832V17.7776L6.09109 18.3811H5.14902L4.12109 17.7776V16.7832Z" fill="#383739"/>
<path d="M5.15209 16.1904L4.13184 16.7893V17.7695L5.15209 18.3684H6.08814L7.10843 17.7695V16.7893L6.08814 16.1904H5.15209ZM5.17019 16.2709H6.07004L7.03593 16.8373V17.7229L6.07004 18.2893H5.16965L4.2038 17.7229V16.8373L5.17019 16.2709Z" fill="#00843D"/>
<path d="M5.62497 17.2745V18.2783H6.0673L7.0251 17.7159V17.286L5.61449 17.286V16.2822H5.17218L4.21436 16.8445V17.2745L5.62497 17.2745Z" fill="#FFC72C"/>
<path d="M5.61449 17.2745V18.2783H5.17218L4.21436 17.7159V17.286L5.62497 17.286V16.2822H6.0673L7.02511 16.8445V17.2745L5.61449 17.2745Z" fill="white"/>
<path d="M5.70601 18.2215V17.9314L5.62003 17.9909L5.53404 17.9314V18.2215H5.26658L5.44705 18.0771V17.8712L5.17182 17.6807H4.97949V16.8787H5.17182L5.44705 16.6882V16.4823L5.26658 16.3379H5.28258H5.53404V16.628L5.62003 16.5685L5.70601 16.628V16.3379H5.97348L5.79299 16.4823V16.6882L6.06823 16.8787H6.26055V17.6807H6.06823L5.79299 17.8712V18.0771L5.97348 18.2215H5.70601Z" fill="#383739"/>
<path d="M5.71659 16.3506V16.65L5.62465 16.5865V16.6712L6.04543 16.9636H6.18397V17.2743H6.25002V16.8902H6.06486L5.78263 16.6952V16.4777L5.94185 16.3506H5.71659ZM4.99024 17.2856V17.6698H5.17409L5.45764 17.8661V18.0836L5.29838 18.2107H5.52368V17.9113L5.61429 17.9749V17.8873L5.19352 17.5978H5.05626V17.2856L4.99024 17.2856Z" fill="#FFC72C"/>
<path d="M5.29838 16.3506L5.45764 16.4777V16.6952L5.17409 16.8902H4.99023V17.2743H5.05626V16.9636H5.19352L5.61429 16.6726V16.5865L5.52368 16.65V16.3506L5.29838 16.3506ZM6.18397 17.2856V17.5978H6.04543L5.62465 17.8873V17.9749L5.71658 17.9113V18.2107H5.94185L5.78263 18.0836V17.8661L6.06486 17.6698H6.25001V17.2856L6.18397 17.2856Z" fill="white"/>
<path d="M5.06641 17.5856H5.19688L5.61996 17.8784L6.04302 17.5856H6.1735V16.9745H6.04454H6.04302L5.61996 16.6816L5.19688 16.9745H5.06641V17.5856Z" fill="#D22630"/>
<path d="M5.91299 17.425H6.00332V17.3784H5.93537V17.2936H6.0806V17.5098H5.94137L5.94139 17.6572H5.65479V17.4453H5.78092V17.5301H5.73206V17.5725H5.86411V17.4914L5.32728 17.1346H5.23695V17.1812H5.30491V17.2659H5.15967V17.0498H5.2989V16.9023H5.30413H5.58549V17.1142H5.45935V17.0295H5.50821V16.9871H5.37618V17.0681L5.91299 17.425ZM5.86411 17.0681V16.9871H5.73206V17.0295H5.78092V17.1142H5.65479V16.9023H5.94139V17.0498H6.0806V17.2659H5.93537V17.1812H6.00334V17.1346H5.91299L5.37618 17.4914V17.5724H5.50821V17.5301H5.45935V17.4453H5.58549V17.6572H5.2989V17.5097H5.15967V17.2936H5.30491V17.3784H5.23695V17.425H5.32728L5.86411 17.0681Z" fill="#383739"/>
<path d="M5.87435 17.4853V17.5842H5.72134V17.519H5.77021V17.4571H5.66502V17.6461H5.93067V17.4986H6.0699V17.3053H5.94561V17.3672H6.01356V17.4367H5.90983L5.36546 17.0748V16.976H5.51846V17.0412H5.46961V17.1031H5.57478V16.9141H5.30914V17.0615H5.16992V17.2548H5.29419V17.1929H5.22624V17.1234H5.32998L5.87435 17.4853ZM5.90983 17.1234H6.01358V17.1929H5.94561V17.2548H6.0699V17.0615H5.93068V16.9141H5.66504V17.1031H5.77021V17.0412H5.72136V16.976H5.87435V17.0748L5.32998 17.4367H5.22624V17.3672H5.29419V17.3053H5.16992V17.4986H5.30914V17.6461H5.57478V17.457H5.46961V17.5189H5.51846V17.5842H5.36546V17.4853L5.90983 17.1234Z" fill="white"/>
<path d="M6.8192 17.3311V17.6447H6.69685V17.5339H6.57352V17.6447H6.45117V17.3311H6.57352V17.4418H6.69685V17.3311H6.8192Z" fill="#383739"/>
<path d="M6.38121 17.7471V18.0607H6.25886V17.9499H6.13553V18.0607H6.01318V17.7471H6.13553V17.8579H6.25886V17.7471H6.38121Z" fill="#383739"/>
<path d="M6.8192 17.2297V16.916H6.69685V17.0268H6.57352V16.916H6.45117V17.2297H6.57352V17.1189H6.69685V17.2297H6.8192Z" fill="#383739"/>
<path d="M4.42139 17.3311V17.6447H4.54374V17.5339H4.66707V17.6447H4.78942V17.3311H4.66707V17.4418H4.54374V17.3311H4.42139Z" fill="#383739"/>
<path d="M4.42139 17.2297V16.916H4.54374V17.0268H4.66707V16.916H4.78942V17.2297H4.66707V17.1189H4.54374V17.2297H4.42139Z" fill="#383739"/>
<path d="M6.38121 16.8136V16.5H6.25886V16.6108H6.13553V16.5H6.01318V16.8136H6.13553V16.7029H6.25886V16.8136H6.38121Z" fill="#383739"/>
<path d="M4.85889 17.7471V18.0607H4.98124V17.9499H5.10457V18.0607H5.22692V17.7471H5.10457V17.8579H4.98124V17.7471H4.85889Z" fill="#383739"/>
<path d="M4.85889 16.8136V16.5H4.98124V16.6108H5.10457V16.5H5.22692V16.8136H5.10457V16.7029H4.98124V16.8136H4.85889Z" fill="#383739"/>
<path d="M6.4541 16.5938V16.8319H6.85981L6.4541 16.5938Z" fill="#383739"/>
<path d="M4.78608 17.9667V17.7285H4.38037L4.78608 17.9667Z" fill="#383739"/>
<path d="M4.78608 16.5938V16.8319H4.38037L4.78608 16.5938Z" fill="#383739"/>
<path d="M6.4541 17.9667V17.7285H6.85981L6.4541 17.9667Z" fill="#383739"/>
<path d="M6.70711 17.5218V17.6326H6.80851V17.3418H6.70711V17.4526H6.56282V17.3418H6.46143V17.6326H6.56282V17.5218H6.70711Z" fill="#D22630"/>
<path d="M6.26912 17.9378V18.0486H6.37051V17.7578H6.26912V17.8686H6.12483V17.7578H6.02344V18.0486H6.12483V17.9378H6.26912Z" fill="#D22630"/>
<path d="M6.70711 17.0375V16.9268H6.80851V17.2175H6.70711V17.1068H6.56282V17.2175H6.46143V16.9268H6.56282V17.0375H6.70711Z" fill="#D22630"/>
<path d="M4.53303 17.5218V17.6326H4.43164V17.3418H4.53303V17.4526H4.67732V17.3418H4.77871V17.6326H4.67732V17.5218H4.53303Z" fill="#D22630"/>
<path d="M4.53303 17.0375V16.9268H4.43164V17.2175H4.53303V17.1068H4.67732V17.2175H4.77871V16.9268H4.67732V17.0375H4.53303Z" fill="#D22630"/>
<path d="M6.26912 16.6215V16.5107H6.37051V16.8015H6.26912V16.6908H6.12483V16.8015H6.02344V16.5107H6.12483V16.6215H6.26912Z" fill="#D22630"/>
<path d="M4.97102 17.9378V18.0486H4.86963V17.7578H4.97102V17.8686H5.11531V17.7578H5.21672V18.0486H5.11531V17.9378H4.97102Z" fill="#D22630"/>
<path d="M4.97102 16.6215V16.5107H4.86963V16.8015H4.97102V16.6908H5.11531V16.8015H5.21672V16.5107H5.11531V16.6215H4.97102Z" fill="#D22630"/>
<path d="M6.46496 16.6133V16.8209H6.81845L6.46496 16.6133ZM4.42189 17.7404L4.77535 17.9481V17.7404H4.42189Z" fill="#FFC72C"/>
<path d="M4.77533 16.6133L4.42188 16.8209H4.77533V16.6133ZM6.46494 17.7404V17.9481L6.81843 17.7404H6.46494Z" fill="white"/>
<path d="M7.2799 18.1553C7.26036 18.2462 7.19414 18.3147 7.17836 18.409C7.14677 18.3107 7.11764 18.2284 7.13939 18.1209C7.15495 18.044 7.21423 17.9892 7.2211 17.9102C7.28573 17.9735 7.29965 18.0635 7.2799 18.1553ZM7.29628 18.536C7.24146 18.618 7.16525 18.6809 7.08109 18.7228C7.09766 18.651 7.06657 18.5969 7.03206 18.5399C6.99048 18.4713 6.97021 18.4039 7.00411 18.3248C7.0199 18.3659 7.04112 18.4 7.06603 18.4352C7.10286 18.49 7.12707 18.5387 7.13275 18.609C7.17534 18.5746 7.19405 18.5232 7.21683 18.4734C7.25155 18.4021 7.30757 18.3425 7.37193 18.3036C7.35483 18.3835 7.34166 18.4681 7.29628 18.536ZM6.98881 18.7804C7.00053 18.826 7.01063 18.8711 7.00837 18.9187C7.0446 18.8761 7.09271 18.8441 7.13562 18.8098C7.19407 18.7582 7.2622 18.7219 7.30998 18.6562C7.30285 18.7528 7.26494 18.8316 7.19295 18.8904C7.11686 18.9525 7.02509 18.9859 6.95015 19.0512C6.96137 18.9633 6.93177 18.8929 6.90653 18.8121C6.8855 18.7349 6.90585 18.6565 6.95384 18.5977C6.95312 18.6629 6.97199 18.7189 6.98881 18.7804ZM6.81804 19.0773C6.80228 19.144 6.75848 19.1982 6.72858 19.2577C6.80922 19.2304 6.88036 19.1827 6.95326 19.1378C7.04008 19.0862 7.13436 19.0534 7.21296 18.9853C7.17384 19.1433 7.0769 19.2349 6.93507 19.2816C6.83809 19.3135 6.75637 19.2976 6.6387 19.3495C6.65219 19.2626 6.67597 19.1688 6.71363 19.0904C6.74286 19.0338 6.77528 18.9779 6.79333 18.9155C6.81948 18.9667 6.83186 19.0189 6.81804 19.0773ZM6.52132 19.3191C6.49356 19.3709 6.45691 19.4146 6.41146 19.4491C6.52593 19.457 6.61805 19.3779 6.72965 19.3744C6.79858 19.3723 6.86402 19.3957 6.93432 19.3887C6.8509 19.4501 6.76356 19.5037 6.66199 19.518C6.52996 19.5366 6.4082 19.5004 6.26254 19.5146C6.33061 19.4622 6.36467 19.392 6.4071 19.3166C6.46235 19.2224 6.51449 19.1553 6.62195 19.1401C6.57882 19.193 6.55371 19.2585 6.52132 19.3191ZM6.11478 19.5263C6.31645 19.5637 6.50969 19.6121 6.71566 19.6143C6.48511 19.702 6.26788 19.7179 6.03923 19.6274C5.91566 19.5784 5.82092 19.5522 5.72759 19.5595C5.59121 19.5702 5.42546 19.6289 5.24202 19.84L5.16992 19.777C5.43283 19.5215 5.77682 19.4636 6.11477 19.5263L6.11478 19.5263Z" fill="#FFC72C"/>
</g>
<defs>
<clipPath id="clip0_1768_30696">
<rect x="1" y="4" width="22" height="16" rx="4" fill="white"/>
</clipPath>
</defs>
</svg>
