<svg width="34" height="34" viewBox="0 0 34 34" fill="none" xmlns="http://www.w3.org/2000/svg">
<rect width="34" height="34" rx="11" fill="#E7EFFF"/>
<g clip-path="url(#clip0_1768_30680)">
<path d="M28 9H6V25H28V9Z" fill="#00843D"/>
<path d="M16.9222 10.7744C17.5724 11.079 18.0279 11.7838 18.0279 12.6045C18.0279 13.7038 17.2107 14.5953 16.2031 14.5953C15.7519 14.5953 15.3391 14.4165 15.0205 14.1205C15.2176 14.2127 15.4329 14.2684 15.6597 14.2792C16.6665 14.3271 17.5185 13.4754 17.5625 12.3771C17.588 11.7395 17.3355 11.1588 16.9222 10.7744Z" fill="white"/>
<path d="M15.1817 12.2382L15.3885 11.5439L14.8472 11.973H15.5163L14.975 11.5439L15.1817 12.2382Z" fill="white"/>
<path d="M15.1817 11.2137L15.3885 10.5195L14.8472 10.9486H15.5163L14.975 10.5195L15.1817 11.2137Z" fill="white"/>
<path d="M16.109 11.7382L16.3157 11.0439L15.7744 11.473H16.4435L15.9022 11.0439L16.109 11.7382Z" fill="white"/>
<path d="M14.2545 12.7372L14.4612 12.043L13.9199 12.472H14.589L14.0477 12.043L14.2545 12.7372Z" fill="white"/>
<path d="M15.1817 13.2616L15.3885 12.5674L14.8472 12.9964H15.5163L14.975 12.5674L15.1817 13.2616Z" fill="white"/>
<path d="M12.6001 9H8.64014V25H12.6001V9Z" fill="#D22630"/>
<path d="M8.64014 7.94336V8.10014L8.86283 8.32754L8.78773 8.40381L8.94698 8.56483L8.87707 8.63404V8.53376H8.74112V8.65381L9.04797 8.96737H9.20334L9.22017 8.8572H9.13083L9.22794 8.75833L9.47135 8.99986L9.22794 9.2428L9.13083 9.14392H9.22017L9.20334 9.03234H9.04797L8.74112 9.34591V9.46596H8.87707V9.36568L8.94698 9.43489L8.78773 9.59591L8.86283 9.67359L8.64014 9.89958V10.0564L9.0169 9.67359L8.9418 9.59591L9.09976 9.43489L8.96381 9.29647L9.05445 9.20608L9.22794 9.38122L9.60859 8.99986L9.22794 8.61851L9.05445 8.79506L8.96381 8.70325L9.09976 8.56483L8.9418 8.40382L9.0169 8.32755L8.64014 7.94336ZM8.64014 8.70466V9.29506L8.72818 9.1976V9.08319H8.8214L8.89649 8.99986L8.8214 8.91794H8.72818V8.80212L8.64014 8.70466ZM9.28232 8.9137L9.26937 8.99421L9.28232 9.07613L9.36259 8.99421L9.28232 8.9137Z" fill="#383739"/>
<path d="M8.64017 7.95996V8.08426L8.8784 8.32719L8.8033 8.40347L8.96256 8.56448L8.86675 8.66194V8.54471H8.75151V8.64923L9.05319 8.95572H9.19302L9.20726 8.86815H9.10368L9.22797 8.74103L9.48692 8.99951L9.22797 9.25798L9.10368 9.13228H9.20726L9.19298 9.04329H9.05315L8.75148 9.34979V9.45431H8.86671V9.33708L8.96252 9.43454L8.80327 9.59555L8.87837 9.67323L8.64014 9.91476V10.0391L9.00136 9.67323L8.92627 9.59555L9.08422 9.43454L8.94828 9.29612L9.05445 9.18877L9.22794 9.36533L9.59176 8.99951L9.22794 8.63369L9.05445 8.81024L8.94828 8.7029L9.08422 8.56448L8.92627 8.40346L9.00136 8.32719L8.64014 7.95996L8.64017 7.95996ZM8.64017 8.72126V9.27776L8.71786 9.19301V9.07013H8.81755L8.88228 8.99951L8.81755 8.92889H8.71786V8.80601L8.64017 8.72126ZM9.29012 8.93595L9.28106 8.99386L9.29012 9.05177L9.34709 8.99386L9.29012 8.93595Z" fill="#FFC72C"/>
<path d="M8.64014 10.8555V11.0123L8.86283 11.2396L8.78773 11.3159L8.94698 11.4769L8.87707 11.5461V11.4459H8.74112V11.5659L9.04797 11.8795H9.20334L9.22017 11.7693H9.13083L9.22794 11.6704L9.47135 11.912L9.22794 12.1549L9.13083 12.056H9.22017L9.20334 11.9445H9.04797L8.74112 12.258V12.3781H8.87707V12.2778L8.94698 12.347L8.78773 12.508L8.86283 12.5857L8.64014 12.8117V12.9685L9.0169 12.5857L8.9418 12.508L9.09976 12.347L8.96381 12.2086L9.05445 12.1182L9.22794 12.2933L9.60859 11.912L9.22794 11.5306L9.05445 11.7072L8.96381 11.6154L9.09976 11.4769L8.9418 11.3159L9.0169 11.2397L8.64014 10.8555ZM8.64014 11.6168V12.2072L8.72818 12.1097V11.9953H8.8214L8.89649 11.912L8.8214 11.83H8.72818V11.7142L8.64014 11.6168ZM9.28232 11.8258L9.26937 11.9063L9.28232 11.9882L9.36259 11.9063L9.28232 11.8258Z" fill="#383739"/>
<path d="M8.64017 10.8721V10.9964L8.8784 11.2393L8.8033 11.3156L8.96256 11.4766L8.86675 11.574V11.4568H8.75151V11.5613L9.05319 11.8678H9.19302L9.20726 11.7803H9.10368L9.22797 11.6531L9.48692 11.9116L9.22797 12.1701L9.10368 12.0444H9.20726L9.19298 11.9554H9.05315L8.75148 12.2619V12.3664H8.86671V12.2492L8.96252 12.3466L8.80327 12.5077L8.87837 12.5853L8.64014 12.8269V12.9512L9.00136 12.5853L8.92627 12.5077L9.08422 12.3466L8.94828 12.2082L9.05445 12.1009L9.22794 12.2774L9.59176 11.9116L9.22794 11.5458L9.05445 11.7224L8.94828 11.615L9.08422 11.4766L8.92627 11.3156L9.00136 11.2393L8.64014 10.8721L8.64017 10.8721ZM8.64017 11.6334V12.1899L8.71786 12.1051V11.9822H8.81755L8.88228 11.9116L8.81755 11.841H8.71786V11.7181L8.64017 11.6334ZM9.29012 11.8481L9.28106 11.906L9.29012 11.9639L9.34709 11.906L9.29012 11.8481Z" fill="#FFC72C"/>
<path d="M8.64014 13.8633V14.0201L8.86283 14.2475L8.78773 14.3237L8.94698 14.4848L8.87707 14.554V14.4537H8.74112V14.5737L9.04797 14.8873H9.20334L9.22017 14.7771H9.13083L9.22794 14.6783L9.47135 14.9198L9.22794 15.1627L9.13083 15.0638H9.22017L9.20334 14.9523H9.04797L8.74112 15.2658V15.3859H8.87707V15.2856L8.94698 15.3548L8.78773 15.5158L8.86283 15.5935L8.64014 15.8195V15.9763L9.0169 15.5935L8.9418 15.5158L9.09976 15.3548L8.96381 15.2164L9.05445 15.126L9.22794 15.3011L9.60859 14.9198L9.22794 14.5384L9.05445 14.715L8.96381 14.6232L9.09976 14.4848L8.9418 14.3237L9.0169 14.2475L8.64014 13.8633ZM8.64014 14.6246V15.215L8.72818 15.1175V15.0031H8.8214L8.89649 14.9198L8.8214 14.8379H8.72818V14.722L8.64014 14.6246ZM9.28232 14.8336L9.26937 14.9141L9.28232 14.9961L9.36259 14.9141L9.28232 14.8336Z" fill="#383739"/>
<path d="M8.64017 13.8799V14.0042L8.8784 14.2471L8.8033 14.3234L8.96256 14.4844L8.86675 14.5819V14.4646H8.75151V14.5691L9.05319 14.8756H9.19302L9.20726 14.7881H9.10368L9.22797 14.661L9.48692 14.9194L9.22797 15.1779L9.10368 15.0522H9.20726L9.19298 14.9632H9.05315L8.75148 15.2697V15.3742H8.86671V15.257L8.96252 15.3545L8.80327 15.5155L8.87837 15.5932L8.64014 15.8347V15.959L9.00136 15.5932L8.92627 15.5155L9.08422 15.3545L8.94828 15.216L9.05445 15.1087L9.22794 15.2852L9.59176 14.9194L9.22794 14.5536L9.05445 14.7302L8.94828 14.6228L9.08422 14.4844L8.92627 14.3234L9.00136 14.2471L8.64014 13.8799L8.64017 13.8799ZM8.64017 14.6412V15.1977L8.71786 15.1129V14.9901H8.81755L8.88228 14.9194L8.81755 14.8488H8.71786V14.7259L8.64017 14.6412ZM9.29012 14.8559L9.28106 14.9138L9.29012 14.9717L9.34709 14.9138L9.29012 14.8559Z" fill="#FFC72C"/>
<path d="M8.64014 16.8711V17.0279L8.86283 17.2553L8.78773 17.3315L8.94698 17.4926L8.87707 17.5618V17.4615H8.74112V17.5815L9.04797 17.8951H9.20334L9.22017 17.7849H9.13083L9.22794 17.6861L9.47135 17.9276L9.22794 18.1705L9.13083 18.0717H9.22017L9.20334 17.9601H9.04797L8.74112 18.2736V18.3937H8.87707V18.2934L8.94698 18.3626L8.78773 18.5236L8.86283 18.6013L8.64014 18.8273V18.9841L9.0169 18.6013L8.9418 18.5236L9.09976 18.3626L8.96381 18.2242L9.05445 18.1338L9.22794 18.309L9.60859 17.9276L9.22794 17.5462L9.05445 17.7228L8.96381 17.631L9.09976 17.4926L8.9418 17.3316L9.0169 17.2553L8.64014 16.8711ZM8.64014 17.6324V18.2228L8.72818 18.1253V18.0109H8.8214L8.89649 17.9276L8.8214 17.8457H8.72818V17.7299L8.64014 17.6324ZM9.28232 17.8414L9.26937 17.9219L9.28232 18.0039L9.36259 17.9219L9.28232 17.8414Z" fill="#383739"/>
<path d="M8.64017 16.8877V17.012L8.8784 17.2549L8.8033 17.3312L8.96256 17.4922L8.86675 17.5897V17.4724H8.75151V17.577L9.05319 17.8835H9.19302L9.20726 17.7959H9.10368L9.22797 17.6688L9.48692 17.9272L9.22797 18.1857L9.10368 18.06H9.20726L9.19298 17.971H9.05315L8.75148 18.2775V18.382H8.86671V18.2648L8.96252 18.3623L8.80327 18.5233L8.87837 18.601L8.64014 18.8425V18.9668L9.00136 18.601L8.92627 18.5233L9.08422 18.3623L8.94828 18.2239L9.05445 18.1165L9.22794 18.2931L9.59176 17.9272L9.22794 17.5614L9.05445 17.738L8.94828 17.6306L9.08422 17.4922L8.92627 17.3312L9.00136 17.2549L8.64014 16.8877L8.64017 16.8877ZM8.64017 17.649V18.2055L8.71786 18.1207V17.9979H8.81755L8.88228 17.9272L8.81755 17.8566H8.71786V17.7337L8.64017 17.649ZM9.29012 17.8637L9.28106 17.9216L9.29012 17.9795L9.34709 17.9216L9.29012 17.8637Z" fill="#FFC72C"/>
<path d="M8.64014 19.8799V20.0367L8.86283 20.2641L8.78773 20.3403L8.94698 20.5014L8.87707 20.5706V20.4703H8.74112V20.5903L9.04797 20.9039H9.20334L9.22017 20.7937H9.13083L9.22794 20.6949L9.47135 20.9364L9.22794 21.1793L9.13083 21.0804H9.22017L9.20334 20.9689H9.04797L8.74112 21.2824V21.4025H8.87707V21.3022L8.94698 21.3714L8.78773 21.5324L8.86283 21.6101L8.64014 21.8361V21.9929L9.0169 21.6101L8.9418 21.5324L9.09976 21.3714L8.96381 21.233L9.05445 21.1426L9.22794 21.3177L9.60859 20.9364L9.22794 20.555L9.05445 20.7316L8.96381 20.6398L9.09976 20.5014L8.9418 20.3403L9.0169 20.2641L8.64014 19.8799ZM8.64014 20.6412V21.2316L8.72818 21.1341V21.0197H8.8214L8.89649 20.9364L8.8214 20.8545H8.72818V20.7386L8.64014 20.6412ZM9.28232 20.8502L9.26937 20.9307L9.28232 21.0127L9.36259 20.9307L9.28232 20.8502Z" fill="#383739"/>
<path d="M8.64017 19.8965V20.0208L8.8784 20.2637L8.8033 20.34L8.96256 20.501L8.86675 20.5985V20.4812H8.75151V20.5858L9.05319 20.8922H9.19302L9.20726 20.8047H9.10368L9.22797 20.6776L9.48692 20.936L9.22797 21.1945L9.10368 21.0688H9.20726L9.19298 20.9798H9.05315L8.75148 21.2863V21.3908H8.86671V21.2736L8.96252 21.3711L8.80327 21.5321L8.87837 21.6098L8.64014 21.8513V21.9756L9.00136 21.6098L8.92627 21.5321L9.08422 21.3711L8.94828 21.2326L9.05445 21.1253L9.22794 21.3019L9.59176 20.936L9.22794 20.5702L9.05445 20.7468L8.94828 20.6394L9.08422 20.501L8.92627 20.34L9.00136 20.2637L8.64014 19.8965L8.64017 19.8965ZM8.64017 20.6578V21.2143L8.71786 21.1295V21.0067H8.81755L8.88228 20.936L8.81755 20.8654H8.71786V20.7425L8.64017 20.6578ZM9.29012 20.8725L9.28106 20.9304L9.29012 20.9883L9.34709 20.9304L9.29012 20.8725Z" fill="#FFC72C"/>
<path d="M12.6001 7.94336V8.10014L12.3774 8.32754L12.4525 8.40381L12.2932 8.56483L12.3632 8.63404V8.53376H12.4991V8.65381L12.1923 8.96737H12.0369L12.0201 8.8572H12.1094L12.0123 8.75833L11.7689 8.99986L12.0123 9.2428L12.1094 9.14392H12.0201L12.0369 9.03234H12.1923L12.4991 9.34591V9.46596H12.3632V9.36568L12.2932 9.43489L12.4525 9.59591L12.3774 9.67359L12.6001 9.89958V10.0564L12.2233 9.67359L12.2984 9.59591L12.1405 9.43489L12.2764 9.29647L12.1858 9.20608L12.0123 9.38122L11.6316 8.99986L12.0123 8.61851L12.1858 8.79506L12.2764 8.70325L12.1405 8.56483L12.2984 8.40382L12.2233 8.32755L12.6001 7.94336ZM12.6001 8.70466V9.29506L12.5121 9.1976V9.08319H12.4188L12.3437 8.99986L12.4188 8.91794H12.5121V8.80212L12.6001 8.70466ZM11.9579 8.9137L11.9709 8.99421L11.9579 9.07613L11.8776 8.99421L11.9579 8.9137Z" fill="#383739"/>
<path d="M12.6001 7.95996V8.08426L12.3618 8.32719L12.4369 8.40347L12.2777 8.56448L12.3735 8.66194V8.54471H12.4887V8.64923L12.187 8.95572H12.0472L12.033 8.86815H12.1366L12.0123 8.74103L11.7533 8.99951L12.0123 9.25798L12.1366 9.13228H12.033L12.0473 9.04329H12.1871L12.4888 9.34979V9.45431H12.3735V9.33708L12.2777 9.43454L12.437 9.59555L12.3619 9.67323L12.6001 9.91476V10.0391L12.2389 9.67323L12.314 9.59555L12.156 9.43454L12.292 9.29612L12.1858 9.18877L12.0123 9.36533L11.6485 8.99951L12.0123 8.63369L12.1858 8.81024L12.292 8.7029L12.156 8.56448L12.314 8.40346L12.2389 8.32719L12.6001 7.95996L12.6001 7.95996ZM12.6001 8.72126V9.27776L12.5224 9.19301V9.07013H12.4227L12.358 8.99951L12.4227 8.92889H12.5224V8.80601L12.6001 8.72126ZM11.9501 8.93595L11.9592 8.99386L11.9501 9.05177L11.8931 8.99386L11.9501 8.93595Z" fill="#FFC72C"/>
<path d="M12.6001 10.8555V11.0123L12.3774 11.2396L12.4525 11.3159L12.2932 11.4769L12.3632 11.5461V11.4459H12.4991V11.5659L12.1923 11.8795H12.0369L12.0201 11.7693H12.1094L12.0123 11.6704L11.7689 11.912L12.0123 12.1549L12.1094 12.056H12.0201L12.0369 11.9445H12.1923L12.4991 12.258V12.3781H12.3632V12.2778L12.2932 12.347L12.4525 12.508L12.3774 12.5857L12.6001 12.8117V12.9685L12.2233 12.5857L12.2984 12.508L12.1405 12.347L12.2764 12.2086L12.1858 12.1182L12.0123 12.2933L11.6316 11.912L12.0123 11.5306L12.1858 11.7072L12.2764 11.6154L12.1405 11.4769L12.2984 11.3159L12.2233 11.2397L12.6001 10.8555ZM12.6001 11.6168V12.2072L12.5121 12.1097V11.9953H12.4188L12.3437 11.912L12.4188 11.83H12.5121V11.7142L12.6001 11.6168ZM11.9579 11.8258L11.9709 11.9063L11.9579 11.9882L11.8776 11.9063L11.9579 11.8258Z" fill="#383739"/>
<path d="M12.6001 10.8721V10.9964L12.3618 11.2393L12.4369 11.3156L12.2777 11.4766L12.3735 11.574V11.4568H12.4887V11.5613L12.187 11.8678H12.0472L12.033 11.7803H12.1366L12.0123 11.6531L11.7533 11.9116L12.0123 12.1701L12.1366 12.0444H12.033L12.0473 11.9554H12.1871L12.4888 12.2619V12.3664H12.3735V12.2492L12.2777 12.3466L12.437 12.5077L12.3619 12.5853L12.6001 12.8269V12.9512L12.2389 12.5853L12.314 12.5077L12.156 12.3466L12.292 12.2082L12.1858 12.1009L12.0123 12.2774L11.6485 11.9116L12.0123 11.5458L12.1858 11.7224L12.292 11.615L12.156 11.4766L12.314 11.3156L12.2389 11.2393L12.6001 10.8721L12.6001 10.8721ZM12.6001 11.6334V12.1899L12.5224 12.1051V11.9822H12.4227L12.358 11.9116L12.4227 11.841H12.5224V11.7181L12.6001 11.6334ZM11.9501 11.8481L11.9592 11.906L11.9501 11.9639L11.8931 11.906L11.9501 11.8481Z" fill="#FFC72C"/>
<path d="M12.6001 13.8633V14.0201L12.3774 14.2475L12.4525 14.3237L12.2932 14.4848L12.3632 14.554V14.4537H12.4991V14.5737L12.1923 14.8873H12.0369L12.0201 14.7771H12.1094L12.0123 14.6783L11.7689 14.9198L12.0123 15.1627L12.1094 15.0638H12.0201L12.0369 14.9523H12.1923L12.4991 15.2658V15.3859H12.3632V15.2856L12.2932 15.3548L12.4525 15.5158L12.3774 15.5935L12.6001 15.8195V15.9763L12.2233 15.5935L12.2984 15.5158L12.1405 15.3548L12.2764 15.2164L12.1858 15.126L12.0123 15.3011L11.6316 14.9198L12.0123 14.5384L12.1858 14.715L12.2764 14.6232L12.1405 14.4848L12.2984 14.3237L12.2233 14.2475L12.6001 13.8633ZM12.6001 14.6246V15.215L12.5121 15.1175V15.0031H12.4188L12.3437 14.9198L12.4188 14.8379H12.5121V14.722L12.6001 14.6246ZM11.9579 14.8336L11.9709 14.9141L11.9579 14.9961L11.8776 14.9141L11.9579 14.8336Z" fill="#383739"/>
<path d="M12.6001 13.8799V14.0042L12.3618 14.2471L12.4369 14.3234L12.2777 14.4844L12.3735 14.5819V14.4646H12.4887V14.5691L12.187 14.8756H12.0472L12.033 14.7881H12.1366L12.0123 14.661L11.7533 14.9194L12.0123 15.1779L12.1366 15.0522H12.033L12.0473 14.9632H12.1871L12.4888 15.2697V15.3742H12.3735V15.257L12.2777 15.3545L12.437 15.5155L12.3619 15.5932L12.6001 15.8347V15.959L12.2389 15.5932L12.314 15.5155L12.156 15.3545L12.292 15.216L12.1858 15.1087L12.0123 15.2852L11.6485 14.9194L12.0123 14.5536L12.1858 14.7302L12.292 14.6228L12.156 14.4844L12.314 14.3234L12.2389 14.2471L12.6001 13.8799L12.6001 13.8799ZM12.6001 14.6412V15.1977L12.5224 15.1129V14.9901H12.4227L12.358 14.9194L12.4227 14.8488H12.5224V14.7259L12.6001 14.6412ZM11.9501 14.8559L11.9592 14.9138L11.9501 14.9717L11.8931 14.9138L11.9501 14.8559Z" fill="#FFC72C"/>
<path d="M12.6001 16.8711V17.0279L12.3774 17.2553L12.4525 17.3315L12.2932 17.4926L12.3632 17.5618V17.4615H12.4991V17.5815L12.1923 17.8951H12.0369L12.0201 17.7849H12.1094L12.0123 17.6861L11.7689 17.9276L12.0123 18.1705L12.1094 18.0717H12.0201L12.0369 17.9601H12.1923L12.4991 18.2736V18.3937H12.3632V18.2934L12.2932 18.3626L12.4525 18.5236L12.3774 18.6013L12.6001 18.8273V18.9841L12.2233 18.6013L12.2984 18.5236L12.1405 18.3626L12.2764 18.2242L12.1858 18.1338L12.0123 18.309L11.6316 17.9276L12.0123 17.5462L12.1858 17.7228L12.2764 17.631L12.1405 17.4926L12.2984 17.3316L12.2233 17.2553L12.6001 16.8711ZM12.6001 17.6324V18.2228L12.5121 18.1253V18.0109H12.4188L12.3437 17.9276L12.4188 17.8457H12.5121V17.7299L12.6001 17.6324ZM11.9579 17.8414L11.9709 17.9219L11.9579 18.0039L11.8776 17.9219L11.9579 17.8414Z" fill="#383739"/>
<path d="M12.6001 16.8877V17.012L12.3618 17.2549L12.4369 17.3312L12.2777 17.4922L12.3735 17.5897V17.4724H12.4887V17.577L12.187 17.8835H12.0472L12.033 17.7959H12.1366L12.0123 17.6688L11.7533 17.9272L12.0123 18.1857L12.1366 18.06H12.033L12.0473 17.971H12.1871L12.4888 18.2775V18.382H12.3735V18.2648L12.2777 18.3623L12.437 18.5233L12.3619 18.601L12.6001 18.8425V18.9668L12.2389 18.601L12.314 18.5233L12.156 18.3623L12.292 18.2239L12.1858 18.1165L12.0123 18.2931L11.6485 17.9272L12.0123 17.5614L12.1858 17.738L12.292 17.6306L12.156 17.4922L12.314 17.3312L12.2389 17.2549L12.6001 16.8877L12.6001 16.8877ZM12.6001 17.649V18.2055L12.5224 18.1207V17.9979H12.4227L12.358 17.9272L12.4227 17.8566H12.5224V17.7337L12.6001 17.649ZM11.9501 17.8637L11.9592 17.9216L11.9501 17.9795L11.8931 17.9216L11.9501 17.8637Z" fill="#FFC72C"/>
<path d="M12.6001 19.8789V20.0357L12.3774 20.2631L12.4525 20.3394L12.2932 20.5004L12.3632 20.5696V20.4693H12.4991V20.5894L12.1923 20.9029H12.0369L12.0201 20.7927H12.1094L12.0123 20.6939L11.7689 20.9354L12.0123 21.1783L12.1094 21.0795H12.0201L12.0369 20.9679H12.1923L12.4991 21.2815V21.4015H12.3632V21.3012L12.2932 21.3704L12.4525 21.5315L12.3774 21.6091L12.6001 21.8351V21.9919L12.2233 21.6091L12.2984 21.5315L12.1405 21.3704L12.2764 21.232L12.1858 21.1416L12.0123 21.3168L11.6316 20.9354L12.0123 20.5541L12.1858 20.7306L12.2764 20.6388L12.1405 20.5004L12.2984 20.3394L12.2233 20.2631L12.6001 19.8789ZM12.6001 20.6402V21.2306L12.5121 21.1331V21.0187H12.4188L12.3437 20.9354L12.4188 20.8535H12.5121V20.7377L12.6001 20.6402ZM11.9579 20.8492L11.9709 20.9298L11.9579 21.0117L11.8776 20.9298L11.9579 20.8492Z" fill="#383739"/>
<path d="M12.6001 19.8955V20.0198L12.3618 20.2627L12.4369 20.339L12.2777 20.5L12.3735 20.5975V20.4803H12.4887V20.5848L12.187 20.8913H12.0472L12.033 20.8037H12.1366L12.0123 20.6766L11.7533 20.9351L12.0123 21.1935L12.1366 21.0678H12.033L12.0473 20.9788H12.1871L12.4888 21.2853V21.3899H12.3735V21.2726L12.2777 21.3701L12.437 21.5311L12.3619 21.6088L12.6001 21.8503V21.9746L12.2389 21.6088L12.314 21.5311L12.156 21.3701L12.292 21.2317L12.1858 21.1243L12.0123 21.3009L11.6485 20.9351L12.0123 20.5692L12.1858 20.7458L12.292 20.6384L12.156 20.5L12.314 20.339L12.2389 20.2627L12.6001 19.8955L12.6001 19.8955ZM12.6001 20.6568V21.2133L12.5224 21.1286V21.0057H12.4227L12.358 20.9351L12.4227 20.8644H12.5224V20.7416L12.6001 20.6568ZM11.9501 20.8715L11.9592 20.9294L11.9501 20.9873L11.8931 20.9294L11.9501 20.8715Z" fill="#FFC72C"/>
<path d="M8.96117 23.1553C8.98071 23.2462 9.04693 23.3147 9.06271 23.409C9.0943 23.3107 9.12343 23.2284 9.10168 23.1209C9.08612 23.044 9.02684 22.9892 9.01997 22.9102C8.95534 22.9735 8.94142 23.0635 8.96117 23.1553ZM8.94479 23.536C8.99962 23.618 9.07582 23.6809 9.15998 23.7228C9.14341 23.651 9.1745 23.5969 9.20901 23.5399C9.25059 23.4713 9.27086 23.4039 9.23697 23.3248C9.22117 23.3659 9.19995 23.4 9.17504 23.4352C9.13821 23.49 9.114 23.5387 9.10832 23.609C9.06573 23.5746 9.04702 23.5232 9.02424 23.4734C8.98952 23.4021 8.9335 23.3425 8.86914 23.3036C8.88624 23.3835 8.89941 23.4681 8.94479 23.536ZM9.25226 23.7804C9.24054 23.826 9.23044 23.8711 9.2327 23.9187C9.19647 23.8761 9.14836 23.8441 9.10545 23.8098C9.047 23.7582 8.97888 23.7219 8.93109 23.6562C8.93822 23.7528 8.97613 23.8316 9.04812 23.8904C9.12421 23.9525 9.21598 23.9859 9.29092 24.0512C9.2797 23.9633 9.3093 23.8929 9.33454 23.8121C9.35558 23.7349 9.33522 23.6565 9.28723 23.5977C9.28795 23.6629 9.26909 23.7189 9.25226 23.7804ZM9.42303 24.0773C9.43879 24.144 9.48259 24.1982 9.51249 24.2577C9.43186 24.2304 9.36071 24.1827 9.28781 24.1378C9.20099 24.0862 9.10671 24.0534 9.02811 23.9853C9.06723 24.1433 9.16417 24.2349 9.306 24.2816C9.40298 24.3135 9.4847 24.2976 9.60237 24.3495C9.58888 24.2626 9.5651 24.1688 9.52744 24.0904C9.49821 24.0338 9.46579 23.9779 9.44774 23.9155C9.42159 23.9667 9.40921 24.0189 9.42303 24.0773ZM9.71975 24.3191C9.74751 24.3709 9.78416 24.4146 9.82962 24.4491C9.71514 24.457 9.62302 24.3779 9.51142 24.3744C9.44249 24.3723 9.37705 24.3957 9.30675 24.3887C9.39017 24.4501 9.47751 24.5037 9.57908 24.518C9.71111 24.5366 9.83287 24.5004 9.97853 24.5146C9.91046 24.4622 9.8764 24.392 9.83397 24.3166C9.77872 24.2224 9.72658 24.1553 9.61912 24.1401C9.66225 24.193 9.68736 24.2585 9.71975 24.3191ZM10.1263 24.5263C9.92463 24.5637 9.73138 24.6121 9.52541 24.6143C9.75596 24.702 9.97319 24.7179 10.2018 24.6274C10.3254 24.5784 10.4202 24.5522 10.5135 24.5595C10.6499 24.5702 10.8156 24.6289 10.999 24.84L11.0711 24.777C10.8082 24.5215 10.4642 24.4636 10.1263 24.5263L10.1263 24.5263Z" fill="#FFC72C"/>
<path d="M9.13518 10.8758L8.81787 10.6636V10.1533L9.13518 9.94102V9.67102L9.43504 9.47403H9.67461L10.1304 9.19434H11.109L11.5649 9.47403H11.8044L12.1043 9.67102V9.94102L12.4216 10.1533L12.4216 10.6636L12.1043 10.8758V11.1458L11.8044 11.3428H11.5649L11.109 11.6225H10.1304L9.67461 11.3428H9.43504L9.13518 11.1458V10.8758Z" fill="#383739"/>
<path d="M10.1329 9.20605L9.67715 9.48572H9.43892L9.14631 9.67781V9.94758L8.8291 10.1594V10.6566L9.14631 10.8685V11.1397L9.43762 11.3318H9.67715L10.1329 11.6114H11.1065L11.5623 11.3318H11.8018L12.0944 11.1397V10.8685L12.4116 10.6566V10.1594L12.0944 9.94758V9.67781L11.8018 9.48572H11.5623L11.1065 9.20605H10.1329ZM10.1601 9.30916H11.0806L11.5364 9.58882H11.7746L11.996 9.7343V10.0041L12.3145 10.2159V10.6001L11.996 10.812V11.0818L11.7746 11.2272H11.5364L11.0806 11.5069H10.1601L9.70434 11.2272H9.46611L9.24342 11.0818V10.812L8.92621 10.6001V10.2159L9.24342 10.0041V9.7343L9.46611 9.58882H9.70434L10.1601 9.30916Z" fill="#00843D"/>
<path d="M10.6147 10.4139V9.32031H10.1623L9.70645 9.60001H9.46881L9.25382 9.74124V10.0106L8.93652 10.2228V10.4025L10.6252 10.4024V11.496H11.0775L11.5334 11.2163H11.771L11.986 11.0751V10.8058L12.3033 10.5935V10.4139L10.6147 10.4139Z" fill="#FFC72C"/>
<path d="M8.93654 10.4139L8.93652 10.5935L9.25384 10.8058V11.0751L9.46881 11.2163H9.70646L10.1623 11.496H10.6147V10.4024L12.3033 10.4025V10.2228L11.986 10.0106V9.74124L11.771 9.60001H11.5334L11.0775 9.32031H10.6252V10.4139L8.93654 10.4139Z" fill="white"/>
<path d="M9.62841 9.70052L9.5503 9.62109L9.4729 9.67316L9.55115 9.75274L9.45068 9.82065H9.66992L9.85886 10.0151L9.9193 9.94543L9.7356 9.75639V9.62807L9.62841 9.70052Z" fill="#383739"/>
<path d="M9.99853 9.66536L9.92042 9.58594L9.84302 9.638L9.92127 9.71759L9.8208 9.78549H10.04L10.229 9.97991L10.2894 9.91027L10.1057 9.72123V9.59291L9.99853 9.66536Z" fill="#383739"/>
<path d="M9.60154 9.92806L9.52343 9.84863L9.44605 9.9007L9.52428 9.98028L9.42383 10.0482H9.64306L9.83199 10.2426L9.89243 10.173L9.70873 9.98393V9.85561L9.60154 9.92806Z" fill="#383739"/>
<path d="M10.62 9.30859H10.4222L10.3187 9.41743H10.1169L9.96777 9.50186L10.0025 9.59429L10.1355 9.5181H10.1938L10.3977 9.77535L10.62 9.62762L10.62 9.30859Z" fill="#383739"/>
<path d="M9.54935 9.63477L9.61954 9.70614L9.56073 9.74589L9.49043 9.6744L9.54935 9.63477ZM9.72548 9.64797V9.76069L9.90484 9.94526L9.85879 9.99832L9.67444 9.80861H9.48779L9.72548 9.64797Z" fill="#D22630"/>
<path d="M9.91898 9.60059L9.98917 9.67196L9.93036 9.71171L9.86008 9.64022L9.91898 9.60059ZM10.0951 9.61379V9.72651L10.2745 9.91108L10.2284 9.96414L10.0441 9.77444H9.85742L10.0951 9.61379Z" fill="#D22630"/>
<path d="M9.52202 9.86328L9.5922 9.93466L9.53339 9.9744L9.4631 9.90291L9.52202 9.86328ZM9.69814 9.87648V9.9892L9.8775 10.1738L9.83146 10.2268L9.64711 10.0371H9.46045L9.69814 9.87648Z" fill="#D22630"/>
<path d="M10.6147 9.32031H10.4263L10.3228 9.42914H10.1193L9.98096 9.50748L10.0077 9.57865L10.1328 9.507H10.1984L10.3997 9.76089L10.6147 9.61806L10.6147 9.32031Z" fill="#D22630"/>
<path d="M9.62841 11.1149L9.5503 11.1943L9.4729 11.1423L9.55115 11.0627L9.45068 10.9948H9.66992L9.85886 10.8004L9.9193 10.87L9.7356 11.059V11.1874L9.62841 11.1149Z" fill="#383739"/>
<path d="M9.99853 11.1501L9.92042 11.2295L9.84302 11.1774L9.92127 11.0978L9.8208 11.0299H10.04L10.229 10.8355L10.2894 10.9052L10.1057 11.0942V11.2225L9.99853 11.1501Z" fill="#383739"/>
<path d="M9.60154 10.8874L9.52343 10.9668L9.44605 10.9147L9.52428 10.8351L9.42383 10.7672H9.64306L9.83199 10.5728L9.89243 10.6425L9.70873 10.8315V10.9598L9.60154 10.8874Z" fill="#383739"/>
<path d="M10.62 11.5068H10.4222L10.3187 11.398H10.1169L9.96777 11.3136L10.0025 11.2211L10.1355 11.2973H10.1938L10.3977 11.0401L10.62 11.1878L10.62 11.5068Z" fill="#383739"/>
<path d="M9.54935 11.1807L9.61954 11.1093L9.56073 11.0695L9.49043 11.141L9.54935 11.1807ZM9.72548 11.1675V11.0547L9.90484 10.8702L9.85879 10.8171L9.67444 11.0068H9.48779L9.72548 11.1675Z" fill="#D22630"/>
<path d="M9.91898 11.2148L9.98917 11.1435L9.93036 11.1037L9.86008 11.1752L9.91898 11.2148ZM10.0951 11.2016V11.0889L10.2745 10.9043L10.2284 10.8513L10.0441 11.041H9.85742L10.0951 11.2016Z" fill="#D22630"/>
<path d="M9.52202 10.9521L9.5922 10.8808L9.53339 10.841L9.4631 10.9125L9.52202 10.9521ZM9.69814 10.9389V10.8262L9.8775 10.6417L9.83146 10.5886L9.64711 10.7783H9.46045L9.69814 10.9389Z" fill="#D22630"/>
<path d="M10.6147 11.4951H10.4263L10.3228 11.3863H10.1193L9.98096 11.3079L10.0077 11.2368L10.1328 11.3084H10.1984L10.3997 11.0545L10.6147 11.1974L10.6147 11.4951Z" fill="#D22630"/>
<path d="M9.49694 10.059L9.40261 10.0205L9.40036 10.0222L9.27856 10.1144V10.1392L9.0835 10.4083L9.27856 10.6774V10.7022L9.40261 10.7961L9.49694 10.7576L9.43937 10.7161V10.6369L9.46225 10.6071H9.56446V10.2095H9.46225L9.43937 10.1797V10.1005L9.49694 10.059Z" fill="#383739"/>
<path d="M9.28887 10.1203L9.40392 10.0332L9.47388 10.0617L9.42873 10.0943V10.1837L9.45719 10.2208H9.55381V10.5956H9.45719L9.42873 10.6327V10.7221L9.47388 10.7547L9.40392 10.7832L9.28887 10.6961L9.28889 10.6733L9.09668 10.4082L9.28889 10.1431L9.28887 10.1203Z" fill="#D22630"/>
<path d="M11.6113 9.70052L11.6894 9.62109L11.7668 9.67316L11.6886 9.75274L11.7891 9.82065H11.5698L11.3809 10.0151L11.3204 9.94543L11.5041 9.75639V9.62807L11.6113 9.70052Z" fill="#383739"/>
<path d="M11.2412 9.66536L11.3193 9.58594L11.3967 9.638L11.3185 9.71759L11.4189 9.78549H11.1997L11.0108 9.97991L10.9503 9.91027L11.134 9.72123V9.59291L11.2412 9.66536Z" fill="#383739"/>
<path d="M11.6382 9.92806L11.7163 9.84863L11.7937 9.9007L11.7155 9.98028L11.8159 10.0482H11.5967L11.4078 10.2426L11.3473 10.173L11.531 9.98393V9.85561L11.6382 9.92806Z" fill="#383739"/>
<path d="M10.6197 9.30859H10.8175L10.9211 9.41743H11.1229L11.272 9.50186L11.2372 9.59429L11.1042 9.5181H11.046L10.8421 9.77535L10.6197 9.62762L10.6197 9.30859Z" fill="#383739"/>
<path d="M11.6904 9.63477L11.6202 9.70614L11.679 9.74589L11.7493 9.6744L11.6904 9.63477ZM11.5143 9.64797V9.76069L11.3349 9.94526L11.381 9.99832L11.5653 9.80861H11.752L11.5143 9.64797Z" fill="#D22630"/>
<path d="M11.3208 9.60059L11.2506 9.67196L11.3094 9.71171L11.3797 9.64022L11.3208 9.60059ZM11.1446 9.61379V9.72651L10.9653 9.91108L11.0113 9.96414L11.1957 9.77444H11.3823L11.1446 9.61379Z" fill="#D22630"/>
<path d="M11.7177 9.86328L11.6475 9.93466L11.7064 9.9744L11.7766 9.90291L11.7177 9.86328ZM11.5416 9.87648V9.9892L11.3623 10.1738L11.4083 10.2268L11.5926 10.0371H11.7793L11.5416 9.87648Z" fill="#D22630"/>
<path d="M10.6251 9.32031H10.8134L10.917 9.42914H11.1204L11.2588 9.50748L11.232 9.57865L11.1069 9.507H11.0413L10.8401 9.76089L10.6251 9.61806L10.6251 9.32031Z" fill="#D22630"/>
<path d="M11.6113 11.1149L11.6894 11.1943L11.7668 11.1423L11.6886 11.0627L11.7891 10.9948H11.5698L11.3809 10.8004L11.3204 10.87L11.5041 11.059V11.1874L11.6113 11.1149Z" fill="#383739"/>
<path d="M11.2412 11.1501L11.3193 11.2295L11.3967 11.1774L11.3185 11.0978L11.4189 11.0299H11.1997L11.0108 10.8355L10.9503 10.9052L11.134 11.0942V11.2225L11.2412 11.1501Z" fill="#383739"/>
<path d="M11.6382 10.8874L11.7163 10.9668L11.7937 10.9147L11.7155 10.8351L11.8159 10.7672H11.5967L11.4078 10.5728L11.3473 10.6425L11.531 10.8315V10.9598L11.6382 10.8874Z" fill="#383739"/>
<path d="M10.6197 11.5068H10.8175L10.9211 11.398H11.1229L11.272 11.3136L11.2372 11.2211L11.1042 11.2973H11.046L10.8421 11.0401L10.6197 11.1878L10.6197 11.5068Z" fill="#383739"/>
<path d="M11.6904 11.1807L11.6202 11.1093L11.679 11.0695L11.7493 11.141L11.6904 11.1807ZM11.5143 11.1675V11.0547L11.3349 10.8702L11.381 10.8171L11.5653 11.0068H11.752L11.5143 11.1675Z" fill="#D22630"/>
<path d="M11.3208 11.2148L11.2506 11.1435L11.3094 11.1037L11.3797 11.1752L11.3208 11.2148ZM11.1446 11.2016V11.0889L10.9653 10.9043L11.0113 10.8513L11.1957 11.041H11.3823L11.1446 11.2016Z" fill="#D22630"/>
<path d="M11.7177 10.9521L11.6475 10.8808L11.7064 10.841L11.7766 10.9125L11.7177 10.9521ZM11.5416 10.9389V10.8262L11.3623 10.6417L11.4083 10.5886L11.5926 10.7783H11.7793L11.5416 10.9389Z" fill="#D22630"/>
<path d="M10.6251 11.4951H10.8134L10.917 11.3863H11.1204L11.2588 11.3079L11.232 11.2368L11.1069 11.3084H11.0413L10.8401 11.0545L10.6251 11.1974L10.6251 11.4951Z" fill="#D22630"/>
<path d="M11.7428 10.059L11.8371 10.0205L11.8394 10.0222L11.9612 10.1144V10.1392L12.1562 10.4083L11.9612 10.6774V10.7022L11.8371 10.7961L11.7428 10.7576L11.8004 10.7161V10.6369L11.7775 10.6071H11.6753V10.2095H11.7775L11.8004 10.1797V10.1005L11.7428 10.059Z" fill="#383739"/>
<path d="M11.9509 10.1203L11.8358 10.0332L11.7659 10.0617L11.811 10.0943V10.1837L11.7826 10.2208H11.6859V10.5956H11.7826L11.811 10.6327V10.7221L11.7659 10.7547L11.8358 10.7832L11.9509 10.6961L11.9509 10.6733L12.1431 10.4082L11.9509 10.1431L11.9509 10.1203Z" fill="#D22630"/>
<path d="M9.32964 10.6337L9.27653 10.5836V10.5595L9.1626 10.4079L9.27654 10.2562V10.2321L9.32965 10.182L9.42504 10.2666L9.36998 10.2661L9.45134 10.3562H9.63724L9.78344 10.2315V9.90258H10.1491L10.5738 9.61829V9.54373L10.5088 9.49651H10.4882L10.4175 9.54815L10.4066 9.58666L10.3512 9.50426L10.4588 9.40571H10.4759L10.5973 9.30859H10.643L10.7643 9.40571H10.7815L10.8891 9.50426L10.8337 9.58666L10.8228 9.54815L10.7521 9.49651H10.7315L10.6665 9.54373V9.61829L11.0912 9.90258H11.4569V10.2315L11.6031 10.3562H11.789L11.8703 10.2661L11.8153 10.2666L11.9106 10.182L11.9638 10.2321V10.2562L12.0777 10.4079L11.9638 10.5595V10.5836L11.9106 10.6337L11.8153 10.5491L11.8703 10.5496L11.789 10.4595H11.6031L11.4569 10.5842V10.9131H11.0912L10.6665 11.1974V11.272L10.7315 11.3192H10.7521L10.8228 11.2676L10.8337 11.2291L10.8891 11.3114L10.7815 11.41H10.7643L10.643 11.5071H10.5973L10.4759 11.41H10.4588L10.3512 11.3114L10.4066 11.2291L10.4175 11.2676L10.4882 11.3192H10.5088L10.5738 11.272V11.1974L10.1491 10.9131H9.78344V10.5842L9.63723 10.4595H9.45134L9.36998 10.5496L9.42504 10.5491L9.32964 10.6337Z" fill="#383739"/>
<path d="M10.6252 11.3284L10.6716 11.3671L10.6252 11.4059V11.3284ZM10.4774 11.3989H10.4791L10.6005 11.496H10.6146V11.4202L10.551 11.3671L10.6146 11.314V11.1717L10.1602 10.8675H9.82434V10.5618L9.6509 10.4139H9.38931L9.32356 10.495L9.25781 10.4139L9.18018 10.4139L9.28674 10.5557V10.5787L9.32895 10.6187L9.39677 10.5611L9.35697 10.5614V10.547L9.44567 10.4484H9.64059L9.79367 10.579V10.902H10.1518L10.584 11.1914V11.2784L10.5117 11.3309H10.4848L10.4083 11.2751L10.4025 11.2544L10.3652 11.3099L10.4623 11.3989L10.4774 11.3989ZM9.32362 10.3386L9.37539 10.4025H9.27183L9.32362 10.3386ZM10.6147 9.41042L10.5682 9.44919L10.6147 9.48794V9.41042ZM11.8644 10.4139L11.9162 10.4777L11.968 10.4139H11.8644ZM10.7607 9.41743L10.6393 9.32031H10.6252V9.39606L10.6888 9.44919L10.6252 9.50233V9.64463L11.0796 9.94884H11.4155V10.2545L11.5889 10.4025H11.8504L11.9162 10.3214L11.982 10.4025H12.0596L11.9531 10.2607V10.2376L11.9108 10.1976L11.843 10.2552L11.8828 10.2549V10.2693L11.7941 10.3679H11.5992L11.4461 10.2373V9.9143H11.088L10.6558 9.62498V9.53793L10.7281 9.48542H10.755L10.8315 9.54122L10.8373 9.56193L10.8746 9.50644L10.7775 9.41743L10.7607 9.41743Z" fill="#FFC72C"/>
<path d="M10.6146 11.4059L10.5682 11.3671L10.6146 11.3284V11.4059ZM9.37536 10.4139L9.32359 10.4777L9.27181 10.4139H9.37536ZM10.7624 11.3989H10.7606L10.6393 11.496H10.6251V11.4762V11.4203L10.6888 11.3671L10.6251 11.314V11.1717L11.0795 10.8675H11.4154V10.5618L11.5889 10.4139H11.8504L11.9162 10.495L11.9819 10.4139L12.0596 10.4139L11.953 10.5557V10.5787L11.9108 10.6187L11.843 10.5611L11.8828 10.5614V10.547L11.7941 10.4484H11.5992L11.4461 10.579V10.902H11.088L10.6558 11.1914V11.2784L10.7281 11.3309H10.755L10.8314 11.2751L10.8373 11.2544L10.8746 11.3099L10.7774 11.3989L10.7624 11.3989ZM11.9162 10.3386L11.8644 10.4025H11.968L11.9162 10.3386ZM10.4791 9.41743L10.6005 9.32031H10.6146V9.39606L10.551 9.44919L10.6146 9.50233L10.6147 9.64463L10.1602 9.94884H9.82435V10.2545L9.6509 10.4025H9.38928L9.32353 10.3214L9.25776 10.4025H9.18018L9.28676 10.2607V10.2376L9.32897 10.1976L9.39677 10.2552L9.35697 10.2549V10.2693L9.44569 10.3679H9.64059L9.79367 10.2373V9.9143H10.1518L10.584 9.62498V9.53793L10.5117 9.48542H10.4848L10.4083 9.54122L10.4025 9.56193L10.3652 9.50644L10.4623 9.41743L10.4791 9.41743ZM10.6251 9.48796L10.6716 9.44919L10.6251 9.41042V9.48796Z" fill="white"/>
<path d="M10.6147 10.4141V9.6582L10.1633 9.96044H9.83488V10.2603L9.66797 10.4027L10.6252 10.4026V11.1585L11.0766 10.8563H11.405V10.5565L11.572 10.4141L10.6147 10.4141Z" fill="#00843D"/>
<path d="M9.66797 10.4141L9.83489 10.5565V10.8563H10.1633L10.6147 11.1585V10.4026L11.572 10.4026L11.4051 10.2602V9.96043H11.0767L10.6252 9.6582V10.4141L9.66797 10.4141Z" fill="#D22630"/>
<path d="M10.1338 10.0413L10.0557 9.96191L9.97827 10.014L10.0565 10.0935L9.95605 10.1615H10.1753L10.3642 10.3559L10.4247 10.2862L10.241 10.0972V9.96889L10.1338 10.0413Z" fill="#383739"/>
<path d="M11.1058 10.7745L11.1839 10.8539L11.2613 10.8019L11.1831 10.7223L11.2836 10.6544H11.0643L10.8754 10.46L10.8149 10.5296L10.9986 10.7186V10.847L11.1058 10.7745Z" fill="#383739"/>
<path d="M10.1338 10.7745L10.0557 10.8539L9.97827 10.8019L10.0565 10.7223L9.95605 10.6544H10.1753L10.3642 10.46L10.4247 10.5296L10.241 10.7186V10.847L10.1338 10.7745Z" fill="#383739"/>
<path d="M11.1058 10.0413L11.1839 9.96191L11.2613 10.014L11.1831 10.0935L11.2836 10.1615H11.0643L10.8754 10.3559L10.8149 10.2862L10.9986 10.0972V9.96889L11.1058 10.0413Z" fill="#383739"/>
<path d="M11.1853 10.8401L11.1151 10.7687L11.1739 10.7289L11.2442 10.8004L11.1853 10.8401ZM11.0092 10.8269V10.7142L10.8298 10.5296L10.8759 10.4765L11.0602 10.6662H11.2469L11.0092 10.8269ZM10.0547 9.97656L10.1249 10.0479L10.0661 10.0877L9.9958 10.0162L10.0547 9.97656ZM10.2309 9.98978V10.1025L10.4102 10.2871L10.3642 10.3401L10.1798 10.1504H9.99316L10.2309 9.98978Z" fill="#D22630"/>
<path d="M11.1853 9.97656L11.1151 10.0479L11.174 10.0877L11.2442 10.0162L11.1853 9.97656ZM11.0092 9.98978V10.1025L10.8299 10.2871L10.8759 10.3401L11.0603 10.1504H11.2469L11.0092 9.98978ZM10.0547 10.8401L10.1249 10.7687L10.0661 10.7289L9.99582 10.8004L10.0547 10.8401ZM10.2309 10.8269V10.7142L10.4102 10.5296L10.3642 10.4765L10.1798 10.6662H9.99316L10.2309 10.8269Z" fill="#00843D"/>
<path d="M11.1052 10.4086L10.6197 10.7616L10.1343 10.4086L10.6197 10.0557L11.1052 10.4086Z" fill="#383739"/>
<path d="M10.6146 10.0732L10.1611 10.403H11.0786L10.6251 10.0732V10.7441L11.0786 10.4144H10.1611L10.6146 10.7441V10.0732Z" fill="white"/>
<path d="M10.7499 10.5292V10.6263H10.4903V10.5292H10.3223V10.2865H10.4903V10.1895H10.7499V10.2865H10.9179V10.5292H10.7499Z" fill="#383739"/>
<path d="M10.5005 10.2012V10.2982H10.3325V10.4025H10.6146V10.2012L10.5005 10.2012ZM10.6251 10.4025H10.9072V10.2982H10.7392V10.2012H10.6251L10.6251 10.4025ZM10.3325 10.4139V10.5181H10.5005V10.6152H10.6146V10.4139L10.3325 10.4139ZM10.6251 10.6152H10.7392V10.5181H10.9072V10.4139H10.6251V10.6152Z" fill="#D22630"/>
<path d="M11.4482 14.4293V14.2738H11.8391V14.1183H12.2299V12.7135H11.8391V12.558H11.4482V12.4025H11.0574V12.2471H10.1827V12.4025H9.79191V12.558H9.40108V12.7135H9.01025V14.1183H9.40108V14.2738H9.79191V14.4293H10.1827V14.5847H11.0574V14.4293H11.4482Z" fill="#383739"/>
<path d="M10.1935 12.2588V12.4142H9.80252V12.5695H9.41152V12.7249H9.02051V14.1077H9.41152V14.263H9.80252V14.4184H10.1935V14.5737H11.0467V14.4184H11.4378V14.263H11.8288V14.1077H12.2198V12.7249H11.8288V12.5695H11.4378V12.4142H11.0467V12.2588H10.1935ZM10.2971 12.3718H10.9432V12.5271H11.3342V12.6825H11.7252V12.8379H12.1162V13.9947H11.7252V14.1501H11.3342V14.3054H10.9432V14.4607H10.2971V14.3054H9.9061V14.1501H9.5151V13.9947H9.12409V12.8379H9.5151V12.6825H9.9061V12.5271H10.2971V12.3718Z" fill="#FFC72C"/>
<path d="M9.91643 14.2935V14.138H9.5256V13.9826H9.13477V12.8492H9.5256V12.6937H9.91643V12.5383H10.3072V12.3828H10.933V12.5383H11.3239V12.6937H11.7147V12.8492H12.1055V13.9826H11.7147V14.138H11.3239V14.2935H10.933V14.449H10.3072V14.2935H9.91643Z" fill="#D22630"/>
<path d="M10.0071 12.6542L9.90586 12.5707V12.731L9.80893 12.7982L9.80868 12.6979L9.71571 12.789L9.62274 12.6979L9.62249 12.7982L9.51507 12.7237V12.8723L9.42826 12.9409L9.42801 12.8498L9.32488 12.9313L9.22174 12.8498L9.2215 12.9409L9.12421 12.8641V13.3143H9.01025V13.5192H9.12421V13.9693L9.2215 13.8925L9.22174 13.9836L9.32488 13.9021L9.428 13.9836L9.42825 13.8925L9.51506 13.9611V14.1097L9.62248 14.0352L9.62273 14.1355L9.7157 14.0444L9.80867 14.1355L9.80892 14.0352L9.90585 14.1024V14.2627L10.0071 14.1792L10.0073 14.2912L10.1065 14.1944L10.2057 14.2912L10.2059 14.1792L10.2967 14.2541V14.425L10.4324 14.2901V14.4487L10.6201 14.317L10.8078 14.4487V14.2901L10.9435 14.425V14.2541L11.0342 14.1792L11.0344 14.2912L11.1336 14.1944L11.2329 14.2912L11.2331 14.1792L11.3343 14.2627V14.1024L11.4312 14.0352L11.4315 14.1355L11.5245 14.0444L11.6174 14.1355L11.6177 14.0352L11.7251 14.1097V13.9611L11.8119 13.8925L11.8122 13.9836L11.9153 13.9021L12.0184 13.9836L12.0187 13.8925L12.116 13.9693V13.5192H12.2299V13.3143H12.116V12.8641L12.0187 12.9409L12.0184 12.8498L11.9153 12.9313L11.8122 12.8498L11.8119 12.9409L11.7251 12.8723V12.7237L11.6177 12.7982L11.6175 12.6979L11.5245 12.789L11.4315 12.6979L11.4313 12.7982L11.3343 12.731V12.5707L11.2331 12.6542L11.2329 12.5422L11.1337 12.639L11.0344 12.5422L11.0342 12.6542L10.9435 12.5793V12.4084L10.8078 12.5433V12.3848L10.6201 12.5164L10.4324 12.3848V12.5433L10.2967 12.4084V12.5793L10.206 12.6542L10.2057 12.5422L10.1065 12.639L10.0073 12.5422L10.0071 12.6542Z" fill="#383739"/>
<path d="M9.23171 12.9632L9.23195 12.8721L9.32466 12.9453L9.32778 12.9429L9.41737 12.8721L9.41761 12.9632L9.51485 12.8864V13.9469L9.41761 13.8701L9.41737 13.9613L9.32466 13.888L9.23195 13.9613L9.23171 13.8701L9.13447 13.9469V13.5077H9.02051V13.3256H9.13447V12.8864L9.23171 12.9632Z" fill="#00843D"/>
<path d="M10.0174 12.5674L10.1062 12.654L10.195 12.5674L10.1952 12.6768L10.2964 12.5933V14.2394L10.1952 14.156L10.195 14.2654L10.1062 14.1787L10.0174 14.2654L10.0172 14.156L9.91602 14.2394V12.5933L10.0172 12.6768L10.0174 12.5674Z" fill="#00843D"/>
<path d="M11.2223 12.5674L11.1335 12.654L11.0447 12.5674L11.0445 12.6768L10.9434 12.5933V14.2394L11.0445 14.156L11.0447 14.2654L11.1335 14.1787L11.2223 14.2654L11.2225 14.156L11.3237 14.2394V12.5933L11.2225 12.6768L11.2223 12.5674Z" fill="#00843D"/>
<path d="M12.0082 12.9632L12.008 12.8721L11.9153 12.9453L11.9122 12.9429L11.8226 12.8721L11.8223 12.9632L11.7251 12.8864V13.9469L11.8223 13.8701L11.8226 13.9613L11.9153 13.888L12.008 13.9613L12.0082 13.8701L12.1055 13.9469V13.5077H12.2194V13.3256H12.1055V12.8864L12.0082 12.9632Z" fill="#00843D"/>
<path d="M9.63301 12.7227L9.71557 12.8036L9.79813 12.7227L9.79837 12.8182L9.90575 12.7438V14.0881L9.79837 14.0137L9.79813 14.1092L9.71557 14.0283L9.63301 14.1092L9.63277 14.0137L9.52539 14.0881V12.7438L9.63277 12.8182L9.63301 12.7227Z" fill="#FFC72C"/>
<path d="M10.4428 12.5688L10.3071 12.4338V14.3987L10.4428 14.2638V14.4273L10.62 14.303H10.62L10.7972 14.4273V14.2638L10.9329 14.3987V12.4338L10.7972 12.5688V12.4053L10.62 12.5295H10.62L10.4428 12.4053V12.5688Z" fill="#FFC72C"/>
<path d="M11.6067 12.7227L11.5242 12.8036L11.4416 12.7227L11.4414 12.8182L11.334 12.7438V14.0881L11.4414 14.0137L11.4416 14.1092L11.5242 14.0283L11.6067 14.1092L11.607 14.0137L11.7143 14.0881V12.7438L11.607 12.8182L11.6067 12.7227Z" fill="#FFC72C"/>
<path d="M9.28269 13.2234C9.29455 13.2364 9.30873 13.243 9.32484 13.243C9.34093 13.243 9.35511 13.2364 9.36699 13.2234C9.40411 13.1826 9.40536 13.1088 9.40499 13.0557C9.40499 13.0557 9.36208 13.1051 9.35433 13.1141C9.34894 13.1039 9.32484 13.0585 9.32484 13.0585C9.32484 13.0585 9.30074 13.1039 9.29533 13.1141C9.28759 13.1051 9.24467 13.0557 9.24467 13.0557C9.2443 13.1088 9.24556 13.1826 9.28269 13.2234Z" fill="#383739"/>
<path d="M9.69048 13.1091L9.65921 13.075V13.0071L9.5874 13.0797L9.71576 13.2197L9.84413 13.0797L9.77232 13.0071V13.075L9.74106 13.1091V12.9888L9.79643 12.9369L9.71576 12.8613L9.6351 12.9369L9.69048 12.9888V13.1091Z" fill="#383739"/>
<path d="M10.0811 12.9743L10.0498 12.9402V12.8723L9.97803 12.9449L10.1064 13.0849L10.2348 12.9449L10.1629 12.8723V12.9402L10.1317 12.9743V12.854L10.1871 12.8021L10.1064 12.7266L10.0257 12.8021L10.0811 12.854V12.9743Z" fill="#383739"/>
<path d="M9.32509 13.0811C9.3315 13.0931 9.35254 13.1328 9.35254 13.1328C9.35254 13.1328 9.3822 13.0986 9.39431 13.0846C9.39286 13.1446 9.38079 13.192 9.3598 13.215C9.34996 13.2259 9.33829 13.2313 9.32509 13.2313C9.31187 13.2313 9.3002 13.2259 9.29037 13.2151C9.26938 13.192 9.25731 13.1446 9.25586 13.0846C9.26796 13.0986 9.29762 13.1328 9.29762 13.1328C9.30677 13.1155 9.31593 13.0983 9.32509 13.0811Z" fill="white"/>
<path d="M10.1212 12.8483V13.0015L10.1735 12.9445V12.8981L10.2197 12.9448L10.1064 13.0684L9.99316 12.9448L10.0394 12.8981V12.9445L10.0916 13.0015V12.8483L10.0418 12.8017L10.1064 12.7412L10.171 12.8017L10.1212 12.8483Z" fill="white"/>
<path d="M9.73062 12.9841V13.1372L9.78284 13.0802V13.0338L9.82907 13.0805L9.7158 13.2041L9.60254 13.0805L9.64877 13.0338V13.0802L9.70098 13.1372V12.9841L9.65122 12.9374L9.7158 12.877L9.78039 12.9374L9.73062 12.9841Z" fill="#D22630"/>
<path d="M11.9575 13.2234C11.9457 13.2364 11.9315 13.243 11.9154 13.243C11.8993 13.243 11.8851 13.2364 11.8732 13.2234C11.8361 13.1826 11.8349 13.1088 11.8352 13.0557C11.8352 13.0557 11.8782 13.1051 11.8859 13.1141C11.8913 13.1039 11.9154 13.0585 11.9154 13.0585C11.9154 13.0585 11.9395 13.1039 11.9449 13.1141C11.9526 13.1051 11.9956 13.0557 11.9956 13.0557C11.9959 13.1088 11.9947 13.1826 11.9575 13.2234Z" fill="#383739"/>
<path d="M11.5498 13.1091L11.581 13.075V13.0071L11.6528 13.0797L11.5245 13.2197L11.3961 13.0797L11.4679 13.0071V13.075L11.4992 13.1091V12.9888L11.4438 12.9369L11.5245 12.8613L11.6051 12.9369L11.5498 12.9888V13.1091Z" fill="#383739"/>
<path d="M11.1591 12.9743L11.1904 12.9402V12.8723L11.2622 12.9449L11.1338 13.0849L11.0055 12.9449L11.0773 12.8723V12.9402L11.1086 12.9743V12.854L11.0532 12.8021L11.1338 12.7266L11.2145 12.8021L11.1591 12.854V12.9743Z" fill="#383739"/>
<path d="M11.9151 13.0811C11.9087 13.0931 11.8877 13.1328 11.8877 13.1328C11.8877 13.1328 11.858 13.0986 11.8459 13.0846C11.8474 13.1446 11.8594 13.192 11.8804 13.215C11.8903 13.2259 11.9019 13.2313 11.9151 13.2313C11.9284 13.2313 11.94 13.2259 11.9499 13.2151C11.9709 13.192 11.9829 13.1446 11.9844 13.0846C11.9723 13.0986 11.9426 13.1328 11.9426 13.1328C11.9335 13.1155 11.9243 13.0983 11.9151 13.0811Z" fill="white"/>
<path d="M11.119 12.8483V13.0015L11.0668 12.9445V12.8981L11.0205 12.9448L11.1338 13.0684L11.2471 12.9448L11.2008 12.8981V12.9445L11.1486 13.0015V12.8483L11.1984 12.8017L11.1338 12.7412L11.0692 12.8017L11.119 12.8483Z" fill="white"/>
<path d="M11.5096 12.9841V13.1372L11.4574 13.0802V13.0338L11.4112 13.0805L11.5244 13.2041L11.6377 13.0805L11.5915 13.0338V13.0802L11.5393 13.1372V12.9841L11.589 12.9374L11.5244 12.877L11.4598 12.9374L11.5096 12.9841Z" fill="#D22630"/>
<path d="M10.7735 13.0255L10.7314 12.9621L10.8392 12.8535L10.7387 12.7634V12.8272L10.6967 12.8665V12.7507L10.7916 12.6743L10.6198 12.5361L10.448 12.6743L10.543 12.7507V12.8665L10.5009 12.8272V12.7634L10.4004 12.8535L10.5082 12.9621L10.4662 13.0255H10.7735Z" fill="#383739"/>
<path d="M10.4869 13.0145L10.5223 12.961L10.4165 12.8544L10.4906 12.788V12.8329L10.5536 12.8917V12.7453L10.4658 12.6747L10.62 12.5508L10.7741 12.6747L10.6863 12.7453V12.8917L10.7493 12.8329V12.788L10.8235 12.8544L10.7176 12.961L10.7531 13.0145H10.4869Z" fill="#D22630"/>
<path d="M10.5415 12.6745L10.62 12.7376L10.6985 12.6745L10.62 12.6113L10.6169 12.6138L10.5415 12.6745Z" fill="#383739"/>
<path d="M10.6199 12.625C10.6251 12.6292 10.6716 12.6666 10.6808 12.6739C10.6716 12.6813 10.6251 12.7187 10.6199 12.7229C10.6148 12.7187 10.5682 12.6813 10.5591 12.6739C10.5682 12.6666 10.6148 12.6292 10.6199 12.625Z" fill="#00843D"/>
<path d="M9.28269 13.6096C9.29455 13.5966 9.30873 13.59 9.32484 13.59C9.34093 13.59 9.35511 13.5966 9.36699 13.6096C9.40411 13.6504 9.40536 13.7242 9.40499 13.7773C9.40499 13.7773 9.36208 13.7279 9.35433 13.7189C9.34894 13.7291 9.32484 13.7745 9.32484 13.7745C9.32484 13.7745 9.30074 13.7291 9.29533 13.7189C9.28759 13.7279 9.24467 13.7773 9.24467 13.7773C9.2443 13.7242 9.24556 13.6504 9.28269 13.6096Z" fill="#383739"/>
<path d="M9.69048 13.724L9.65921 13.758V13.8259L9.5874 13.7533L9.71576 13.6133L9.84413 13.7533L9.77232 13.8259V13.758L9.74106 13.724V13.8443L9.79643 13.8961L9.71576 13.9717L9.6351 13.8961L9.69048 13.8443V13.724Z" fill="#383739"/>
<path d="M10.0811 13.8587L10.0498 13.8928V13.9607L9.97803 13.8881L10.1064 13.7481L10.2348 13.8881L10.1629 13.9607V13.8928L10.1317 13.8587V13.979L10.1871 14.0309L10.1064 14.1064L10.0257 14.0309L10.0811 13.979V13.8587Z" fill="#383739"/>
<path d="M9.32509 13.752C9.3315 13.7399 9.35254 13.7002 9.35254 13.7002C9.35254 13.7002 9.3822 13.7344 9.39431 13.7484C9.39286 13.6884 9.38079 13.641 9.3598 13.618C9.34996 13.6072 9.33829 13.6017 9.32509 13.6017C9.31187 13.6017 9.3002 13.6072 9.29037 13.618C9.26938 13.641 9.25731 13.6884 9.25586 13.7484C9.26796 13.7344 9.29762 13.7002 9.29762 13.7002C9.30677 13.7175 9.31593 13.7347 9.32509 13.752Z" fill="white"/>
<path d="M10.1212 13.9847V13.8315L10.1735 13.8885V13.9349L10.2197 13.8882L10.1064 13.7646L9.99316 13.8882L10.0394 13.9349V13.8885L10.0916 13.8315V13.9847L10.0418 14.0313L10.1064 14.0918L10.171 14.0313L10.1212 13.9847Z" fill="white"/>
<path d="M9.73062 13.849V13.6958L9.78284 13.7528V13.7992L9.82907 13.7525L9.7158 13.6289L9.60254 13.7525L9.64877 13.7992V13.7528L9.70098 13.6958V13.849L9.65122 13.8956L9.7158 13.9561L9.78039 13.8956L9.73062 13.849Z" fill="#D22630"/>
<path d="M11.9575 13.6096C11.9457 13.5966 11.9315 13.59 11.9154 13.59C11.8993 13.59 11.8851 13.5966 11.8732 13.6096C11.8361 13.6504 11.8349 13.7242 11.8352 13.7773C11.8352 13.7773 11.8782 13.7279 11.8859 13.7189C11.8913 13.7291 11.9154 13.7745 11.9154 13.7745C11.9154 13.7745 11.9395 13.7291 11.9449 13.7189C11.9526 13.7279 11.9956 13.7773 11.9956 13.7773C11.9959 13.7242 11.9947 13.6504 11.9575 13.6096Z" fill="#383739"/>
<path d="M11.5498 13.724L11.581 13.758V13.8259L11.6528 13.7533L11.5245 13.6133L11.3961 13.7533L11.4679 13.8259V13.758L11.4992 13.724V13.8443L11.4438 13.8961L11.5245 13.9717L11.6051 13.8961L11.5498 13.8443V13.724Z" fill="#383739"/>
<path d="M11.1591 13.8587L11.1904 13.8928V13.9607L11.2622 13.8881L11.1338 13.7481L11.0055 13.8881L11.0773 13.9607V13.8928L11.1086 13.8587V13.979L11.0532 14.0309L11.1338 14.1064L11.2145 14.0309L11.1591 13.979V13.8587Z" fill="#383739"/>
<path d="M11.9151 13.752C11.9087 13.7399 11.8877 13.7002 11.8877 13.7002C11.8877 13.7002 11.858 13.7344 11.8459 13.7484C11.8474 13.6884 11.8594 13.641 11.8804 13.618C11.8903 13.6072 11.9019 13.6017 11.9151 13.6017C11.9284 13.6017 11.94 13.6072 11.9499 13.618C11.9709 13.641 11.9829 13.6884 11.9844 13.7484C11.9723 13.7344 11.9426 13.7002 11.9426 13.7002C11.9335 13.7175 11.9243 13.7347 11.9151 13.752Z" fill="white"/>
<path d="M11.119 13.9847V13.8315L11.0668 13.8885V13.9349L11.0205 13.8882L11.1338 13.7646L11.2471 13.8882L11.2008 13.9349V13.8885L11.1486 13.8315V13.9847L11.1984 14.0313L11.1338 14.0918L11.0692 14.0313L11.119 13.9847Z" fill="white"/>
<path d="M11.5096 13.849V13.6958L11.4574 13.7528V13.7992L11.4112 13.7525L11.5244 13.6289L11.6377 13.7525L11.5915 13.7992V13.7528L11.5393 13.6958V13.849L11.589 13.8956L11.5244 13.9561L11.4598 13.8956L11.5096 13.849Z" fill="#D22630"/>
<path d="M10.7735 13.8075L10.7314 13.8709L10.8392 13.9795L10.7387 14.0696V14.0058L10.6967 13.9666V14.0823L10.7916 14.1587L10.6198 14.2969L10.448 14.1587L10.543 14.0823V13.9666L10.5009 14.0058V14.0696L10.4004 13.9795L10.5082 13.8709L10.4662 13.8075H10.7735Z" fill="#383739"/>
<path d="M10.4869 13.8185L10.5223 13.872L10.4165 13.9786L10.4906 14.045V14.0001L10.5536 13.9413V14.0877L10.4658 14.1583L10.62 14.2822L10.7741 14.1583L10.6863 14.0877V13.9413L10.7493 14.0001V14.045L10.8235 13.9786L10.7176 13.872L10.7531 13.8185H10.4869Z" fill="#D22630"/>
<path d="M10.5415 14.1585L10.62 14.0954L10.6985 14.1585L10.62 14.2217L10.6169 14.2192L10.5415 14.1585Z" fill="#383739"/>
<path d="M10.6199 14.208C10.6251 14.2038 10.6716 14.1665 10.6808 14.1591C10.6716 14.1517 10.6251 14.1143 10.6199 14.1102C10.6148 14.1143 10.5682 14.1517 10.5591 14.1591C10.5682 14.1665 10.6148 14.2038 10.6199 14.208Z" fill="#00843D"/>
<path d="M12.011 13.3508H11.839V13.276H11.3132L10.9471 13.0137H10.9456H10.2929L9.92686 13.276H9.40103V13.3508H9.229V13.4819H9.40103V13.5567H9.92686L10.2929 13.819H10.9471L11.3132 13.5567H11.839V13.4819H12.011V13.3508Z" fill="#383739"/>
<path d="M10.2958 13.0254L9.92935 13.2867H9.41146V13.3615H9.23926V13.4703H9.41146V13.5452H9.92935L10.2958 13.8079H10.9444L11.3095 13.5452H11.8287V13.4703H12.0009V13.3615H11.8287V13.2867H11.3095L10.9444 13.0254H10.2958ZM10.3035 13.0635H10.9353L11.2707 13.3036V13.3404H11.6449V13.4929H11.2707V13.5296L10.9353 13.7683H10.3035L9.96948 13.5296V13.4929H9.59401V13.3404H9.96948V13.3036L10.3035 13.0635Z" fill="#D22630"/>
<path d="M10.9327 13.0752L11.2597 13.3094V13.351H11.6345V13.4811H11.2597V13.5227L10.9327 13.7569H10.3068L9.97976 13.5227V13.4811H9.60498V13.351H9.97976V13.3094L10.3068 13.0752H10.9327Z" fill="#D22630"/>
<path d="M10.1445 13.5491L10.2861 13.665L10.3793 13.5887L10.3251 13.5444L10.2861 13.5763L10.2528 13.5491L10.7861 13.1123H10.6778L10.1445 13.5491ZM10.4536 13.7198H10.5619L11.0952 13.283L10.9536 13.167L10.8605 13.2433L10.9146 13.2877L10.9536 13.2557L10.9869 13.283L10.4536 13.7198ZM10.6778 13.7198H10.7861L10.2528 13.283L10.2861 13.2557L10.3251 13.2877L10.3793 13.2433L10.2861 13.167L10.1445 13.283L10.6778 13.7198ZM10.9869 13.5491L10.9536 13.5763L10.9146 13.5444L10.8605 13.5887L10.9536 13.665L11.0952 13.5491L10.5619 13.1123H10.4536L10.9869 13.5491Z" fill="#383739"/>
<path d="M10.0371 13.4156L10.1323 13.4846L10.2275 13.4156L10.1323 13.3467L10.0371 13.4156Z" fill="#383739"/>
<path d="M10.5244 13.4156L10.6196 13.4846L10.7148 13.4156L10.6196 13.3467L10.5244 13.4156Z" fill="#383739"/>
<path d="M11.2026 13.4156L11.1074 13.4846L11.0122 13.4156L11.1074 13.3467L11.2026 13.4156Z" fill="#383739"/>
<path d="M11.0774 13.5494L10.9533 13.651L10.8775 13.589L10.9142 13.559L10.9533 13.5909L11.004 13.5494L10.4847 13.124H10.5581L11.0774 13.5494ZM10.7543 13.7086H10.6809L10.1616 13.2833L10.2858 13.1816L10.3615 13.2436L10.3248 13.2737L10.2858 13.2417L10.235 13.2833L10.7543 13.7086ZM10.5581 13.7086H10.4847L11.004 13.2833L10.9533 13.2417L10.9142 13.2737L10.8775 13.2436L10.9533 13.1816L11.0774 13.2833L10.5581 13.7086ZM10.6809 13.124H10.7543L10.235 13.5494L10.2858 13.5909L10.3248 13.559L10.3615 13.589L10.2858 13.651L10.1616 13.5494L10.6809 13.124Z" fill="#FFC72C"/>
<path d="M10.1324 13.3604L10.2086 13.4156L10.1324 13.4708L10.0562 13.4156L10.1324 13.3604Z" fill="#00843D"/>
<path d="M10.6197 13.3604L10.6959 13.4156L10.6197 13.4708L10.5435 13.4156L10.6197 13.3604Z" fill="#00843D"/>
<path d="M11.107 13.3604L11.0308 13.4156L11.107 13.4708L11.1832 13.4156L11.107 13.3604Z" fill="#00843D"/>
<path d="M8.94605 16.3109L8.90871 16.3685L8.97564 16.4243L8.90869 16.4802L8.94603 16.5378L9.02381 16.5477L9.09912 16.4842L9.2869 16.6143V16.5062L9.16872 16.4243L9.2869 16.3424V16.2344L9.09912 16.3645L9.02381 16.301L8.94605 16.3109Z" fill="#383739"/>
<path d="M8.94605 15.9349L8.90871 15.9925L8.97564 16.0484L8.90869 16.1042L8.94603 16.1618L9.02381 16.1717L9.09912 16.1082L9.2869 16.2383V16.1303L9.16872 16.0484L9.2869 15.9665V15.8584L9.09912 15.9885L9.02381 15.9251L8.94605 15.9349Z" fill="#383739"/>
<path d="M8.94605 16.9128L8.90871 16.8552L8.97564 16.7993L8.90869 16.7435L8.94603 16.6859L9.02381 16.676L9.09912 16.7395L9.2869 16.6094V16.7174L9.16872 16.7993L9.2869 16.8812V16.9893L9.09912 16.8592L9.02381 16.9227L8.94605 16.9128Z" fill="#383739"/>
<path d="M12.294 16.3109L12.3313 16.3685L12.2644 16.4243L12.3313 16.4802L12.294 16.5378L12.2162 16.5477L12.1409 16.4842L11.9531 16.6143V16.5062L12.0713 16.4243L11.9531 16.3424V16.2344L12.1409 16.3645L12.2162 16.301L12.294 16.3109Z" fill="#383739"/>
<path d="M12.294 15.9349L12.3313 15.9925L12.2644 16.0484L12.3313 16.1042L12.294 16.1618L12.2162 16.1717L12.1409 16.1082L11.9531 16.2383V16.1303L12.0713 16.0484L11.9531 15.9665V15.8584L12.1409 15.9885L12.2162 15.9251L12.294 15.9349Z" fill="#383739"/>
<path d="M12.294 16.9128L12.3313 16.8552L12.2644 16.7993L12.3313 16.7435L12.294 16.6859L12.2162 16.676L12.1409 16.7395L11.9531 16.6094V16.7174L12.0713 16.7993L11.9531 16.8812V16.9893L12.1409 16.8592L12.2162 16.9227L12.294 16.9128Z" fill="#383739"/>
<path d="M11.5425 15.2861V15.4423H11.6466V15.5113H11.7489V15.3856H11.6577V15.2861H11.5425Z" fill="#383739"/>
<path d="M11.8491 15.5322V15.6884H11.9531V15.7574H12.0555V15.6317H11.9643V15.5322H11.8491Z" fill="#383739"/>
<path d="M9.69761 15.2861V15.4423H9.59347V15.5113H9.49121V15.3856H9.58242V15.2861H9.69761Z" fill="#383739"/>
<path d="M11.5425 17.5621V17.4059H11.6466V17.3369H11.7489V17.4626H11.6577V17.5621H11.5425Z" fill="#383739"/>
<path d="M9.69761 17.5621V17.4059H9.59347V17.3369H9.49121V17.4626H9.58242V17.5621H9.69761Z" fill="#383739"/>
<path d="M11.8491 17.316V17.1598H11.9531V17.0908H12.0555V17.2165H11.9643V17.316H11.8491Z" fill="#383739"/>
<path d="M9.39097 15.5322V15.6884H9.28693V15.7574H9.18457V15.6317H9.27578V15.5322H9.39097Z" fill="#383739"/>
<path d="M9.39097 17.316V17.1598H9.28693V17.0908H9.18457V17.2165H9.27578V17.316H9.39097Z" fill="#383739"/>
<path d="M11.0054 15.2824C10.9988 15.2754 10.926 15.1982 10.926 15.1982L10.8479 15.2771C10.8479 15.2771 10.9091 15.3419 10.9159 15.3492L10.8281 15.4422H10.9585L11.0054 15.3925L11.0523 15.4422H11.1827L11.0949 15.3492C11.1018 15.3419 11.1629 15.2771 11.1629 15.2771L11.0849 15.1982C11.0584 15.2263 11.0319 15.2543 11.0054 15.2824Z" fill="#383739"/>
<path d="M10.6202 15.2824C10.6135 15.2754 10.5407 15.1982 10.5407 15.1982L10.4627 15.2771C10.4627 15.2771 10.5238 15.3419 10.5307 15.3492L10.4429 15.4422H10.5732L10.6202 15.3925L10.6671 15.4422H10.7975L10.7096 15.3492C10.7165 15.3419 10.7777 15.2771 10.7777 15.2771L10.6996 15.1982C10.6731 15.2263 10.6466 15.2543 10.6202 15.2824Z" fill="#383739"/>
<path d="M10.2349 15.2824C10.2416 15.2754 10.3144 15.1982 10.3144 15.1982L10.3924 15.2771C10.3924 15.2771 10.3313 15.3419 10.3244 15.3492L10.4122 15.4422H10.2818L10.2349 15.3925L10.188 15.4422H10.0576L10.1454 15.3492C10.1386 15.3419 10.0774 15.2771 10.0774 15.2771L10.1555 15.1982C10.182 15.2263 10.2084 15.2543 10.2349 15.2824Z" fill="#383739"/>
<path d="M11.0054 17.566C10.9988 17.5731 10.926 17.6502 10.926 17.6502L10.8479 17.5713C10.8479 17.5713 10.9091 17.5066 10.9159 17.4993L10.8281 17.4062H10.9585L11.0054 17.4559L11.0523 17.4062H11.1827L11.0949 17.4993C11.1018 17.5066 11.1629 17.5713 11.1629 17.5713L11.0849 17.6502C11.0584 17.6222 11.0319 17.5941 11.0054 17.566Z" fill="#383739"/>
<path d="M10.6202 17.566C10.6135 17.5731 10.5407 17.6502 10.5407 17.6502L10.4627 17.5713C10.4627 17.5713 10.5238 17.5066 10.5307 17.4993L10.4429 17.4062H10.5732L10.6202 17.4559L10.6671 17.4062H10.7975L10.7096 17.4993C10.7165 17.5066 10.7777 17.5713 10.7777 17.5713L10.6996 17.6502C10.6731 17.6222 10.6466 17.5941 10.6202 17.566Z" fill="#383739"/>
<path d="M10.2349 17.566C10.2416 17.5731 10.3144 17.6502 10.3144 17.6502L10.3924 17.5713C10.3924 17.5713 10.3313 17.5066 10.3244 17.4993L10.4122 17.4062H10.2818L10.2349 17.4559L10.188 17.4062H10.0576L10.1454 17.4993C10.1386 17.5066 10.0774 17.5713 10.0774 17.5713L10.1555 17.6502C10.182 17.6222 10.2084 17.5941 10.2349 17.566Z" fill="#383739"/>
<path d="M9.2762 16.5122V16.5932L9.09829 16.4699L9.02055 16.5355L8.95166 16.5268L8.92285 16.4823L8.99266 16.4241L8.92285 16.3658L8.95167 16.3213L9.02055 16.3126L9.09829 16.3782L9.2762 16.2549V16.3359L9.14894 16.4241L9.2762 16.5122Z" fill="#00843D"/>
<path d="M9.2762 16.1362V16.2172L9.09829 16.0939L9.02055 16.1595L8.95166 16.1508L8.92285 16.1063L8.99266 16.0481L8.92285 15.9898L8.95167 15.9454L9.02055 15.9366L9.09829 16.0022L9.2762 15.8789V15.9599L9.14894 16.0481L9.2762 16.1362Z" fill="#00843D"/>
<path d="M9.2762 16.7109V16.6299L9.09829 16.7532L9.02055 16.6876L8.95166 16.6963L8.92285 16.7408L8.99266 16.799L8.92285 16.8573L8.95167 16.9017L9.02055 16.9105L9.09829 16.8449L9.2762 16.9682V16.8872L9.14894 16.799L9.2762 16.7109Z" fill="#00843D"/>
<path d="M11.9634 16.5122V16.5932L12.1413 16.4699L12.219 16.5355L12.2879 16.5268L12.3167 16.4823L12.2469 16.4241L12.3167 16.3658L12.2879 16.3213L12.219 16.3126L12.1413 16.3782L11.9634 16.2549V16.3359L12.0906 16.4241L11.9634 16.5122Z" fill="#00843D"/>
<path d="M11.9634 16.1362V16.2172L12.1413 16.0939L12.219 16.1595L12.2879 16.1508L12.3167 16.1063L12.2469 16.0481L12.3167 15.9898L12.2879 15.9454L12.219 15.9366L12.1413 16.0022L11.9634 15.8789V15.9599L12.0906 16.0481L11.9634 16.1362Z" fill="#00843D"/>
<path d="M11.9634 16.7109V16.6299L12.1413 16.7532L12.219 16.6876L12.2879 16.6963L12.3167 16.7408L12.2469 16.799L12.3167 16.8573L12.2879 16.9017L12.219 16.9105L12.1413 16.8449L11.9634 16.9682V16.8872L12.0906 16.799L11.9634 16.7109Z" fill="#00843D"/>
<path d="M11.647 15.2969V15.3964H11.7382V15.4992H11.6569V15.4302H11.5527V15.2969H11.647Z" fill="#00843D"/>
<path d="M11.9536 15.5439V15.6434H12.0448V15.7463H11.9635V15.6773H11.8594V15.5439H11.9536Z" fill="#00843D"/>
<path d="M9.59268 15.2969V15.3964H9.50146V15.4992H9.58279V15.4302H9.68691V15.2969H9.59268Z" fill="#00843D"/>
<path d="M11.647 17.5509V17.4514H11.7382V17.3486H11.6569V17.4176H11.5527V17.5509H11.647Z" fill="#00843D"/>
<path d="M9.59269 17.5509V17.4514H9.50146V17.3486H9.58279V17.4176H9.68692V17.5509H9.59269Z" fill="#00843D"/>
<path d="M11.9536 17.3039V17.2044H12.0448V17.1016H11.9635V17.1706H11.8594V17.3039H11.9536Z" fill="#00843D"/>
<path d="M9.28604 15.5439V15.6434H9.19482V15.7463H9.27615V15.6773H9.38027V15.5439H9.28604Z" fill="#00843D"/>
<path d="M9.28605 17.3039V17.2044H9.19482V17.1016H9.27615V17.1706H9.38028V17.3039H9.28605Z" fill="#00843D"/>
<path d="M10.9254 15.2139C10.9319 15.2207 11.005 15.2982 11.005 15.2982C11.005 15.2982 11.0781 15.2207 11.0846 15.2139C11.0907 15.2201 11.1405 15.2703 11.1473 15.2772C11.1402 15.2846 11.0794 15.3491 11.0794 15.3491L11.1564 15.4306H11.0562L11.005 15.3764L10.9538 15.4306H10.8535L10.9305 15.3491C10.9305 15.3491 10.8697 15.2846 10.8627 15.2772C10.8695 15.2703 10.9192 15.2201 10.9254 15.2139Z" fill="#00843D"/>
<path d="M10.5401 15.2139C10.5466 15.2207 10.6197 15.2982 10.6197 15.2982C10.6197 15.2982 10.6928 15.2207 10.6993 15.2139C10.7055 15.2201 10.7552 15.2703 10.762 15.2772C10.755 15.2846 10.6942 15.3491 10.6942 15.3491L10.7712 15.4306H10.6709L10.6197 15.3764L10.5686 15.4306H10.4683L10.5453 15.3491C10.5453 15.3491 10.4845 15.2846 10.4774 15.2772C10.4842 15.2703 10.534 15.2201 10.5401 15.2139Z" fill="#00843D"/>
<path d="M10.3146 15.2139C10.3081 15.2207 10.2349 15.2982 10.2349 15.2982C10.2349 15.2982 10.1618 15.2207 10.1553 15.2139C10.1492 15.2201 10.0995 15.2703 10.0927 15.2772C10.0997 15.2846 10.1605 15.3491 10.1605 15.3491L10.0835 15.4306H10.1838L10.2349 15.3764L10.2861 15.4306H10.3864L10.3094 15.3491C10.3094 15.3491 10.3702 15.2846 10.3772 15.2772C10.3704 15.2703 10.3207 15.2201 10.3146 15.2139Z" fill="#00843D"/>
<path d="M10.9254 17.6338C10.9319 17.6269 11.005 17.5494 11.005 17.5494C11.005 17.5494 11.0781 17.6269 11.0846 17.6338C11.0907 17.6275 11.1405 17.5773 11.1473 17.5704C11.1402 17.563 11.0794 17.4986 11.0794 17.4986L11.1564 17.417H11.0562L11.005 17.4712L10.9538 17.417H10.8535L10.9305 17.4986C10.9305 17.4986 10.8697 17.563 10.8627 17.5704C10.8695 17.5773 10.9192 17.6275 10.9254 17.6338Z" fill="#00843D"/>
<path d="M10.5401 17.6338C10.5466 17.6269 10.6197 17.5494 10.6197 17.5494C10.6197 17.5494 10.6928 17.6269 10.6993 17.6338C10.7055 17.6275 10.7552 17.5773 10.762 17.5704C10.755 17.563 10.6942 17.4986 10.6942 17.4986L10.7712 17.417H10.6709L10.6197 17.4712L10.5686 17.417H10.4683L10.5453 17.4986C10.5453 17.4986 10.4845 17.563 10.4774 17.5704C10.4842 17.5773 10.534 17.6275 10.5401 17.6338Z" fill="#00843D"/>
<path d="M10.3146 17.6338C10.3081 17.6269 10.2349 17.5494 10.2349 17.5494C10.2349 17.5494 10.1618 17.6269 10.1553 17.6338C10.1492 17.6275 10.0995 17.5773 10.0927 17.5704C10.0997 17.563 10.1605 17.4986 10.1605 17.4986L10.0835 17.417H10.1838L10.2349 17.4712L10.2861 17.417H10.3864L10.3094 17.4986C10.3094 17.4986 10.3702 17.563 10.3772 17.5704C10.3704 17.5773 10.3207 17.6275 10.3146 17.6338Z" fill="#00843D"/>
<path d="M9.58316 17.171V17.4173H11.6569V17.171H11.9637V15.6769H11.6569V15.4307H9.58316V15.6769H9.27637V17.171H9.58316Z" fill="#383739"/>
<path d="M9.59396 15.4424V15.6882H9.28711V17.1599H9.59396V17.4057H11.6461V17.1599H11.953V15.6882H11.6461V15.4424L9.59396 15.4424ZM9.72602 15.537H11.5141V15.7743L11.5878 15.8337H11.8662V17.0159H11.5866L11.514 17.0738V17.3125H9.72602V17.0752L9.65222 17.0159H9.37256V15.8337H9.65093L9.72602 15.7743L9.72602 15.537Z" fill="#FFC72C"/>
<path d="M9.73645 15.5479V15.7654L10.0058 15.5479H9.73645ZM11.2331 15.5479L11.5024 15.7654V15.5479H11.2331ZM9.38428 15.8445V16.0479L9.63805 15.8445H9.38428ZM11.6009 15.8445L11.8559 16.0493V15.8445H11.6009ZM11.8559 16.7978L11.6009 17.0041H11.8559V16.7978ZM9.38428 16.7992V17.0041H9.63805L9.38428 16.7992ZM9.73644 17.0832V17.2993H10.0044L9.73644 17.0832ZM11.5024 17.0832L11.2345 17.2993H11.5024V17.0832Z" fill="#D22630"/>
<path d="M11.2158 15.5479C11.2186 15.5501 11.8517 16.0602 11.856 16.0636V16.7839C11.8517 16.7873 11.2186 17.2975 11.2158 17.2997H10.0239C10.0212 17.2975 9.388 16.7873 9.38379 16.7839V16.0636C9.388 16.0602 10.0212 15.5501 10.0239 15.5479H11.2158Z" fill="#00843D"/>
<path d="M9.53649 16.8676L9.46289 16.7745L9.53199 16.687L9.46289 16.5995L9.53199 16.5121L9.46289 16.4246L9.53199 16.3371L9.46289 16.2496L9.53197 16.1622L9.46289 16.0747L9.53649 15.9815H11.7038L11.7774 16.0747L11.7083 16.1622L11.7774 16.2496L11.7083 16.3371L11.7774 16.4246L11.7083 16.5121L11.7774 16.5995L11.7083 16.687L11.7774 16.7745L11.7038 16.8676H9.53649ZM11.0263 15.6613L10.9409 15.5811L10.8607 15.6564L10.7805 15.5811L10.7003 15.6564L10.6201 15.5811L10.5399 15.6564L10.4598 15.5811L10.3796 15.6564L10.2994 15.5811L10.214 15.6613V17.1878L10.2994 17.2681L10.3796 17.1928L10.4598 17.2681L10.5399 17.1927L10.6201 17.2681L10.7003 17.1927L10.7805 17.2681L10.8607 17.1928L10.9409 17.2681L11.0263 17.1878V15.6613Z" fill="#383739"/>
<path d="M10.8554 15.6662L10.7805 15.5957L10.7056 15.6662V17.1822L10.7805 17.2526L10.8554 17.1822V15.6662Z" fill="#FFC72C"/>
<path d="M10.5346 15.6662L10.4597 15.5957L10.3848 15.6662V17.1822L10.4597 17.2526L10.5346 17.1822V15.6662Z" fill="#FFC72C"/>
<path d="M9.54113 16.8559L9.47656 16.7741L9.54113 16.6924H11.6988L11.7634 16.7741L11.6988 16.8559H9.54113Z" fill="#FFC72C"/>
<path d="M11.6988 16.3428L11.7634 16.4245L11.6988 16.5063H9.54114L9.47656 16.4245L9.54114 16.3428H11.6988Z" fill="#FFC72C"/>
<path d="M11.6988 16.1557L11.7634 16.0739L11.6988 15.9922H9.54113L9.47656 16.0739L9.54113 16.1557H11.6988Z" fill="#FFC72C"/>
<path d="M11.0156 15.6662L10.9407 15.5957L10.8657 15.6662V17.1822L10.9407 17.2526L11.0156 17.1822L11.0156 15.6662Z" fill="#D22630"/>
<path d="M10.374 15.6662L10.2991 15.5957L10.2241 15.6662V17.1822L10.2991 17.2526L10.374 17.1822V15.6662Z" fill="#D22630"/>
<path d="M9.54114 16.6811L9.47656 16.5993L9.54114 16.5176H11.6988L11.7634 16.5993L11.6988 16.6811H9.54114Z" fill="#D22630"/>
<path d="M9.54114 16.3305L9.47656 16.2488L9.54114 16.167H11.6988L11.7634 16.2488L11.6988 16.3305H9.54114Z" fill="#D22630"/>
<path d="M10.6948 17.1822L10.6199 17.2526L10.5449 17.1822V15.6662L10.6199 15.5957L10.6948 15.6662V17.1822Z" fill="#D22630"/>
<path d="M11.3444 15.6953H9.8904V15.8213H9.70459V17.0262H9.8904V17.1522H11.3496V17.0262H11.5354V15.8213H11.3496V15.6953H11.3444Z" fill="#383739"/>
<path d="M9.9008 15.708V15.8337H9.71436V17.0159H9.9008V17.1416H10.0536L9.74932 16.8634V15.9862L10.0536 15.708H9.9008ZM11.1865 15.708L11.4894 15.9862V16.8634L11.1865 17.1416H11.3392V17.0159H11.5244V15.8337H11.3392V15.708L11.1865 15.708Z" fill="#D22630"/>
<path d="M10.0705 15.708C10.0676 15.7106 9.76345 15.9885 9.75977 15.9919V16.8577C9.76345 16.8611 10.0676 17.139 10.0705 17.1416H11.1697C11.1726 17.139 11.4755 16.8611 11.4792 16.8577V15.9919C11.4755 15.9885 11.1726 15.7106 11.1697 15.708H10.0705ZM10.086 15.756H11.1529L11.4351 16.0145V16.8351L11.1529 17.0922H10.086L9.80508 16.8351V16.0145L10.086 15.756Z" fill="#00843D"/>
<path d="M10.3685 16.8477L10.4163 16.8702L10.4251 16.931L10.365 16.9887L10.4523 17.0808H10.3683L10.3082 17.0177L10.2481 17.0808H10.1641L10.2514 16.9887L10.1913 16.931L10.2001 16.8702L10.2478 16.8477L10.3082 16.9003L10.3114 16.8975L10.3685 16.8477Z" fill="#00843D"/>
<path d="M10.6801 16.8477L10.7278 16.8702L10.7366 16.931L10.6765 16.9887L10.7638 17.0808H10.6798L10.6197 17.0177L10.5596 17.0808H10.4756L10.5629 16.9887L10.5028 16.931L10.5116 16.8702L10.5593 16.8477L10.6197 16.9003L10.623 16.8975L10.6801 16.8477Z" fill="#00843D"/>
<path d="M10.8713 16.8477L10.8236 16.8702L10.8148 16.931L10.8749 16.9887L10.7876 17.0808H10.8716L10.9317 17.0177L10.9918 17.0808H11.0758L10.9885 16.9887L11.0486 16.931L11.0398 16.8702L10.9921 16.8477L10.9317 16.9003L10.9284 16.8975L10.8713 16.8477Z" fill="#00843D"/>
<path d="M10.3685 16.0007L10.4163 15.9782L10.4251 15.9174L10.365 15.8597L10.4523 15.7676H10.3683L10.3082 15.8306L10.2481 15.7676H10.1641L10.2514 15.8597L10.1913 15.9174L10.2001 15.9782L10.2478 16.0007L10.3082 15.9481L10.3114 15.9509L10.3685 16.0007Z" fill="#00843D"/>
<path d="M10.6801 16.0007L10.7278 15.9782L10.7366 15.9174L10.6765 15.8597L10.7638 15.7676H10.6798L10.6197 15.8306L10.5596 15.7676H10.4756L10.5629 15.8597L10.5028 15.9174L10.5116 15.9782L10.5593 16.0007L10.6197 15.9481L10.623 15.9509L10.6801 16.0007Z" fill="#00843D"/>
<path d="M10.8713 16.0007L10.8236 15.9782L10.8148 15.9174L10.8749 15.8597L10.7876 15.7676H10.8716L10.9317 15.8306L10.9918 15.7676H11.0758L10.9885 15.8597L11.0486 15.9174L11.0398 15.9782L10.9921 16.0007L10.9317 15.9481L10.9284 15.9509L10.8713 16.0007Z" fill="#00843D"/>
<path d="M11.4244 16.0977L11.3767 16.1408L11.4244 16.1838V16.2552L11.3511 16.1893C11.3511 16.1893 11.3018 16.238 11.2984 16.2413C11.2942 16.2407 11.2467 16.2342 11.242 16.2336C11.2399 16.2294 11.2251 16.1995 11.2222 16.1936C11.2271 16.1882 11.2707 16.1408 11.2707 16.1408C11.2707 16.1408 11.2271 16.0933 11.2222 16.088C11.2251 16.082 11.2399 16.0522 11.242 16.048C11.2467 16.0473 11.2942 16.0408 11.2984 16.0402C11.3018 16.0435 11.3511 16.0923 11.3511 16.0923L11.4244 16.0264V16.0977Z" fill="#00843D"/>
<path d="M11.4244 16.3819L11.3767 16.425L11.4244 16.468V16.5394L11.3511 16.4735C11.3511 16.4735 11.3018 16.5222 11.2984 16.5255C11.2942 16.5249 11.2467 16.5184 11.242 16.5177C11.2399 16.5135 11.2251 16.4837 11.2222 16.4777C11.2271 16.4724 11.2707 16.425 11.2707 16.425C11.2707 16.425 11.2271 16.3775 11.2222 16.3721C11.2251 16.3662 11.2399 16.3364 11.242 16.3321C11.2467 16.3315 11.2942 16.325 11.2984 16.3244C11.3018 16.3277 11.3511 16.3764 11.3511 16.3764L11.4244 16.3105V16.3819Z" fill="#00843D"/>
<path d="M11.4244 16.7512L11.3767 16.7082L11.4244 16.6651V16.5938L11.3511 16.6597C11.3511 16.6597 11.3018 16.6109 11.2984 16.6076C11.2942 16.6082 11.2467 16.6147 11.242 16.6154C11.2399 16.6196 11.2251 16.6494 11.2222 16.6554C11.2271 16.6607 11.2707 16.7082 11.2707 16.7082C11.2707 16.7082 11.2271 16.7556 11.2222 16.761C11.2251 16.7669 11.2399 16.7968 11.242 16.801C11.2467 16.8016 11.2942 16.8081 11.2984 16.8087C11.3018 16.8054 11.3511 16.7567 11.3511 16.7567L11.4244 16.8226V16.7512Z" fill="#00843D"/>
<path d="M9.81543 16.0977L9.86308 16.1408L9.81543 16.1838V16.2552L9.88873 16.1893C9.88873 16.1893 9.93803 16.238 9.94134 16.2413C9.94555 16.2407 9.99306 16.2342 9.99775 16.2336C9.99985 16.2294 10.0147 16.1995 10.0176 16.1936C10.0127 16.1882 9.96908 16.1408 9.96908 16.1408C9.96908 16.1408 10.0127 16.0933 10.0176 16.088C10.0147 16.082 9.99985 16.0522 9.99775 16.048C9.99306 16.0473 9.94555 16.0408 9.94134 16.0402C9.93803 16.0435 9.88873 16.0923 9.88873 16.0923L9.81543 16.0264V16.0977Z" fill="#00843D"/>
<path d="M9.81543 16.3819L9.86308 16.425L9.81543 16.468V16.5394L9.88873 16.4735C9.88873 16.4735 9.93803 16.5222 9.94134 16.5255C9.94555 16.5249 9.99306 16.5184 9.99775 16.5177C9.99985 16.5135 10.0147 16.4837 10.0176 16.4777C10.0127 16.4724 9.96908 16.425 9.96908 16.425C9.96908 16.425 10.0127 16.3775 10.0176 16.3721C10.0147 16.3662 9.99985 16.3364 9.99775 16.3321C9.99306 16.3315 9.94555 16.325 9.94134 16.3244C9.93803 16.3277 9.88873 16.3764 9.88873 16.3764L9.81543 16.3105V16.3819Z" fill="#00843D"/>
<path d="M9.81543 16.7512L9.86308 16.7082L9.81543 16.6651V16.5938L9.88873 16.6597C9.88873 16.6597 9.93803 16.6109 9.94134 16.6076C9.94555 16.6082 9.99306 16.6147 9.99775 16.6154C9.99985 16.6196 10.0147 16.6494 10.0176 16.6554C10.0127 16.6607 9.96908 16.7082 9.96908 16.7082C9.96908 16.7082 10.0127 16.7556 10.0176 16.761C10.0147 16.7669 9.99985 16.7968 9.99775 16.801C9.99306 16.8016 9.94555 16.8081 9.94134 16.8087C9.93803 16.8054 9.88873 16.7567 9.88873 16.7567L9.81543 16.8226V16.7512Z" fill="#00843D"/>
<path d="M10.0899 15.7666C10.0871 15.7692 9.83075 16.0033 9.81932 16.0138C9.84242 16.0347 9.86477 16.0565 9.88794 16.0773C9.8938 16.0716 9.93843 16.0279 9.93843 16.0279L10.0045 16.0378L10.0304 16.09C10.0304 16.09 9.99008 16.134 9.98374 16.1409C9.99008 16.1478 10.0304 16.1917 10.0304 16.1917L10.0045 16.244L9.93843 16.2525C9.93843 16.2525 9.8938 16.2102 9.88793 16.2045L9.81543 16.2708V16.2934C9.83982 16.3155 9.86346 16.3378 9.88793 16.3598C9.8938 16.354 9.93843 16.3118 9.93843 16.3118L10.0045 16.3203L10.0304 16.3725C10.0304 16.3725 9.99008 16.4165 9.98374 16.4234C9.99008 16.4302 10.0304 16.4742 10.0304 16.4742L10.0045 16.5279L9.93843 16.5364C9.93843 16.5364 9.8938 16.4927 9.88793 16.4869L9.81543 16.5533V16.5773L9.88793 16.6437C9.8938 16.6379 9.93843 16.5943 9.93843 16.5943L10.0045 16.6042L10.0304 16.6564C10.0304 16.6564 9.99008 16.7004 9.98374 16.7073C9.99008 16.7142 10.0304 16.7581 10.0304 16.7581L10.0045 16.8104L9.93843 16.8203C9.93843 16.8203 9.8938 16.7766 9.88793 16.7708C9.86486 16.7916 9.84233 16.8123 9.81931 16.833C9.83075 16.8435 10.0871 17.0776 10.0899 17.0802H10.1495L10.2362 16.9884L10.1805 16.9347L10.1909 16.8612L10.2492 16.8344L10.3087 16.8852L10.367 16.8344L10.4252 16.8612L10.4369 16.9347L10.3799 16.9884L10.4641 17.0759L10.5482 16.9884L10.4913 16.9347L10.5016 16.8612L10.5612 16.8344L10.6195 16.8852L10.679 16.8344L10.7373 16.8612L10.7476 16.9347L10.692 16.9884L10.7748 17.0773L10.859 16.9884L10.8033 16.9347L10.8137 16.8612L10.8732 16.8344L10.9315 16.8852L10.9897 16.8344L11.0493 16.8612L11.0597 16.9347L11.004 16.9884L11.0907 17.0802H11.149C11.1518 17.0776 11.4081 16.8435 11.4196 16.833C11.3965 16.8123 11.3741 16.7916 11.351 16.7708C11.3451 16.7766 11.3018 16.8203 11.3018 16.8203L11.2357 16.8104L11.2086 16.7581C11.2086 16.7581 11.2488 16.7142 11.2552 16.7073C11.2488 16.7004 11.2086 16.6564 11.2086 16.6564L11.2357 16.6042L11.3018 16.5943C11.3018 16.5943 11.3451 16.6379 11.351 16.6437L11.4235 16.5773V16.5533L11.351 16.4869C11.3451 16.4927 11.3018 16.5364 11.3018 16.5364L11.2357 16.5279L11.2086 16.4742C11.2086 16.4742 11.2488 16.4302 11.2552 16.4234C11.2488 16.4165 11.2086 16.3725 11.2086 16.3725L11.2357 16.3203L11.3018 16.3118C11.3018 16.3118 11.3451 16.354 11.351 16.3598C11.3753 16.338 11.3992 16.3166 11.4235 16.2948V16.2694L11.351 16.2045C11.3451 16.2102 11.3018 16.2525 11.3018 16.2525L11.2357 16.244L11.2086 16.1917C11.2086 16.1917 11.2488 16.1478 11.2552 16.1409C11.2488 16.134 11.2086 16.09 11.2086 16.09L11.2357 16.0378L11.3018 16.0279C11.3018 16.0279 11.3451 16.0716 11.351 16.0773C11.3742 16.0565 11.3977 16.036 11.4209 16.0152C11.412 16.007 11.1518 15.7692 11.149 15.7666H11.0907L11.004 15.8584L11.0597 15.9121L11.0493 15.9855L10.9897 16.0138L10.9315 15.9629L10.8732 16.0138L10.8137 15.9855L10.8033 15.9121L10.859 15.8584L10.7761 15.7708L10.692 15.8584L10.7476 15.9121L10.7373 15.9855L10.679 16.0138L10.6195 15.9629L10.5612 16.0138L10.5016 15.9855L10.4913 15.9121L10.5482 15.8584L10.4641 15.7708L10.3799 15.8584L10.4369 15.9121L10.4252 15.9855L10.367 16.0138L10.3087 15.9629L10.2492 16.0138L10.1909 15.9855L10.1805 15.9121L10.2362 15.8584L10.1482 15.7666L10.0899 15.7666ZM9.81543 16.3951V16.4531L9.84651 16.4234L9.81543 16.3951Z" fill="#D22630"/>
<path d="M10.3085 17.0332L10.2632 17.0798H10.3525L10.3085 17.0332Z" fill="white"/>
<path d="M10.6197 17.0332L10.5757 17.0798H10.665L10.6197 17.0332Z" fill="white"/>
<path d="M10.9315 17.0332L10.8862 17.0798H10.9768L10.9315 17.0332Z" fill="white"/>
<path d="M10.2622 15.7666L10.3088 15.8146L10.3541 15.7666H10.2622Z" fill="white"/>
<path d="M10.5742 15.7666L10.6195 15.8146L10.6662 15.7666H10.5742Z" fill="white"/>
<path d="M10.8862 15.7666L10.9315 15.8146L10.9768 15.7666H10.8862Z" fill="white"/>
<path d="M11.4237 16.1123L11.3926 16.1406L11.4237 16.1674V16.1123Z" fill="white"/>
<path d="M11.4237 16.3955L11.3926 16.4238L11.4237 16.452V16.3955Z" fill="white"/>
<path d="M11.4237 16.6787L11.3926 16.707L11.4237 16.7352V16.6787Z" fill="white"/>
<path d="M9.81543 16.1113V16.1692L9.8465 16.141L9.81543 16.1113Z" fill="white"/>
<path d="M9.81543 16.3955V16.4534L9.8465 16.4238L9.81543 16.3955Z" fill="white"/>
<path d="M9.81543 16.6777V16.7356L9.8465 16.7074L9.81543 16.6777Z" fill="white"/>
<path d="M10.8867 16.3291V16.228H10.7929V16.1172H10.4475V16.228H10.3537V16.3291H10.2241V16.5184H10.3537V16.6195H10.4475V16.7303H10.7929V16.6195H10.8867V16.5184H11.0162V16.3291H10.8867Z" fill="#383739"/>
<path d="M10.6147 16.1289V16.2432L10.4662 16.3352V16.4183H10.2344V16.3408H10.3639V16.2398H10.4577V16.1289H10.6147Z" fill="#FFC72C"/>
<path d="M10.6255 16.7191V16.6049L10.774 16.5128V16.4297H11.0058V16.5072H10.8763V16.6083H10.7825V16.7191H10.6255Z" fill="#FFC72C"/>
<path d="M10.774 16.4183V16.3352L10.6255 16.2432V16.1289H10.7825V16.2398H10.8763V16.3408H11.0058V16.4183H10.774Z" fill="white"/>
<path d="M10.2344 16.4297H10.4662V16.5128L10.6147 16.6049V16.7191H10.4577V16.6083H10.3639V16.5072H10.2344V16.4297Z" fill="white"/>
<path d="M10.4771 16.4297V16.5067L10.615 16.5923V16.4297H10.4771Z" fill="#D22630"/>
<path d="M10.615 16.2559L10.4771 16.3414V16.4185H10.615V16.2559Z" fill="#00843D"/>
<path d="M10.7635 16.4185V16.3414L10.6255 16.2559V16.4185H10.7635Z" fill="#D22630"/>
<path d="M10.6255 16.5923L10.7635 16.5067V16.4297H10.6255V16.5923Z" fill="#00843D"/>
<path d="M9.3645 18.4327V18.7451H9.09157V19.0285H8.81494V19.8354H9.09157V20.1188H9.3645V20.4312H10.3569L10.5314 20.5456L10.4475 20.6006H10.0937L10.0632 20.5631H10.3838L10.2935 20.4638H9.83477L10.0426 20.6999H10.4728L10.6197 20.6035L10.7667 20.6999H11.1969L11.4047 20.4638H10.946L10.8556 20.5631H11.1763L11.1458 20.6006H10.7919L10.7081 20.5456L10.8826 20.4312H11.875V20.1188H12.1479V19.8354H12.4245V19.0285H12.1479V18.7451H11.875V18.4327H10.8826L10.7081 18.3183L10.7919 18.2633H11.1458L11.1763 18.3009H10.8556L10.946 18.4001H11.4047L11.1969 18.1641H10.7667L10.6197 18.2604L10.4728 18.1641H10.0426L9.83477 18.4001H10.2935L10.3838 18.3009H10.0632L10.0937 18.2633H10.4475L10.5314 18.3183L10.3569 18.4327H9.3645Z" fill="#D22630"/>
<path d="M10.8799 20.4192H11.8652V20.107H12.1371V19.8231H12.4142V19.0392H12.1371V18.7567H11.8652V18.4446H10.8799L10.4708 18.1748H10.0474L9.85968 18.3881H10.2895L10.3594 18.3118H10.0396L10.0888 18.2511H10.4514L10.9149 18.5562H11.7616V18.8683H12.0348V19.1522H12.3119V19.7115H12.0348V19.9954H11.7616V20.3076H10.9149L10.4514 20.6112H10.0888L10.0396 20.5519H10.3594L10.2895 20.4757H9.85968L10.0474 20.6889H10.4708L10.8799 20.4192ZM10.3245 20.3076H9.47774V19.9954H9.20584V19.7115H8.92877V19.1522H9.20584V18.8683H9.47774V18.5562H10.3245L10.7893 18.2511H11.1505L11.1997 18.3118H10.8812L10.9511 18.3881H11.381L11.1933 18.1748H10.7699L10.3607 18.4446H9.37545V18.7567H9.10227V19.0392H8.8252V19.8231H9.10227V20.107H9.37545V20.4192H10.3607L10.7699 20.6889H11.1933L11.381 20.4757H10.9511L10.8812 20.5519H11.1997L11.1505 20.6112H10.7893L10.3245 20.3076Z" fill="#FFC72C"/>
<path d="M11.6794 19.9055V20.2179H10.8922L10.6198 20.3965L10.3474 20.2179H9.5603V19.9055H9.28736V19.6221H9.01074V19.2422H9.28736V18.9588H9.5603V18.6463H10.346H10.3474L10.6198 18.4678L10.8922 18.6463H11.6794V18.9588H11.9523V19.2422H12.2289V19.6221H11.9523V19.9055H11.6794Z" fill="#00843D"/>
<path d="M9.66357 19.7958V20.0982H10.0962L9.66357 19.7852V19.7958Z" fill="#383739"/>
<path d="M9.66357 19.068V18.7656H10.0962L9.66357 19.0787V19.068Z" fill="#383739"/>
<path d="M11.5767 19.7958V20.0982H11.144L11.5767 19.7852V19.7958Z" fill="#383739"/>
<path d="M11.5767 19.068V18.7656H11.144L11.5767 19.0787V19.068Z" fill="#383739"/>
<path d="M9.67383 19.8066L10.0613 20.087H9.67383V19.8066Z" fill="#D22630"/>
<path d="M9.67383 19.0577C9.68889 19.0468 10.0349 18.7964 10.0613 18.7773H9.67383V19.0577Z" fill="#D22630"/>
<path d="M11.5661 19.8066C11.5511 19.8176 11.2051 20.0679 11.1787 20.087H11.5661V19.8066Z" fill="#D22630"/>
<path d="M11.5661 19.0577C11.5511 19.0468 11.2051 18.7964 11.1787 18.7773H11.5661V19.0577Z" fill="#D22630"/>
<path d="M10.2151 19.3495V19.1951H10.1668L9.9352 19.0371L9.93243 19.039L9.70357 19.1951H9.65529V19.3495H9.54639V19.5154H9.65529V19.6698H9.70357L9.9352 19.8278L10.1668 19.6698H10.2151V19.5154H10.3809V19.3495H10.2151Z" fill="#383739"/>
<path d="M9.935 19.0508L10.1469 19.1953H9.72314L9.935 19.0508ZM10.1469 19.67L9.935 19.8145L9.72316 19.67H10.1469Z" fill="#D22630"/>
<path d="M10.0958 19.3613V19.5043H9.83154V19.3613H10.0958Z" fill="#D22630"/>
<path d="M10.2046 19.5156V19.6586H9.94043V19.5156H10.2046Z" fill="#FFC72C"/>
<path d="M9.92975 19.5156V19.6586H9.66553V19.5156H9.92975Z" fill="#FFC72C"/>
<path d="M10.3702 19.3613V19.5043H10.106V19.3613H10.3702Z" fill="#FFC72C"/>
<path d="M9.82086 19.3613V19.5043H9.55664V19.3613H9.82086Z" fill="#FFC72C"/>
<path d="M10.2046 19.207V19.35H9.94043V19.207H10.2046Z" fill="#FFC72C"/>
<path d="M9.92975 19.207V19.35H9.66553V19.207H9.92975Z" fill="#FFC72C"/>
<path d="M9.74857 19.3926V19.472H9.62988V19.3926H9.74857Z" fill="#383739"/>
<path d="M9.85745 19.2383V19.3177H9.73877V19.2383H9.85745Z" fill="#383739"/>
<path d="M10.1324 19.2383V19.3177H10.0137V19.2383H10.1324Z" fill="#383739"/>
<path d="M10.023 19.3926V19.472H9.9043V19.3926H10.023Z" fill="#383739"/>
<path d="M10.2979 19.3926V19.472H10.1792V19.3926H10.2979Z" fill="#383739"/>
<path d="M10.1324 19.5469V19.6263H10.0137V19.5469H10.1324Z" fill="#383739"/>
<path d="M9.85745 19.5469V19.6263H9.73877V19.5469H9.85745Z" fill="#383739"/>
<path d="M9.73696 19.4053H9.64062V19.4603H9.73696V19.4053Z" fill="white"/>
<path d="M9.84584 19.251H9.74951V19.306H9.84584V19.251Z" fill="white"/>
<path d="M10.1207 19.251H10.0244V19.306H10.1207V19.251Z" fill="white"/>
<path d="M10.0119 19.4053H9.91553V19.4603H10.0119V19.4053Z" fill="white"/>
<path d="M10.2863 19.4053H10.1899V19.4603H10.2863V19.4053Z" fill="white"/>
<path d="M10.1207 19.5596H10.0244V19.6146H10.1207V19.5596Z" fill="white"/>
<path d="M9.84584 19.5596H9.74951V19.6146H9.84584V19.5596Z" fill="white"/>
<path d="M11.0246 19.3495V19.1951H11.0729L11.3045 19.0371L11.3073 19.039L11.5362 19.1951H11.5845V19.3495H11.6934V19.5154H11.5845V19.6698H11.5362L11.3045 19.8278L11.0729 19.6698H11.0246V19.5154H10.8588V19.3495H11.0246Z" fill="#383739"/>
<path d="M11.3047 19.0508L11.0929 19.1953H11.5166L11.3047 19.0508ZM11.0929 19.67L11.3047 19.8145L11.5166 19.67H11.0929Z" fill="#D22630"/>
<path d="M11.144 19.3613V19.5043H11.4082V19.3613H11.144Z" fill="#D22630"/>
<path d="M11.0351 19.5156V19.6586H11.2993V19.5156H11.0351Z" fill="#FFC72C"/>
<path d="M11.31 19.5156V19.6586H11.5742V19.5156H11.31Z" fill="#FFC72C"/>
<path d="M10.8696 19.3613V19.5043H11.1338V19.3613H10.8696Z" fill="#FFC72C"/>
<path d="M11.4189 19.3613V19.5043H11.6831V19.3613H11.4189Z" fill="#FFC72C"/>
<path d="M11.0351 19.207V19.35H11.2993V19.207H11.0351Z" fill="#FFC72C"/>
<path d="M11.31 19.207V19.35H11.5742V19.207H11.31Z" fill="#FFC72C"/>
<path d="M11.4912 19.3926V19.472H11.6099V19.3926H11.4912Z" fill="#383739"/>
<path d="M11.3823 19.2383V19.3177H11.501V19.2383H11.3823Z" fill="#383739"/>
<path d="M11.1074 19.2383V19.3177H11.2261V19.2383H11.1074Z" fill="#383739"/>
<path d="M11.2168 19.3926V19.472H11.3354V19.3926H11.2168Z" fill="#383739"/>
<path d="M10.9419 19.3926V19.472H11.0605V19.3926H10.9419Z" fill="#383739"/>
<path d="M11.1074 19.5469V19.6263H11.2261V19.5469H11.1074Z" fill="#383739"/>
<path d="M11.3823 19.5469V19.6263H11.501V19.5469H11.3823Z" fill="#383739"/>
<path d="M11.5028 19.4053H11.5991V19.4603H11.5028V19.4053Z" fill="white"/>
<path d="M11.3939 19.251H11.4902V19.306H11.3939V19.251Z" fill="white"/>
<path d="M11.119 19.251H11.2153V19.306H11.119V19.251Z" fill="white"/>
<path d="M11.2279 19.4053H11.3242V19.4603H11.2279V19.4053Z" fill="white"/>
<path d="M10.9535 19.4053H11.0498V19.4603H10.9535V19.4053Z" fill="white"/>
<path d="M11.119 19.5596H11.2153V19.6146H11.119V19.5596Z" fill="white"/>
<path d="M11.3939 19.5596H11.4902V19.6146H11.3939V19.5596Z" fill="white"/>
<path d="M10.8998 19.0916V19.246H10.8515L10.6199 19.404L10.6171 19.4021L10.3883 19.246H10.34V19.0916H10.2026V18.9257H10.34V18.7713H10.3883L10.6199 18.6133L10.8515 18.7713H10.8998V18.9257H11.0372V19.0916H10.8998Z" fill="#383739"/>
<path d="M10.6201 19.3907L10.8319 19.2462H10.4082L10.6201 19.3907ZM10.8319 18.7715L10.6201 18.627L10.4082 18.7715H10.8319Z" fill="#FFC72C"/>
<path d="M10.8892 18.9252V18.7822H10.625V18.9252H10.8892Z" fill="#D22630"/>
<path d="M10.6143 18.9252V18.7822H10.3501V18.9252H10.6143Z" fill="#D22630"/>
<path d="M11.0264 19.0795V18.9365H10.7622V19.0795H11.0264Z" fill="#D22630"/>
<path d="M10.752 19.0795V18.9365H10.4878V19.0795H10.752Z" fill="#D22630"/>
<path d="M10.4771 19.0795V18.9365H10.2129V19.0795H10.4771Z" fill="#D22630"/>
<path d="M10.8892 19.2338V19.0908H10.625V19.2338H10.8892Z" fill="#D22630"/>
<path d="M10.6143 19.2338V19.0908H10.3501V19.2338H10.6143Z" fill="#D22630"/>
<path d="M10.5415 18.8145V18.8939H10.4229V18.8145H10.5415Z" fill="#383739"/>
<path d="M10.8164 18.8145V18.8939H10.6978V18.8145H10.8164Z" fill="#383739"/>
<path d="M10.4043 18.9688V19.0482H10.2856V18.9688H10.4043Z" fill="#383739"/>
<path d="M10.6792 18.9688V19.0482H10.5605V18.9688H10.6792Z" fill="#383739"/>
<path d="M10.9536 18.9688V19.0482H10.835V18.9688H10.9536Z" fill="#383739"/>
<path d="M10.5415 19.123V19.2025H10.4229V19.123H10.5415Z" fill="#383739"/>
<path d="M10.8164 19.123V19.2025H10.6978V19.123H10.8164Z" fill="#383739"/>
<path d="M10.5304 18.8271H10.4341V18.8822H10.5304V18.8271Z" fill="white"/>
<path d="M10.8053 18.8271H10.709V18.8822H10.8053V18.8271Z" fill="white"/>
<path d="M10.3932 18.9814H10.2969V19.0365H10.3932V18.9814Z" fill="white"/>
<path d="M10.6681 18.9814H10.5718V19.0365H10.6681V18.9814Z" fill="white"/>
<path d="M10.9425 18.9814H10.8462V19.0365H10.9425V18.9814Z" fill="white"/>
<path d="M10.5304 19.1357H10.4341V19.1908H10.5304V19.1357Z" fill="white"/>
<path d="M10.8053 19.1357H10.709V19.1908H10.8053V19.1357Z" fill="white"/>
<path d="M10.8998 19.9392V20.0936H10.8515L10.6199 20.2516L10.6171 20.2498L10.3883 20.0936H10.34V19.9392H10.2026V19.7734H10.34V19.619H10.3883L10.6199 19.4609L10.8515 19.619H10.8998V19.7734H11.0372V19.9392H10.8998Z" fill="#383739"/>
<path d="M10.6201 20.2384L10.8319 20.0938H10.4082L10.6201 20.2384ZM10.8319 19.6191L10.6201 19.4746L10.4082 19.6191H10.8319Z" fill="#FFC72C"/>
<path d="M10.8892 19.7729V19.6299H10.625V19.7729H10.8892Z" fill="#D22630"/>
<path d="M10.6143 19.7729V19.6299H10.3501V19.7729H10.6143Z" fill="#D22630"/>
<path d="M11.0264 19.9272V19.7842H10.7622V19.9272H11.0264Z" fill="#D22630"/>
<path d="M10.752 19.9272V19.7842H10.4878V19.9272H10.752Z" fill="#D22630"/>
<path d="M10.4771 19.9272V19.7842H10.2129V19.9272H10.4771Z" fill="#D22630"/>
<path d="M10.8892 20.0815V19.9385H10.625V20.0815H10.8892Z" fill="#D22630"/>
<path d="M10.6143 20.0815V19.9385H10.3501V20.0815H10.6143Z" fill="#D22630"/>
<path d="M10.5415 19.6621V19.7416H10.4229V19.6621H10.5415Z" fill="#383739"/>
<path d="M10.8164 19.6621V19.7416H10.6978V19.6621H10.8164Z" fill="#383739"/>
<path d="M10.4043 19.8164V19.8959H10.2856V19.8164H10.4043Z" fill="#383739"/>
<path d="M10.6792 19.8164V19.8959H10.5605V19.8164H10.6792Z" fill="#383739"/>
<path d="M10.9536 19.8164V19.8959H10.835V19.8164H10.9536Z" fill="#383739"/>
<path d="M10.5415 19.9707V20.0502H10.4229V19.9707H10.5415Z" fill="#383739"/>
<path d="M10.8164 19.9707V20.0502H10.6978V19.9707H10.8164Z" fill="#383739"/>
<path d="M10.5304 19.6748H10.4341V19.7299H10.5304V19.6748Z" fill="white"/>
<path d="M10.8053 19.6748H10.709V19.7299H10.8053V19.6748Z" fill="white"/>
<path d="M10.3932 19.8291H10.2969V19.8842H10.3932V19.8291Z" fill="white"/>
<path d="M10.6681 19.8291H10.5718V19.8842H10.6681V19.8291Z" fill="white"/>
<path d="M10.9425 19.8291H10.8462V19.8842H10.9425V19.8291Z" fill="white"/>
<path d="M10.5304 19.9834H10.4341V20.0385H10.5304V19.9834Z" fill="white"/>
<path d="M10.8053 19.9834H10.709V20.0385H10.8053V19.9834Z" fill="white"/>
<path d="M9.12109 21.7832L10.149 21.1797H10.1503H11.0911L12.119 21.7832V22.7776L11.0911 23.3811H10.149L9.12109 22.7776V21.7832Z" fill="#383739"/>
<path d="M10.1521 21.1904L9.13184 21.7893V22.7695L10.1521 23.3684H11.0881L12.1084 22.7695V21.7893L11.0881 21.1904H10.1521ZM10.1702 21.2709H11.07L12.0359 21.8373V22.7229L11.07 23.2893H10.1697L9.2038 22.7229V21.8373L10.1702 21.2709Z" fill="#00843D"/>
<path d="M10.625 22.2745V23.2783H11.0673L12.0251 22.7159V22.286L10.6145 22.286V21.2822H10.1722L9.21436 21.8445V22.2745L10.625 22.2745Z" fill="#FFC72C"/>
<path d="M10.6145 22.2745V23.2783H10.1722L9.21436 22.7159V22.286L10.625 22.286V21.2822H11.0673L12.0251 21.8445V22.2745L10.6145 22.2745Z" fill="white"/>
<path d="M10.706 23.2215V22.9314L10.62 22.9909L10.534 22.9314V23.2215H10.2666L10.4471 23.0771V22.8712L10.1718 22.6807H9.97949V21.8787H10.1718L10.4471 21.6882V21.4823L10.2666 21.3379H10.2826H10.534V21.628L10.62 21.5685L10.706 21.628V21.3379H10.9735L10.793 21.4823V21.6882L11.0682 21.8787H11.2606V22.6807H11.0682L10.793 22.8712V23.0771L10.9735 23.2215H10.706Z" fill="#383739"/>
<path d="M10.7166 21.3506V21.65L10.6247 21.5865V21.6712L11.0454 21.9636H11.184V22.2743H11.25V21.8902H11.0649L10.7826 21.6952V21.4777L10.9418 21.3506H10.7166ZM9.99024 22.2856V22.6698H10.1741L10.4576 22.8661V23.0836L10.2984 23.2107H10.5237V22.9113L10.6143 22.9749V22.8873L10.1935 22.5978H10.0563V22.2856L9.99024 22.2856Z" fill="#FFC72C"/>
<path d="M10.2984 21.3506L10.4576 21.4777V21.6952L10.1741 21.8902H9.99023V22.2743H10.0563V21.9636H10.1935L10.6143 21.6726V21.5865L10.5237 21.65V21.3506L10.2984 21.3506ZM11.184 22.2856V22.5978H11.0454L10.6246 22.8873V22.9749L10.7166 22.9113V23.2107H10.9418L10.7826 23.0836V22.8661L11.0649 22.6698H11.25V22.2856L11.184 22.2856Z" fill="white"/>
<path d="M10.0664 22.5856H10.1969L10.62 22.8784L11.043 22.5856H11.1735V21.9745H11.0445H11.043L10.62 21.6816L10.1969 21.9745H10.0664V22.5856Z" fill="#D22630"/>
<path d="M10.913 22.425H11.0033V22.3784H10.9354V22.2936H11.0806V22.5098H10.9414L10.9414 22.6572H10.6548V22.4453H10.7809V22.5301H10.7321V22.5725H10.8641V22.4914L10.3273 22.1346H10.2369V22.1812H10.3049V22.2659H10.1597V22.0498H10.2989V21.9023H10.3041H10.5855V22.1142H10.4594V22.0295H10.5082V21.9871H10.3762V22.0681L10.913 22.425ZM10.8641 22.0681V21.9871H10.7321V22.0295H10.7809V22.1142H10.6548V21.9023H10.9414V22.0498H11.0806V22.2659H10.9354V22.1812H11.0033V22.1346H10.913L10.3762 22.4914V22.5724H10.5082V22.5301H10.4594V22.4453H10.5855V22.6572H10.2989V22.5097H10.1597V22.2936H10.3049V22.3784H10.2369V22.425H10.3273L10.8641 22.0681Z" fill="#383739"/>
<path d="M10.8743 22.4853V22.5842H10.7213V22.519H10.7702V22.4571H10.665V22.6461H10.9307V22.4986H11.0699V22.3053H10.9456V22.3672H11.0136V22.4367H10.9098L10.3655 22.0748V21.976H10.5185V22.0412H10.4696V22.1031H10.5748V21.9141H10.3091V22.0615H10.1699V22.2548H10.2942V22.1929H10.2262V22.1234H10.33L10.8743 22.4853ZM10.9098 22.1234H11.0136V22.1929H10.9456V22.2548H11.0699V22.0615H10.9307V21.9141H10.665V22.1031H10.7702V22.0412H10.7214V21.976H10.8743V22.0748L10.33 22.4367H10.2262V22.3672H10.2942V22.3053H10.1699V22.4986H10.3091V22.6461H10.5748V22.457H10.4696V22.5189H10.5185V22.5842H10.3655V22.4853L10.9098 22.1234Z" fill="white"/>
<path d="M11.8192 22.3311V22.6447H11.6969V22.5339H11.5735V22.6447H11.4512V22.3311H11.5735V22.4418H11.6969V22.3311H11.8192Z" fill="#383739"/>
<path d="M11.3812 22.7471V23.0607H11.2589V22.9499H11.1355V23.0607H11.0132V22.7471H11.1355V22.8579H11.2589V22.7471H11.3812Z" fill="#383739"/>
<path d="M11.8192 22.2297V21.916H11.6969V22.0268H11.5735V21.916H11.4512V22.2297H11.5735V22.1189H11.6969V22.2297H11.8192Z" fill="#383739"/>
<path d="M9.42139 22.3311V22.6447H9.54374V22.5339H9.66707V22.6447H9.78942V22.3311H9.66707V22.4418H9.54374V22.3311H9.42139Z" fill="#383739"/>
<path d="M9.42139 22.2297V21.916H9.54374V22.0268H9.66707V21.916H9.78942V22.2297H9.66707V22.1189H9.54374V22.2297H9.42139Z" fill="#383739"/>
<path d="M11.3812 21.8136V21.5H11.2589V21.6108H11.1355V21.5H11.0132V21.8136H11.1355V21.7029H11.2589V21.8136H11.3812Z" fill="#383739"/>
<path d="M9.85889 22.7471V23.0607H9.98124V22.9499H10.1046V23.0607H10.2269V22.7471H10.1046V22.8579H9.98124V22.7471H9.85889Z" fill="#383739"/>
<path d="M9.85889 21.8136V21.5H9.98124V21.6108H10.1046V21.5H10.2269V21.8136H10.1046V21.7029H9.98124V21.8136H9.85889Z" fill="#383739"/>
<path d="M11.4541 21.5938V21.8319H11.8598L11.4541 21.5938Z" fill="#383739"/>
<path d="M9.78608 22.9667V22.7285H9.38037L9.78608 22.9667Z" fill="#383739"/>
<path d="M9.78608 21.5938V21.8319H9.38037L9.78608 21.5938Z" fill="#383739"/>
<path d="M11.4541 22.9667V22.7285H11.8598L11.4541 22.9667Z" fill="#383739"/>
<path d="M11.7071 22.5218V22.6326H11.8085V22.3418H11.7071V22.4526H11.5628V22.3418H11.4614V22.6326H11.5628V22.5218H11.7071Z" fill="#D22630"/>
<path d="M11.2691 22.9378V23.0486H11.3705V22.7578H11.2691V22.8686H11.1248V22.7578H11.0234V23.0486H11.1248V22.9378H11.2691Z" fill="#D22630"/>
<path d="M11.7071 22.0375V21.9268H11.8085V22.2175H11.7071V22.1068H11.5628V22.2175H11.4614V21.9268H11.5628V22.0375H11.7071Z" fill="#D22630"/>
<path d="M9.53303 22.5218V22.6326H9.43164V22.3418H9.53303V22.4526H9.67732V22.3418H9.77871V22.6326H9.67732V22.5218H9.53303Z" fill="#D22630"/>
<path d="M9.53303 22.0375V21.9268H9.43164V22.2175H9.53303V22.1068H9.67732V22.2175H9.77871V21.9268H9.67732V22.0375H9.53303Z" fill="#D22630"/>
<path d="M11.2691 21.6215V21.5107H11.3705V21.8015H11.2691V21.6908H11.1248V21.8015H11.0234V21.5107H11.1248V21.6215H11.2691Z" fill="#D22630"/>
<path d="M9.97102 22.9378V23.0486H9.86963V22.7578H9.97102V22.8686H10.1153V22.7578H10.2167V23.0486H10.1153V22.9378H9.97102Z" fill="#D22630"/>
<path d="M9.97102 21.6215V21.5107H9.86963V21.8015H9.97102V21.6908H10.1153V21.8015H10.2167V21.5107H10.1153V21.6215H9.97102Z" fill="#D22630"/>
<path d="M11.465 21.6133V21.8209H11.8185L11.465 21.6133ZM9.42189 22.7404L9.77535 22.9481V22.7404H9.42189Z" fill="#FFC72C"/>
<path d="M9.77533 21.6133L9.42188 21.8209H9.77533V21.6133ZM11.4649 22.7404V22.9481L11.8184 22.7404H11.4649Z" fill="white"/>
<path d="M12.2799 23.1553C12.2604 23.2462 12.1941 23.3147 12.1784 23.409C12.1468 23.3107 12.1176 23.2284 12.1394 23.1209C12.155 23.044 12.2142 22.9892 12.2211 22.9102C12.2857 22.9735 12.2997 23.0635 12.2799 23.1553ZM12.2963 23.536C12.2415 23.618 12.1652 23.6809 12.0811 23.7228C12.0977 23.651 12.0666 23.5969 12.0321 23.5399C11.9905 23.4713 11.9702 23.4039 12.0041 23.3248C12.0199 23.3659 12.0411 23.4 12.066 23.4352C12.1029 23.49 12.1271 23.5387 12.1327 23.609C12.1753 23.5746 12.1941 23.5232 12.2168 23.4734C12.2515 23.4021 12.3076 23.3425 12.3719 23.3036C12.3548 23.3835 12.3417 23.4681 12.2963 23.536ZM11.9888 23.7804C12.0005 23.826 12.0106 23.8711 12.0084 23.9187C12.0446 23.8761 12.0927 23.8441 12.1356 23.8098C12.1941 23.7582 12.2622 23.7219 12.31 23.6562C12.3029 23.7528 12.2649 23.8316 12.193 23.8904C12.1169 23.9525 12.0251 23.9859 11.9501 24.0512C11.9614 23.9633 11.9318 23.8929 11.9065 23.8121C11.8855 23.7349 11.9059 23.6565 11.9538 23.5977C11.9531 23.6629 11.972 23.7189 11.9888 23.7804ZM11.818 24.0773C11.8023 24.144 11.7585 24.1982 11.7286 24.2577C11.8092 24.2304 11.8804 24.1827 11.9533 24.1378C12.0401 24.0862 12.1344 24.0534 12.213 23.9853C12.1738 24.1433 12.0769 24.2349 11.9351 24.2816C11.8381 24.3135 11.7564 24.2976 11.6387 24.3495C11.6522 24.2626 11.676 24.1688 11.7136 24.0904C11.7429 24.0338 11.7753 23.9779 11.7933 23.9155C11.8195 23.9667 11.8319 24.0189 11.818 24.0773ZM11.5213 24.3191C11.4936 24.3709 11.4569 24.4146 11.4115 24.4491C11.5259 24.457 11.618 24.3779 11.7296 24.3744C11.7986 24.3723 11.864 24.3957 11.9343 24.3887C11.8509 24.4501 11.7636 24.5037 11.662 24.518C11.53 24.5366 11.4082 24.5004 11.2625 24.5146C11.3306 24.4622 11.3647 24.392 11.4071 24.3166C11.4623 24.2224 11.5145 24.1553 11.622 24.1401C11.5788 24.193 11.5537 24.2585 11.5213 24.3191ZM11.1148 24.5263C11.3164 24.5637 11.5097 24.6121 11.7157 24.6143C11.4851 24.702 11.2679 24.7179 11.0392 24.6274C10.9157 24.5784 10.8209 24.5522 10.7276 24.5595C10.5912 24.5702 10.4255 24.6289 10.242 24.84L10.1699 24.777C10.4328 24.5215 10.7768 24.4636 11.1148 24.5263L11.1148 24.5263Z" fill="#FFC72C"/>
</g>
<defs>
<clipPath id="clip0_1768_30680">
<rect x="6" y="9" width="22" height="16" rx="4" fill="white"/>
</clipPath>
</defs>
</svg>
